SplineFontDB: 3.0
FontName: LiberationSansNarrow-Bold
FullName: Liberation Sans Narrow Bold
FamilyName: Liberation Sans Narrow
Weight: Bold
Copyright: Copyright 2010 Oracle and/or its affiliates
Version: 1.07.2
ItalicAngle: 0
UnderlinePosition: -110
UnderlineWidth: 215
Ascent: 1638
Descent: 410
LayerCount: 2
Layer: 0 1 "Back"  1
Layer: 1 1 "Fore"  0
NeedsXUIDChange: 1
FSType: 0
OS2Version: 1
OS2_WeightWidthSlopeOnly: 0
OS2_UseTypoMetrics: 1
CreationTime: 1123372800
ModificationTime: 1328007340
PfmFamily: 17
TTFWeight: 700
TTFWidth: 3
LineGap: 0
VLineGap: 0
Panose: 2 11 7 6 2 2 2 3 2 4
OS2TypoAscent: 1491
OS2TypoAOffset: 0
OS2TypoDescent: -431
OS2TypoDOffset: 0
OS2TypoLinegap: 269
OS2WinAscent: 1888
OS2WinAOffset: 0
OS2WinDescent: 431
OS2WinDOffset: 0
HheadAscent: 1916
HheadAOffset: 0
HheadDescent: -434
HheadDOffset: 0
OS2SubXSize: 1434
OS2SubYSize: 1331
OS2SubXOff: 0
OS2SubYOff: 147
OS2SupXSize: 1434
OS2SupYSize: 1331
OS2SupXOff: 0
OS2SupYOff: 523
OS2StrikeYSize: 102
OS2StrikeYPos: 530
OS2FamilyClass: 2053
OS2Vendor: 'OOoH'
OS2CodePages: 6000009f.dfd70000
OS2UnicodeRanges: a00002af.500078fb.00000000.00000000
Lookup: 1 0 0 "'locl' Localized Forms lookup 0"  {"'locl' Localized Forms lookup 0-1"  } ['locl' ('cyrl' <'SRB ' > 'cyrl' <'MKD ' > ) ]
Lookup: 258 0 0 "'kern' Horizontal Kerning lookup 0"  {"'kern' Horizontal Kerning lookup 0 subtable"  } ['kern' ('DFLT' <'dflt' > 'cyrl' <'dflt' > 'cyrl' <'SRB ' > 'cyrl' <'MKD ' > 'grek' <'dflt' > 'latn' <'dflt' > ) ]
MarkAttachClasses: 1
DEI: 91125
TtTable: prep
PUSHW_1
 511
SCANCTRL
PUSHB_1
 1
SCANTYPE
SVTCA[y-axis]
MPPEM
PUSHB_1
 8
LT
IF
PUSHB_2
 1
 1
INSTCTRL
EIF
PUSHB_2
 70
 6
CALL
IF
POP
PUSHB_1
 16
EIF
MPPEM
PUSHB_1
 20
GT
IF
POP
PUSHB_1
 128
EIF
SCVTCI
PUSHB_1
 6
CALL
NOT
IF
EIF
PUSHB_1
 20
CALL
EndTTInstrs
TtTable: fpgm
PUSHB_1
 0
FDEF
PUSHB_1
 0
SZP0
MPPEM
PUSHB_1
 42
LT
IF
PUSHB_1
 74
SROUND
EIF
PUSHB_1
 0
SWAP
MIAP[rnd]
RTG
PUSHB_1
 6
CALL
IF
RTDG
EIF
MPPEM
PUSHB_1
 42
LT
IF
RDTG
EIF
DUP
MDRP[rp0,rnd,grey]
PUSHB_1

StartChar: .notdef
Encoding: 65536 -1 0
Width: 467
Flags: W
LayerCount: 2
Fore
SplineSet
42 0 m 1,0,-1
 42 1365 l 1,1,-1
 382 1365 l 1,2,-1
 382 0 l 1,3,-1
 42 0 l 1,0,-1
85 68 m 1,4,-1
 340 68 l 1,5,-1
 340 1297 l 1,6,-1
 85 1297 l 1,7,-1
 85 68 l 1,4,-1
EndSplineSet
EndChar

StartChar: exclam
Encoding: 33 33 4
Width: 559
GlyphClass: 2
Flags: W
LayerCount: 2
Fore
SplineSet
373 426 m 1,0,-1
 184 426 l 1,1,-1
 158 1409 l 1,2,-1
 399 1409 l 1,3,-1
 373 426 l 1,0,-1
158 0 m 1,4,-1
 158 270 l 1,5,-1
 394 270 l 1,6,-1
 394 0 l 1,7,-1
 158 0 l 1,4,-1
EndSplineSet
EndChar

StartChar: quotedbl
Encoding: 34 34 5
Width: 797
GlyphClass: 2
Flags: W
LayerCount: 2
Fore
SplineSet
662 898 m 1,0,-1
 483 898 l 1,1,-1
 460 1409 l 1,2,-1
 686 1409 l 1,3,-1
 662 898 l 1,0,-1
313 898 m 1,4,-1
 133 898 l 1,5,-1
 111 1409 l 1,6,-1
 335 1409 l 1,7,-1
 313 898 l 1,4,-1
EndSplineSet
EndChar

StartChar: numbersign
Encoding: 35 35 6
Width: 934
GlyphClass: 2
Flags: W
LayerCount: 2
Fore
SplineSet
745 862 m 1,0,-1
 689 530 l 1,1,-1
 865 530 l 1,2,-1
 865 381 l 1,3,-1
 663 381 l 1,4,-1
 596 0 l 1,5,-1
 468 0 l 1,6,-1
 534 381 l 1,7,-1
 282 381 l 1,8,-1
 216 0 l 1,9,-1
 91 0 l 1,10,-1
 156 381 l 1,11,-1
 29 381 l 1,12,-1
 29 530 l 1,13,-1
 183 530 l 1,14,-1
 240 862 l 1,15,-1
 71 862 l 1,16,-1
 71 1010 l 1,17,-1
 266 1010 l 1,18,-1
 335 1395 l 1,19,-1
 460 1395 l 1,20,-1
 393 1010 l 1,21,-1
 645 1010 l 1,22,-1
 713 1395 l 1,23,-1
 841 1395 l 1,24,-1
 772 1010 l 1,25,-1
 907 1010 l 1,26,-1
 907 862 l 1,27,-1
 745 862 l 1,0,-1
368 862 m 1,28,-1
 309 530 l 1,29,-1
 563 530 l 1,30,-1
 620 862 l 1,31,-1
 368 862 l 1,28,-1
EndSplineSet
EndChar

StartChar: dollar
Encoding: 36 36 7
Width: 934
GlyphClass: 2
Flags: W
LayerCount: 2
Fore
SplineSet
910 412 m 0,0,1
 910 327 910 327 887 257.5 c 128,-1,2
 864 188 864 188 816 137.5 c 128,-1,3
 768 87 768 87 693.5 57.5 c 128,-1,4
 619 28 619 28 516 23 c 1,5,-1
 516 -152 l 1,6,-1
 426 -152 l 1,7,-1
 426 20 l 1,8,9
 333 24 333 24 263.5 51 c 128,-1,10
 194 78 194 78 145.5 127 c 128,-1,11
 97 176 97 176 67 246.5 c 128,-1,12
 37 317 37 317 22 408 c 1,13,-1
 232 455 l 1,14,15
 239 407 239 407 251.5 367.5 c 128,-1,16
 264 328 264 328 286 299 c 128,-1,17
 308 270 308 270 342 251.5 c 128,-1,18
 376 233 376 233 426 227 c 1,19,-1
 426 618 l 1,20,21
 424 620 424 620 414 622.5 c 128,-1,22
 404 625 404 625 401 625 c 0,23,24
 337 643 337 643 275.5 669.5 c 128,-1,25
 214 696 214 696 166 741.5 c 128,-1,26
 118 787 118 787 88.5 856.5 c 128,-1,27
 59 926 59 926 59 1030 c 0,28,29
 59 1121 59 1121 86 1186.5 c 128,-1,30
 113 1252 113 1252 162 1295 c 128,-1,31
 211 1338 211 1338 278.5 1360 c 128,-1,32
 346 1382 346 1382 426 1386 c 1,33,-1
 426 1520 l 1,34,-1
 516 1520 l 1,35,-1
 516 1386 l 1,36,37
 604 1382 604 1382 665.5 1358 c 128,-1,38
 727 1334 727 1334 769.5 1290.5 c 128,-1,39
 812 1247 812 1247 838 1183.5 c 128,-1,40
 864 1120 864 1120 882 1036 c 1,41,-1
 665 997 l 1,42,43
 653 1084 653 1084 617 1131.5 c 128,-1,44
 581 1179 581 1179 516 1190 c 1,45,-1
 516 838 l 1,46,47
 520 836 520 836 524.5 836 c 128,-1,48
 529 836 529 836 534 834 c 0,49,50
 605 814 605 814 672.5 787 c 128,-1,51
 740 760 740 760 792.5 714 c 128,-1,52
 845 668 845 668 877.5 595.5 c 128,-1,53
 910 523 910 523 910 412 c 0,0,1
426 1194 m 1,54,55
 383 1190 383 1190 354 1176 c 128,-1,56
 325 1162 325 1162 307 1140.5 c 128,-1,57
 289 1119 289 1119 281.5 1091.5 c 128,-1,58
 274 1064 274 1064 274 1034 c 0,59,60
 274 991 274 991 285.5 963.5 c 128,-1,61
 297 936 297 936 317.5 918 c 128,-1,62
 338 900 338 900 366 887.5 c 128,-1,63
 394 875 394 875 426 862 c 1,64,-1
 426 1194 l 1,54,55
697 408 m 0,65,66
 697 457 697 457 683 487.5 c 128,-1,67
 669 518 669 518 644.5 537 c 128,-1,68
 620 556 620 556 587 568.5 c 128,-1,69
 554 581 554 581 516 594 c 1,70,-1
 516 227 l 1,71,72
 603 234 603 234 650 277 c 128,-1,73
 697 320 697 320 697 408 c 0,65,66
EndSplineSet
EndChar

StartChar: percent
Encoding: 37 37 8
Width: 1493
GlyphClass: 2
Flags: W
LayerCount: 2
Fore
SplineSet
1449 432 m 0,0,1
 1449 307 1449 307 1426 221 c 128,-1,2
 1403 135 1403 135 1363.5 82.5 c 128,-1,3
 1324 30 1324 30 1271 7 c 128,-1,4
 1218 -16 1218 -16 1158 -16 c 0,5,6
 1097 -16 1097 -16 1044 7 c 128,-1,7
 991 30 991 30 952 82.5 c 128,-1,8
 913 135 913 135 890.5 221 c 128,-1,9
 868 307 868 307 868 432 c 0,10,11
 868 564 868 564 890.5 650.5 c 128,-1,12
 913 737 913 737 952.5 788.5 c 128,-1,13
 992 840 992 840 1045.5 860.5 c 128,-1,14
 1099 881 1099 881 1162 881 c 0,15,16
 1221 881 1221 881 1273.5 860.5 c 128,-1,17
 1326 840 1326 840 1365 788.5 c 128,-1,18
 1404 737 1404 737 1426.5 650.5 c 128,-1,19
 1449 564 1449 564 1449 432 c 0,0,1
453 0 m 1,20,-1
 284 0 l 1,21,-1
 1038 1409 l 1,22,-1
 1209 1409 l 1,23,-1
 453 0 l 1,20,-1
335 1425 m 0,24,25
 394 1425 394 1425 446 1404.5 c 128,-1,26
 498 1384 498 1384 537.5 1333 c 128,-1,27
 577 1282 577 1282 600 1195.5 c 128,-1,28
 623 1109 623 1109 623 977 c 0,29,30
 623 852 623 852 600 766 c 128,-1,31
 577 680 577 680 537.5 627 c 128,-1,32
 498 574 498 574 444.5 551 c 128,-1,33
 391 528 391 528 330 528 c 0,34,35
 270 528 270 528 217.5 551 c 128,-1,36
 165 574 165 574 126 626.5 c 128,-1,37
 87 679 87 679 64.5 765 c 128,-1,38
 42 851 42 851 42 977 c 0,39,40
 42 1109 42 1109 64 1195.5 c 128,-1,41
 86 1282 86 1282 125.5 1333 c 128,-1,42
 165 1384 165 1384 219 1404.5 c 128,-1,43
 273 1425 273 1425 335 1425 c 0,24,25
1272 432 m 0,44,45
 1272 519 1272 519 1265.5 576 c 128,-1,46
 1259 633 1259 633 1245 666.5 c 128,-1,47
 1231 700 1231 700 1210.5 713.5 c 128,-1,48
 1190 727 1190 727 1162 727 c 0,49,50
 1132 727 1132 727 1110 713.5 c 128,-1,51
 1088 700 1088 700 1074 666 c 128,-1,52
 1060 632 1060 632 1053 575 c 128,-1,53
 1046 518 1046 518 1046 432 c 0,54,55
 1046 348 1046 348 1052.5 292.5 c 128,-1,56
 1059 237 1059 237 1073.5 203 c 128,-1,57
 1088 169 1088 169 1109.5 155 c 128,-1,58
 1131 141 1131 141 1160 141 c 0,59,60
 1187 141 1187 141 1208 155 c 128,-1,61
 1229 169 1229 169 1243.5 202.5 c 128,-1,62
 1258 236 1258 236 1265 292 c 128,-1,63
 1272 348 1272 348 1272 432 c 0,44,45
445 977 m 0,64,65
 445 1063 445 1063 438 1119.5 c 128,-1,66
 431 1176 431 1176 417 1209.5 c 128,-1,67
 403 1243 403 1243 382.5 1256.5 c 128,-1,68
 362 1270 362 1270 335 1270 c 0,69,70
 305 1270 305 1270 282.5 1256 c 128,-1,71
 260 1242 260 1242 246 1208.5 c 128,-1,72
 232 1175 232 1175 225 1118.5 c 128,-1,73
 218 1062 218 1062 218 977 c 0,74,75
 218 893 218 893 225 837 c 128,-1,76
 232 781 232 781 246.5 747 c 128,-1,77
 261 713 261 713 282 698.5 c 128,-1,78
 303 684 303 684 333 684 c 0,79,80
 361 684 361 684 382 698 c 128,-1,81
 403 712 403 712 417 746 c 128,-1,82
 431 780 431 780 438 836.5 c 128,-1,83
 445 893 445 893 445 977 c 0,64,65
EndSplineSet
EndChar

StartChar: ampersand
Encoding: 38 38 9
Width: 1212
GlyphClass: 2
Flags: W
LayerCount: 2
Fore
SplineSet
74 385 m 0,0,1
 74 464 74 464 95 528 c 128,-1,2
 116 592 116 592 152.5 644 c 128,-1,3
 189 696 189 696 240 737.5 c 128,-1,4
 291 779 291 779 351 813 c 1,5,6
 325 878 325 878 307.5 952 c 128,-1,7
 290 1026 290 1026 290 1092 c 256,8,9
 290 1158 290 1158 306.5 1217 c 128,-1,10
 323 1276 323 1276 360 1320.5 c 128,-1,11
 397 1365 397 1365 456 1391 c 128,-1,12
 515 1417 515 1417 599 1417 c 0,13,14
 665 1417 665 1417 719.5 1397.5 c 128,-1,15
 774 1378 774 1378 813.5 1340 c 128,-1,16
 853 1302 853 1302 874.5 1247 c 128,-1,17
 896 1192 896 1192 896 1120 c 0,18,19
 896 1047 896 1047 869 990.5 c 128,-1,20
 842 934 842 934 797.5 888.5 c 128,-1,21
 753 843 753 843 695 805.5 c 128,-1,22
 637 768 637 768 575 733 c 1,23,24
 617 643 617 643 667 559.5 c 128,-1,25
 717 476 717 476 775 397 c 1,26,27
 821 482 821 482 852 571.5 c 128,-1,28
 883 661 883 661 905 760 c 1,29,-1
 1076 690 l 1,30,31
 1048 573 1048 573 1009.5 470 c 128,-1,32
 971 367 971 367 918 270 c 1,33,34
 955 232 955 232 991.5 214.5 c 128,-1,35
 1028 197 1028 197 1064 197 c 0,36,37
 1090 197 1090 197 1114 201 c 128,-1,38
 1138 205 1138 205 1160 213 c 1,39,-1
 1160 10 l 1,40,41
 1115 -12 1115 -12 1052 -12 c 0,42,43
 1010 -12 1010 -12 971.5 -2 c 128,-1,44
 933 8 933 8 899 24.5 c 128,-1,45
 865 41 865 41 835.5 63 c 128,-1,46
 806 85 806 85 782 109 c 1,47,48
 755 84 755 84 721.5 60.5 c 128,-1,49
 688 37 688 37 649.5 19 c 128,-1,50
 611 1 611 1 566 -9.5 c 128,-1,51
 521 -20 521 -20 471 -20 c 0,52,53
 368 -20 368 -20 292.5 11 c 128,-1,54
 217 42 217 42 168.5 96 c 128,-1,55
 120 150 120 150 97 224 c 128,-1,56
 74 298 74 298 74 385 c 0,0,1
713 1118 m 0,57,58
 713 1175 713 1175 682 1211 c 128,-1,59
 651 1247 651 1247 597 1247 c 0,60,61
 534 1247 534 1247 501 1204 c 128,-1,62
 468 1161 468 1161 468 1090 c 0,63,64
 468 1042 468 1042 480.5 992 c 128,-1,65
 493 942 493 942 512 897 c 1,66,67
 554 919 554 919 591 941.5 c 128,-1,68
 628 964 628 964 655 990.5 c 128,-1,69
 682 1017 682 1017 697.5 1048 c 128,-1,70
 713 1079 713 1079 713 1118 c 0,57,58
646 246 m 1,71,72
 583 332 583 332 526.5 426 c 128,-1,73
 470 520 470 520 423 623 c 1,74,75
 355 584 355 584 318.5 527 c 128,-1,76
 282 470 282 470 282 389 c 0,77,78
 282 343 282 343 294.5 303 c 128,-1,79
 307 263 307 263 331.5 233.5 c 128,-1,80
 356 204 356 204 393.5 187 c 128,-1,81
 431 170 431 170 480 170 c 0,82,83
 533 170 533 170 576.5 194 c 128,-1,84
 620 218 620 218 646 246 c 1,71,72
EndSplineSet
EndChar

StartChar: quotesingle
Encoding: 39 39 10
Width: 399
GlyphClass: 2
Flags: W
LayerCount: 2
Fore
SplineSet
290 898 m 1,0,-1
 111 898 l 1,1,-1
 89 1409 l 1,2,-1
 312 1409 l 1,3,-1
 290 898 l 1,0,-1
EndSplineSet
EndChar

StartChar: parenleft
Encoding: 40 40 11
Width: 559
GlyphClass: 2
Flags: W
LayerCount: 2
Fore
SplineSet
327 -425 m 1,0,1
 264 -314 264 -314 218 -204 c 128,-1,2
 172 -94 172 -94 142 22 c 128,-1,3
 112 138 112 138 98 263.5 c 128,-1,4
 84 389 84 389 84 531 c 0,5,6
 84 674 84 674 98 798.5 c 128,-1,7
 112 923 112 923 142 1038.5 c 128,-1,8
 172 1154 172 1154 218 1263.5 c 128,-1,9
 264 1373 264 1373 327 1484 c 1,10,-1
 557 1484 l 1,11,12
 491 1368 491 1368 444.5 1255 c 128,-1,13
 398 1142 398 1142 368.5 1026 c 128,-1,14
 339 910 339 910 325 787.5 c 128,-1,15
 311 665 311 665 311 530 c 0,16,17
 311 394 311 394 325 271.5 c 128,-1,18
 339 149 339 149 368.5 33 c 128,-1,19
 398 -83 398 -83 445 -195.5 c 128,-1,20
 492 -308 492 -308 557 -425 c 1,21,-1
 327 -425 l 1,0,1
EndSplineSet
EndChar

StartChar: parenright
Encoding: 41 41 12
Width: 559
GlyphClass: 2
Flags: W
LayerCount: 2
Fore
SplineSet
2 -425 m 1,0,1
 68 -308 68 -308 114.5 -195.5 c 128,-1,2
 161 -83 161 -83 190.5 33 c 128,-1,3
 220 149 220 149 234 271.5 c 128,-1,4
 248 394 248 394 248 530 c 0,5,6
 248 665 248 665 234 787.5 c 128,-1,7
 220 910 220 910 190.5 1026 c 128,-1,8
 161 1142 161 1142 114 1255 c 128,-1,9
 67 1368 67 1368 2 1484 c 1,10,-1
 232 1484 l 1,11,12
 295 1373 295 1373 341 1263.5 c 128,-1,13
 387 1154 387 1154 417 1038.5 c 128,-1,14
 447 923 447 923 461 798.5 c 128,-1,15
 475 674 475 674 475 531 c 0,16,17
 475 389 475 389 461 263.5 c 128,-1,18
 447 138 447 138 417 22 c 128,-1,19
 387 -94 387 -94 341 -204 c 128,-1,20
 295 -314 295 -314 232 -425 c 1,21,-1
 2 -425 l 1,0,1
EndSplineSet
EndChar

StartChar: asterisk
Encoding: 42 42 13
Width: 653
GlyphClass: 2
Flags: W
LayerCount: 2
Fore
SplineSet
403 1135 m 1,0,-1
 596 1239 l 1,1,-1
 651 1042 l 1,2,-1
 447 981 l 1,3,-1
 599 768 l 1,4,-1
 448 647 l 1,5,-1
 329 899 l 1,6,-1
 206 647 l 1,7,-1
 54 770 l 1,8,-1
 210 981 l 1,9,-1
 5 1042 l 1,10,-1
 61 1239 l 1,11,-1
 256 1135 l 1,12,-1
 242 1409 l 1,13,-1
 418 1409 l 1,14,-1
 403 1135 l 1,0,-1
EndSplineSet
EndChar

StartChar: plus
Encoding: 43 43 14
Width: 981
GlyphClass: 2
Flags: W
LayerCount: 2
Fore
SplineSet
583 569 m 1,0,-1
 583 161 l 1,1,-1
 398 161 l 1,2,-1
 398 569 l 1,3,-1
 71 569 l 1,4,-1
 71 793 l 1,5,-1
 398 793 l 1,6,-1
 398 1201 l 1,7,-1
 583 1201 l 1,8,-1
 583 793 l 1,9,-1
 913 793 l 1,10,-1
 913 569 l 1,11,-1
 583 569 l 1,0,-1
EndSplineSet
EndChar

StartChar: comma
Encoding: 44 44 15
Width: 467
GlyphClass: 2
Flags: W
LayerCount: 2
Fore
SplineSet
355 66 m 2,0,1
 355 -1 355 -1 348.5 -56 c 128,-1,2
 342 -111 342 -111 330.5 -157.5 c 128,-1,3
 319 -204 319 -204 302.5 -243 c 128,-1,4
 286 -282 286 -282 266 -317 c 1,5,-1
 114 -317 l 1,6,7
 138 -282 138 -282 157.5 -243 c 128,-1,8
 177 -204 177 -204 192 -163 c 128,-1,9
 207 -122 207 -122 215 -81 c 128,-1,10
 223 -40 223 -40 223 0 c 1,11,-1
 117 0 l 1,12,-1
 117 305 l 1,13,-1
 355 305 l 1,14,-1
 355 66 l 2,0,1
EndSplineSet
EndChar

StartChar: hyphen
Encoding: 45 45 16
AltUni2: 0000ad.ffffffff.0 0000ad.ffffffff.0 0000ad.ffffffff.0 0000ad.ffffffff.0
Width: 559
GlyphClass: 2
Flags: W
LayerCount: 2
Fore
SplineSet
66 409 m 1,0,-1
 66 653 l 1,1,-1
 492 653 l 1,2,-1
 492 409 l 1,3,-1
 66 409 l 1,0,-1
EndSplineSet
EndChar

StartChar: period
Encoding: 46 46 17
Width: 467
GlyphClass: 2
Flags: W
LayerCount: 2
Fore
SplineSet
114 0 m 1,0,-1
 114 305 l 1,1,-1
 351 305 l 1,2,-1
 351 0 l 1,3,-1
 114 0 l 1,0,-1
EndSplineSet
EndChar

StartChar: slash
Encoding: 47 47 18
Width: 467
GlyphClass: 2
Flags: W
LayerCount: 2
Fore
SplineSet
16 -41 m 1,0,-1
 255 1484 l 1,1,-1
 451 1484 l 1,2,-1
 216 -41 l 1,3,-1
 16 -41 l 1,0,-1
EndSplineSet
EndChar

StartChar: zero
Encoding: 48 48 19
Width: 934
GlyphClass: 2
Flags: W
LayerCount: 2
Fore
SplineSet
865 705 m 0,0,1
 865 503 865 503 834.5 364.5 c 128,-1,2
 804 226 804 226 750.5 140.5 c 128,-1,3
 697 55 697 55 623.5 17.5 c 128,-1,4
 550 -20 550 -20 463 -20 c 256,5,6
 376 -20 376 -20 303 17 c 128,-1,7
 230 54 230 54 177.5 139.5 c 128,-1,8
 125 225 125 225 95.5 363.5 c 128,-1,9
 66 502 66 502 66 705 c 0,10,11
 66 918 66 918 95.5 1057.5 c 128,-1,12
 125 1197 125 1197 178 1280 c 128,-1,13
 231 1363 231 1363 305.5 1396.5 c 128,-1,14
 380 1430 380 1430 470 1430 c 0,15,16
 554 1430 554 1430 626.5 1396.5 c 128,-1,17
 699 1363 699 1363 752 1280 c 128,-1,18
 805 1197 805 1197 835 1057.5 c 128,-1,19
 865 918 865 918 865 705 c 0,0,1
634 705 m 0,20,21
 634 854 634 854 625 951.5 c 128,-1,22
 616 1049 616 1049 596 1106.5 c 128,-1,23
 576 1164 576 1164 544.5 1187 c 128,-1,24
 513 1210 513 1210 468 1210 c 0,25,26
 420 1210 420 1210 387 1186.5 c 128,-1,27
 354 1163 354 1163 334 1105 c 128,-1,28
 314 1047 314 1047 305.5 949.5 c 128,-1,29
 297 852 297 852 297 705 c 0,30,31
 297 560 297 560 306 463 c 128,-1,32
 315 366 315 366 334.5 307.5 c 128,-1,33
 354 249 354 249 386 225 c 128,-1,34
 418 201 418 201 465 201 c 0,35,36
 510 201 510 201 542 225 c 128,-1,37
 574 249 574 249 594.5 307.5 c 128,-1,38
 615 366 615 366 624.5 463 c 128,-1,39
 634 560 634 560 634 705 c 0,20,21
EndSplineSet
EndChar

StartChar: one
Encoding: 49 49 20
Width: 934
GlyphClass: 2
Flags: W
LayerCount: 2
Fore
SplineSet
106 0 m 1,0,-1
 106 209 l 1,1,-1
 392 209 l 1,2,-1
 392 1170 l 1,3,-1
 115 959 l 1,4,-1
 115 1180 l 1,5,-1
 404 1409 l 1,6,-1
 622 1409 l 1,7,-1
 622 209 l 1,8,-1
 887 209 l 1,9,-1
 887 0 l 1,10,-1
 106 0 l 1,0,-1
EndSplineSet
EndChar

StartChar: two
Encoding: 50 50 21
Width: 934
GlyphClass: 2
Flags: W
LayerCount: 2
Fore
SplineSet
58 0 m 1,0,-1
 58 195 l 1,1,2
 97 300 97 300 154 384.5 c 128,-1,3
 211 469 211 469 273 539.5 c 128,-1,4
 335 610 335 610 396 670.5 c 128,-1,5
 457 731 457 731 505.5 787.5 c 128,-1,6
 554 844 554 844 584.5 901 c 128,-1,7
 615 958 615 958 615 1022 c 0,8,9
 615 1116 615 1116 576.5 1161 c 128,-1,10
 538 1206 538 1206 463 1206 c 0,11,12
 389 1206 389 1206 350.5 1157.5 c 128,-1,13
 312 1109 312 1109 300 1012 c 1,14,-1
 68 1028 l 1,15,16
 76 1111 76 1111 101.5 1184 c 128,-1,17
 127 1257 127 1257 174 1312 c 128,-1,18
 221 1367 221 1367 292 1398.5 c 128,-1,19
 363 1430 363 1430 462 1430 c 0,20,21
 555 1430 555 1430 627 1403.5 c 128,-1,22
 699 1377 699 1377 748.5 1326 c 128,-1,23
 798 1275 798 1275 823.5 1201.5 c 128,-1,24
 849 1128 849 1128 849 1034 c 0,25,26
 849 935 849 935 817 855 c 128,-1,27
 785 775 785 775 735 707.5 c 128,-1,28
 685 640 685 640 624 581 c 2,29,-1
 506 466 l 2,30,31
 448 410 448 410 400.5 353 c 128,-1,32
 353 296 353 296 330 231 c 1,33,-1
 867 231 l 1,34,-1
 867 0 l 1,35,-1
 58 0 l 1,0,-1
EndSplineSet
EndChar

StartChar: three
Encoding: 51 51 22
Width: 934
GlyphClass: 2
Flags: W
LayerCount: 2
Fore
SplineSet
873 391 m 0,0,1
 873 295 873 295 847.5 218.5 c 128,-1,2
 822 142 822 142 770 88 c 128,-1,3
 718 34 718 34 641.5 5.5 c 128,-1,4
 565 -23 565 -23 463 -23 c 0,5,6
 350 -23 350 -23 272.5 12 c 128,-1,7
 195 47 195 47 145.5 104.5 c 128,-1,8
 96 162 96 162 71 235 c 128,-1,9
 46 308 46 308 39 383 c 1,10,-1
 273 408 l 1,11,12
 278 363 278 363 291.5 325.5 c 128,-1,13
 305 288 305 288 328 261 c 128,-1,14
 351 234 351 234 384 219.5 c 128,-1,15
 417 205 417 205 462 205 c 0,16,17
 545 205 545 205 591 255 c 128,-1,18
 637 305 637 305 637 408 c 0,19,20
 637 471 637 471 615.5 509 c 128,-1,21
 594 547 594 547 560.5 567.5 c 128,-1,22
 527 588 527 588 488.5 595 c 128,-1,23
 450 602 450 602 416 602 c 2,24,-1
 335 602 l 1,25,-1
 335 829 l 1,26,-1
 411 829 l 2,27,28
 445 829 445 829 481 837 c 128,-1,29
 517 845 517 845 545.5 866 c 128,-1,30
 574 887 574 887 592 924.5 c 128,-1,31
 610 962 610 962 610 1020 c 0,32,33
 610 1107 610 1107 570.5 1156.5 c 128,-1,34
 531 1206 531 1206 454 1206 c 0,35,36
 383 1206 383 1206 339 1158 c 128,-1,37
 295 1110 295 1110 289 1022 c 1,38,-1
 58 1042 l 1,39,40
 68 1141 68 1141 103 1214 c 128,-1,41
 138 1287 138 1287 191 1335 c 128,-1,42
 244 1383 244 1383 312.5 1406.5 c 128,-1,43
 381 1430 381 1430 458 1430 c 0,44,45
 560 1430 560 1430 633 1400 c 128,-1,46
 706 1370 706 1370 753 1319 c 128,-1,47
 800 1268 800 1268 822 1200 c 128,-1,48
 844 1132 844 1132 844 1055 c 0,49,50
 844 993 844 993 829 939.5 c 128,-1,51
 814 886 814 886 784 843.5 c 128,-1,52
 754 801 754 801 707.5 770.5 c 128,-1,53
 661 740 661 740 597 725 c 1,54,-1
 597 721 l 1,55,56
 668 711 668 711 720.5 681.5 c 128,-1,57
 773 652 773 652 807 608 c 128,-1,58
 841 564 841 564 857 508.5 c 128,-1,59
 873 453 873 453 873 391 c 0,0,1
EndSplineSet
EndChar

StartChar: four
Encoding: 52 52 23
Width: 934
GlyphClass: 2
Flags: W
LayerCount: 2
Fore
SplineSet
771 287 m 1,0,-1
 771 0 l 1,1,-1
 551 0 l 1,2,-1
 551 287 l 1,3,-1
 25 287 l 1,4,-1
 25 498 l 1,5,-1
 513 1409 l 1,6,-1
 771 1409 l 1,7,-1
 771 496 l 1,8,-1
 925 496 l 1,9,-1
 925 287 l 1,10,-1
 771 287 l 1,0,-1
551 957 m 2,11,12
 551 974 551 974 551.5 1001.5 c 128,-1,13
 552 1029 552 1029 553 1058 c 128,-1,14
 554 1087 554 1087 555.5 1113.5 c 128,-1,15
 557 1140 557 1140 558 1155 c 1,16,17
 554 1144 554 1144 545 1124 c 2,18,-1
 525 1080 l 2,19,20
 514 1056 514 1056 502 1033 c 2,21,-1
 481 993 l 1,22,-1
 213 496 l 1,23,-1
 551 496 l 1,24,-1
 551 957 l 2,11,12
EndSplineSet
EndChar

StartChar: five
Encoding: 53 53 24
Width: 934
GlyphClass: 2
Flags: W
LayerCount: 2
Fore
SplineSet
887 469 m 0,0,1
 887 363 887 363 859.5 273.5 c 128,-1,2
 832 184 832 184 778 118.5 c 128,-1,3
 724 53 724 53 644 16.5 c 128,-1,4
 564 -20 564 -20 459 -20 c 0,5,6
 362 -20 362 -20 290 8.5 c 128,-1,7
 218 37 218 37 168.5 87.5 c 128,-1,8
 119 138 119 138 90.5 206 c 128,-1,9
 62 274 62 274 52 352 c 1,10,-1
 282 375 l 1,11,12
 289 342 289 342 300.5 311 c 128,-1,13
 312 280 312 280 333.5 256 c 128,-1,14
 355 232 355 232 386 217.5 c 128,-1,15
 417 203 417 203 462 203 c 0,16,17
 548 203 548 203 599 270 c 128,-1,18
 650 337 650 337 650 463 c 0,19,20
 650 519 650 519 637.5 564 c 128,-1,21
 625 609 625 609 601.5 641 c 128,-1,22
 578 673 578 673 544 690 c 128,-1,23
 510 707 510 707 467 707 c 0,24,25
 410 707 410 707 372.5 680.5 c 128,-1,26
 335 654 335 654 310 616 c 1,27,-1
 85 616 l 1,28,-1
 125 1409 l 1,29,-1
 820 1409 l 1,30,-1
 820 1200 l 1,31,-1
 335 1200 l 1,32,-1
 316 844 l 1,33,34
 350 881 350 881 402.5 907.5 c 128,-1,35
 455 934 455 934 525 934 c 0,36,37
 610 934 610 934 677.5 900 c 128,-1,38
 745 866 745 866 791.5 805 c 128,-1,39
 838 744 838 744 862.5 658.5 c 128,-1,40
 887 573 887 573 887 469 c 0,0,1
EndSplineSet
EndChar

StartChar: six
Encoding: 54 54 25
Width: 934
GlyphClass: 2
Flags: W
LayerCount: 2
Fore
SplineSet
873 461 m 0,0,1
 873 355 873 355 848.5 266.5 c 128,-1,2
 824 178 824 178 775.5 114.5 c 128,-1,3
 727 51 727 51 654 15.5 c 128,-1,4
 581 -20 581 -20 485 -20 c 0,5,6
 281 -20 281 -20 171.5 154.5 c 128,-1,7
 62 329 62 329 62 672 c 0,8,9
 62 1049 62 1049 173 1239.5 c 128,-1,10
 284 1430 284 1430 490 1430 c 0,11,12
 559 1430 559 1430 615.5 1412.5 c 128,-1,13
 672 1395 672 1395 716.5 1356 c 128,-1,14
 761 1317 761 1317 792 1255.5 c 128,-1,15
 823 1194 823 1194 842 1106 c 1,16,-1
 625 1069 l 1,17,18
 609 1143 609 1143 572 1175.5 c 128,-1,19
 535 1208 535 1208 485 1208 c 0,20,21
 392 1208 392 1208 339.5 1095 c 128,-1,22
 287 982 287 982 287 752 c 1,23,24
 324 827 324 827 389.5 867 c 128,-1,25
 455 907 455 907 538 907 c 0,26,27
 614 907 614 907 676 876.5 c 128,-1,28
 738 846 738 846 782 788.5 c 128,-1,29
 826 731 826 731 849.5 648 c 128,-1,30
 873 565 873 565 873 461 c 0,0,1
642 453 m 0,31,32
 642 510 642 510 631.5 555.5 c 128,-1,33
 621 601 621 601 599 633 c 128,-1,34
 577 665 577 665 545 682.5 c 128,-1,35
 513 700 513 700 472 700 c 0,36,37
 442 700 442 700 411 688 c 128,-1,38
 380 676 380 676 356.5 649.5 c 128,-1,39
 333 623 333 623 318 582 c 128,-1,40
 303 541 303 541 303 483 c 0,41,42
 303 423 303 423 315.5 371 c 128,-1,43
 328 319 328 319 350.5 280.5 c 128,-1,44
 373 242 373 242 405 220.5 c 128,-1,45
 437 199 437 199 477 199 c 0,46,47
 555 199 555 199 598.5 266.5 c 128,-1,48
 642 334 642 334 642 453 c 0,31,32
EndSplineSet
EndChar

StartChar: seven
Encoding: 55 55 26
Width: 934
GlyphClass: 2
Flags: W
LayerCount: 2
Fore
SplineSet
860 1186 m 1,0,1
 860 1186 860 1186 713 895 c 1,2,3
 644 754 644 754 592 611.5 c 128,-1,4
 540 469 540 469 510.5 318.5 c 128,-1,5
 481 168 481 168 481 0 c 1,6,-1
 240 0 l 1,7,8
 240 167 240 167 272.5 317.5 c 128,-1,9
 305 468 305 468 361 611 c 128,-1,10
 417 754 417 754 490 894 c 1,11,-1
 646 1178 l 1,12,-1
 72 1178 l 1,13,-1
 72 1409 l 1,14,-1
 860 1409 l 1,15,-1
 860 1186 l 1,0,1
EndSplineSet
EndChar

StartChar: eight
Encoding: 56 56 27
Width: 934
GlyphClass: 2
Flags: W
LayerCount: 2
Fore
SplineSet
882 397 m 0,0,1
 882 306 882 306 857.5 229.5 c 128,-1,2
 833 153 833 153 782 97.5 c 128,-1,3
 731 42 731 42 653.5 11 c 128,-1,4
 576 -20 576 -20 468 -20 c 0,5,6
 361 -20 361 -20 283 11 c 128,-1,7
 205 42 205 42 153.5 97.5 c 128,-1,8
 102 153 102 153 77.5 229 c 128,-1,9
 53 305 53 305 53 395 c 0,10,11
 53 472 53 472 73 531.5 c 128,-1,12
 93 591 93 591 125.5 634 c 128,-1,13
 158 677 158 677 201 702.5 c 128,-1,14
 244 728 244 728 289 737 c 1,15,-1
 289 741 l 1,16,17
 241 754 241 754 202 784 c 128,-1,18
 163 814 163 814 136 856 c 128,-1,19
 109 898 109 898 94.5 949.5 c 128,-1,20
 80 1001 80 1001 80 1057 c 0,21,22
 80 1141 80 1141 105 1210 c 128,-1,23
 130 1279 130 1279 178.5 1328 c 128,-1,24
 227 1377 227 1377 299 1403.5 c 128,-1,25
 371 1430 371 1430 465 1430 c 0,26,27
 566 1430 566 1430 639.5 1402.5 c 128,-1,28
 713 1375 713 1375 760.5 1325.5 c 128,-1,29
 808 1276 808 1276 831 1207 c 128,-1,30
 854 1138 854 1138 854 1055 c 0,31,32
 854 1000 854 1000 839.5 948.5 c 128,-1,33
 825 897 825 897 798 855 c 128,-1,34
 771 813 771 813 732 784 c 128,-1,35
 693 755 693 755 644 743 c 1,36,-1
 644 739 l 1,37,38
 695 729 695 729 738.5 702.5 c 128,-1,39
 782 676 782 676 814 633.5 c 128,-1,40
 846 591 846 591 864 531.5 c 128,-1,41
 882 472 882 472 882 397 c 0,0,1
617 1040 m 0,42,43
 617 1082 617 1082 609.5 1117.5 c 128,-1,44
 602 1153 602 1153 584.5 1178.5 c 128,-1,45
 567 1204 567 1204 538 1218.5 c 128,-1,46
 509 1233 509 1233 465 1233 c 0,47,48
 422 1233 422 1233 393.5 1218.5 c 128,-1,49
 365 1204 365 1204 347.5 1178.5 c 128,-1,50
 330 1153 330 1153 323 1117.5 c 128,-1,51
 316 1082 316 1082 316 1040 c 0,52,53
 316 1003 316 1003 322 967 c 128,-1,54
 328 931 328 931 344.5 902.5 c 128,-1,55
 361 874 361 874 390.5 856 c 128,-1,56
 420 838 420 838 467 838 c 0,57,58
 516 838 516 838 546 856 c 128,-1,59
 576 874 576 874 591.5 903 c 128,-1,60
 607 932 607 932 612 968 c 128,-1,61
 617 1004 617 1004 617 1040 c 0,42,43
644 420 m 0,62,63
 644 463 644 463 636 503 c 128,-1,64
 628 543 628 543 608 573.5 c 128,-1,65
 588 604 588 604 552.5 622.5 c 128,-1,66
 517 641 517 641 463 641 c 0,67,68
 414 641 414 641 381 622.5 c 128,-1,69
 348 604 348 604 328 573 c 128,-1,70
 308 542 308 542 299 501.5 c 128,-1,71
 290 461 290 461 290 416 c 0,72,73
 290 363 290 363 299 319 c 128,-1,74
 308 275 308 275 328.5 243.5 c 128,-1,75
 349 212 349 212 383.5 195 c 128,-1,76
 418 178 418 178 470 178 c 256,77,78
 522 178 522 178 555.5 195.5 c 128,-1,79
 589 213 589 213 608.5 245 c 128,-1,80
 628 277 628 277 636 321.5 c 128,-1,81
 644 366 644 366 644 420 c 0,62,63
EndSplineSet
EndChar

StartChar: nine
Encoding: 57 57 28
Width: 934
GlyphClass: 2
Flags: W
LayerCount: 2
Fore
SplineSet
872 727 m 0,0,1
 872 352 872 352 759.5 166 c 128,-1,2
 647 -20 647 -20 440 -20 c 0,3,4
 365 -20 365 -20 306 -1 c 128,-1,5
 247 18 247 18 202.5 58 c 128,-1,6
 158 98 158 98 127.5 161 c 128,-1,7
 97 224 97 224 79 311 c 1,8,-1
 295 348 l 1,9,10
 311 273 311 273 348.5 237 c 128,-1,11
 386 201 386 201 443 201 c 0,12,13
 490 201 490 201 526.5 228 c 128,-1,14
 563 255 563 255 589.5 310 c 128,-1,15
 616 365 616 365 630.5 449.5 c 128,-1,16
 645 534 645 534 645 649 c 1,17,18
 629 610 629 610 602 580 c 128,-1,19
 575 550 575 550 541 530 c 128,-1,20
 507 510 507 510 468.5 499.5 c 128,-1,21
 430 489 430 489 390 489 c 0,22,23
 315 489 315 489 253.5 521.5 c 128,-1,24
 192 554 192 554 148.5 615 c 128,-1,25
 105 676 105 676 81.5 762.5 c 128,-1,26
 58 849 58 849 58 958 c 0,27,28
 58 1070 58 1070 85.5 1158 c 128,-1,29
 113 1246 113 1246 164.5 1306.5 c 128,-1,30
 216 1367 216 1367 291.5 1398.5 c 128,-1,31
 367 1430 367 1430 462 1430 c 0,32,33
 562 1430 562 1430 638.5 1388.5 c 128,-1,34
 715 1347 715 1347 766.5 1260.5 c 128,-1,35
 818 1174 818 1174 845 1041.5 c 128,-1,36
 872 909 872 909 872 727 c 0,0,1
628 924 m 0,37,38
 628 984 628 984 617 1036.5 c 128,-1,39
 606 1089 606 1089 584 1127.5 c 128,-1,40
 562 1166 562 1166 530 1188 c 128,-1,41
 498 1210 498 1210 456 1210 c 0,42,43
 417 1210 417 1210 387 1192.5 c 128,-1,44
 357 1175 357 1175 335.5 1142 c 128,-1,45
 314 1109 314 1109 303 1062 c 128,-1,46
 292 1015 292 1015 292 956 c 0,47,48
 292 901 292 901 302.5 853.5 c 128,-1,49
 313 806 313 806 333.5 771.5 c 128,-1,50
 354 737 354 737 385.5 717.5 c 128,-1,51
 417 698 417 698 457 698 c 0,52,53
 489 698 489 698 519.5 712 c 128,-1,54
 550 726 550 726 574.5 754 c 128,-1,55
 599 782 599 782 613.5 824.5 c 128,-1,56
 628 867 628 867 628 924 c 0,37,38
EndSplineSet
EndChar

StartChar: colon
Encoding: 58 58 29
Width: 559
GlyphClass: 2
Flags: W
LayerCount: 2
Fore
SplineSet
161 752 m 1,0,-1
 161 1034 l 1,1,-1
 398 1034 l 1,2,-1
 398 752 l 1,3,-1
 161 752 l 1,0,-1
161 0 m 1,4,-1
 161 281 l 1,5,-1
 398 281 l 1,6,-1
 398 0 l 1,7,-1
 161 0 l 1,4,-1
EndSplineSet
EndChar

StartChar: semicolon
Encoding: 59 59 30
AltUni2: 00037e.ffffffff.0 00037e.ffffffff.0 00037e.ffffffff.0 00037e.ffffffff.0
Width: 559
GlyphClass: 2
Flags: W
LayerCount: 2
Fore
SplineSet
163 752 m 1,0,-1
 163 1034 l 1,1,-1
 399 1034 l 1,2,-1
 399 752 l 1,3,-1
 163 752 l 1,0,-1
399 66 m 2,4,5
 399 -1 399 -1 393 -56 c 128,-1,6
 387 -111 387 -111 375.5 -157.5 c 128,-1,7
 364 -204 364 -204 347.5 -243 c 128,-1,8
 331 -282 331 -282 311 -317 c 1,9,-1
 160 -317 l 1,10,11
 183 -282 183 -282 203 -243 c 128,-1,12
 223 -204 223 -204 237.5 -163 c 128,-1,13
 252 -122 252 -122 260.5 -81 c 128,-1,14
 269 -40 269 -40 269 0 c 1,15,-1
 163 0 l 1,16,-1
 163 281 l 1,17,-1
 399 281 l 1,18,-1
 399 66 l 2,4,5
EndSplineSet
EndChar

StartChar: less
Encoding: 60 60 31
Width: 981
GlyphClass: 2
Flags: W
LayerCount: 2
Fore
SplineSet
71 516 m 1,0,-1
 71 838 l 1,1,-1
 913 1229 l 1,2,-1
 913 1001 l 1,3,-1
 230 676 l 1,4,-1
 913 352 l 1,5,-1
 913 125 l 1,6,-1
 71 516 l 1,0,-1
EndSplineSet
EndChar

StartChar: equal
Encoding: 61 61 32
Width: 981
GlyphClass: 2
Flags: W
LayerCount: 2
Fore
SplineSet
70 842 m 1,0,-1
 70 1065 l 1,1,-1
 912 1065 l 1,2,-1
 912 842 l 1,3,-1
 70 842 l 1,0,-1
70 291 m 1,4,-1
 70 512 l 1,5,-1
 912 512 l 1,6,-1
 912 291 l 1,7,-1
 70 291 l 1,4,-1
EndSplineSet
EndChar

StartChar: greater
Encoding: 62 62 33
Width: 981
GlyphClass: 2
Flags: W
LayerCount: 2
Fore
SplineSet
71 125 m 1,0,-1
 71 352 l 1,1,-1
 753 676 l 1,2,-1
 71 1001 l 1,3,-1
 71 1229 l 1,4,-1
 913 838 l 1,5,-1
 913 516 l 1,6,-1
 71 125 l 1,0,-1
EndSplineSet
EndChar

StartChar: question
Encoding: 63 63 34
Width: 1026
GlyphClass: 2
Flags: W
LayerCount: 2
Fore
SplineSet
929 1026 m 0,0,1
 929 960 929 960 915 910 c 128,-1,2
 901 860 901 860 877 820.5 c 128,-1,3
 853 781 853 781 822.5 749.5 c 128,-1,4
 792 718 792 718 760 690 c 2,5,-1
 698 635 l 2,6,7
 667 608 667 608 642.5 577.5 c 128,-1,8
 618 547 618 547 602 510.5 c 128,-1,9
 586 474 586 474 585 426 c 1,10,-1
 366 426 l 1,11,12
 370 511 370 511 396 571.5 c 128,-1,13
 422 632 422 632 458.5 677 c 128,-1,14
 495 722 495 722 537 757.5 c 128,-1,15
 579 793 579 793 614.5 830 c 128,-1,16
 650 867 650 867 673.5 910.5 c 128,-1,17
 697 954 697 954 697 1014 c 0,18,19
 697 1102 697 1102 650 1153 c 128,-1,20
 603 1204 603 1204 516 1204 c 0,21,22
 474 1204 474 1204 439 1188.5 c 128,-1,23
 404 1173 404 1173 377 1145 c 128,-1,24
 350 1117 350 1117 333 1077 c 128,-1,25
 316 1037 316 1037 311 989 c 1,26,-1
 77 1001 l 1,27,28
 87 1090 87 1090 117.5 1168 c 128,-1,29
 148 1246 148 1246 201.5 1304 c 128,-1,30
 255 1362 255 1362 332.5 1396 c 128,-1,31
 410 1430 410 1430 513 1430 c 0,32,33
 611 1430 611 1430 688 1402 c 128,-1,34
 765 1374 765 1374 819 1321.5 c 128,-1,35
 873 1269 873 1269 901 1194 c 128,-1,36
 929 1119 929 1119 929 1026 c 0,0,1
359 0 m 1,37,-1
 359 270 l 1,38,-1
 596 270 l 1,39,-1
 596 0 l 1,40,-1
 359 0 l 1,37,-1
EndSplineSet
EndChar

StartChar: at
Encoding: 64 64 35
Width: 1638
GlyphClass: 2
Flags: W
LayerCount: 2
Fore
SplineSet
1540 725 m 0,0,1
 1540 581 1540 581 1509 461.5 c 128,-1,2
 1478 342 1478 342 1424.5 256 c 128,-1,3
 1371 170 1371 170 1299 122 c 128,-1,4
 1227 74 1227 74 1146 74 c 0,5,6
 1112 74 1112 74 1082.5 84.5 c 128,-1,7
 1053 95 1053 95 1032.5 116.5 c 128,-1,8
 1012 138 1012 138 1000.5 170.5 c 128,-1,9
 989 203 989 203 989 246 c 0,10,11
 989 260 989 260 990.5 279 c 128,-1,12
 992 298 992 298 994 313 c 1,13,-1
 989 313 l 1,14,15
 972 269 972 269 943.5 226 c 128,-1,16
 915 183 915 183 877.5 149.5 c 128,-1,17
 840 116 840 116 795.5 95 c 128,-1,18
 751 74 751 74 702 74 c 0,19,20
 624 74 624 74 572 108 c 128,-1,21
 520 142 520 142 489 197 c 128,-1,22
 458 252 458 252 444.5 321 c 128,-1,23
 431 390 431 390 431 459 c 0,24,25
 431 574 431 574 459 684 c 128,-1,26
 487 794 487 794 539.5 880 c 128,-1,27
 592 966 592 966 668.5 1018.5 c 128,-1,28
 745 1071 745 1071 842 1071 c 0,29,30
 926 1071 926 1071 979 1024.5 c 128,-1,31
 1032 978 1032 978 1058 897 c 1,32,-1
 1063 897 l 1,33,-1
 1095 1049 l 1,34,-1
 1223 1049 l 1,35,-1
 1127 543 l 2,36,37
 1113 464 1113 464 1105 402 c 128,-1,38
 1097 340 1097 340 1097 303 c 0,39,40
 1097 253 1097 253 1116 232 c 128,-1,41
 1135 211 1135 211 1161 211 c 0,42,43
 1209 211 1209 211 1254.5 249 c 128,-1,44
 1300 287 1300 287 1336 355 c 128,-1,45
 1372 423 1372 423 1394 517 c 128,-1,46
 1416 611 1416 611 1416 723 c 0,47,48
 1416 849 1416 849 1382 957 c 128,-1,49
 1348 1065 1348 1065 1282.5 1144 c 128,-1,50
 1217 1223 1217 1223 1120.5 1268 c 128,-1,51
 1024 1313 1024 1313 897 1313 c 0,52,53
 788 1313 788 1313 696.5 1281.5 c 128,-1,54
 605 1250 605 1250 530.5 1193 c 128,-1,55
 456 1136 456 1136 400 1057 c 128,-1,56
 344 978 344 978 305.5 883.5 c 128,-1,57
 267 789 267 789 248 682 c 128,-1,58
 229 575 229 575 229 461 c 0,59,60
 229 374 229 374 243 292.5 c 128,-1,61
 257 211 257 211 285 140 c 128,-1,62
 313 69 313 69 356 10 c 128,-1,63
 399 -49 399 -49 457.5 -91 c 128,-1,64
 516 -133 516 -133 590 -156.5 c 128,-1,65
 664 -180 664 -180 755 -180 c 0,66,67
 826 -180 826 -180 891 -168 c 128,-1,68
 956 -156 956 -156 1016.5 -135 c 128,-1,69
 1077 -114 1077 -114 1132.5 -85.5 c 128,-1,70
 1188 -57 1188 -57 1238 -25 c 1,71,-1
 1289 -147 l 1,72,73
 1240 -181 1240 -181 1183 -213 c 128,-1,74
 1126 -245 1126 -245 1059.5 -269.5 c 128,-1,75
 993 -294 993 -294 916 -309 c 128,-1,76
 839 -324 839 -324 749 -324 c 0,77,78
 642 -324 642 -324 552 -295.5 c 128,-1,79
 462 -267 462 -267 389.5 -215.5 c 128,-1,80
 317 -164 317 -164 262 -92 c 128,-1,81
 207 -20 207 -20 170 67 c 128,-1,82
 133 154 133 154 114.5 254 c 128,-1,83
 96 354 96 354 96 461 c 0,84,85
 96 600 96 600 122 728 c 128,-1,86
 148 856 148 856 196.5 966 c 128,-1,87
 245 1076 245 1076 315.5 1166 c 128,-1,88
 386 1256 386 1256 475 1320 c 128,-1,89
 564 1384 564 1384 670 1419 c 128,-1,90
 776 1454 776 1454 896 1454 c 0,91,92
 1063 1454 1063 1454 1184.5 1395 c 128,-1,93
 1306 1336 1306 1336 1385 1236 c 128,-1,94
 1464 1136 1464 1136 1502 1004 c 128,-1,95
 1540 872 1540 872 1540 725 c 0,0,1
1010 721 m 0,96,97
 1010 768 1010 768 997 807.5 c 128,-1,98
 984 847 984 847 961 875.5 c 128,-1,99
 938 904 938 904 906 920 c 128,-1,100
 874 936 874 936 835 936 c 0,101,102
 790 936 790 936 752 915.5 c 128,-1,103
 714 895 714 895 684.5 860 c 128,-1,104
 655 825 655 825 633 778.5 c 128,-1,105
 611 732 611 732 596.5 679 c 128,-1,106
 582 626 582 626 575 570 c 128,-1,107
 568 514 568 514 568 461 c 0,108,109
 568 347 568 347 607.5 281 c 128,-1,110
 647 215 647 215 729 215 c 0,111,112
 768 215 768 215 807 238 c 128,-1,113
 846 261 846 261 880.5 305.5 c 128,-1,114
 915 350 915 350 943.5 415.5 c 128,-1,115
 972 481 972 481 989 565 c 0,116,117
 993 583 993 583 997 604.5 c 128,-1,118
 1001 626 1001 626 1003.5 647 c 128,-1,119
 1006 668 1006 668 1008 687 c 128,-1,120
 1010 706 1010 706 1010 721 c 0,96,97
EndSplineSet
EndChar

StartChar: A
Encoding: 65 65 36
Width: 1212
GlyphClass: 2
Flags: W
LayerCount: 2
Fore
SplineSet
928 0 m 1,0,-1
 826 360 l 1,1,-1
 386 360 l 1,2,-1
 284 0 l 1,3,-1
 42 0 l 1,4,-1
 463 1409 l 1,5,-1
 748 1409 l 1,6,-1
 1168 0 l 1,7,-1
 928 0 l 1,0,-1
658 987 m 1,8,9
 658 987 658 987 638 1058 c 0,10,11
 629 1093 629 1093 622 1122 c 2,12,-1
 610 1171 l 2,13,14
 606 1190 606 1190 606 1192 c 1,15,16
 605 1189 605 1189 601 1170 c 128,-1,17
 597 1151 597 1151 590 1122 c 128,-1,18
 583 1093 583 1093 574 1058 c 2,19,-1
 554 987 l 1,20,-1
 440 582 l 1,21,-1
 772 582 l 1,22,-1
 658 987 l 1,8,9
EndSplineSet
EndChar

StartChar: B
Encoding: 66 66 37
Width: 1212
GlyphClass: 2
Flags: W
LayerCount: 2
Fore
SplineSet
1136 402 m 0,0,1
 1136 295 1136 295 1100.5 218.5 c 128,-1,2
 1065 142 1065 142 1004 93.5 c 128,-1,3
 943 45 943 45 862 22.5 c 128,-1,4
 781 0 781 0 690 0 c 2,5,-1
 112 0 l 1,6,-1
 112 1409 l 1,7,-1
 641 1409 l 2,8,9
 743 1409 743 1409 823 1387.5 c 128,-1,10
 903 1366 903 1366 958 1322 c 128,-1,11
 1013 1278 1013 1278 1041 1211.5 c 128,-1,12
 1069 1145 1069 1145 1069 1055 c 0,13,14
 1069 935 1069 935 1014.5 852.5 c 128,-1,15
 960 770 960 770 849 741 c 1,16,17
 989 721 989 721 1062.5 633.5 c 128,-1,18
 1136 546 1136 546 1136 402 c 0,0,1
826 1015 m 0,19,20
 826 1110 826 1110 776.5 1150 c 128,-1,21
 727 1190 727 1190 629 1190 c 2,22,-1
 354 1190 l 1,23,-1
 354 841 l 1,24,-1
 631 841 l 2,25,26
 733 841 733 841 779.5 884.5 c 128,-1,27
 826 928 826 928 826 1015 c 0,19,20
893 425 m 0,28,29
 893 481 893 481 875 519 c 128,-1,30
 857 557 857 557 825.5 580 c 128,-1,31
 794 603 794 603 752 613 c 128,-1,32
 710 623 710 623 660 623 c 2,33,-1
 354 623 l 1,34,-1
 354 219 l 1,35,-1
 670 219 l 2,36,37
 718 219 718 219 758.5 228.5 c 128,-1,38
 799 238 799 238 829 261.5 c 128,-1,39
 859 285 859 285 876 325 c 128,-1,40
 893 365 893 365 893 425 c 0,28,29
EndSplineSet
EndChar

StartChar: C
Encoding: 67 67 38
Width: 1212
GlyphClass: 2
Flags: W
LayerCount: 2
Fore
SplineSet
651 212 m 0,0,1
 719 212 719 212 769 235.5 c 128,-1,2
 819 259 819 259 855.5 297 c 128,-1,3
 892 335 892 335 916 383 c 128,-1,4
 940 431 940 431 956 480 c 1,5,-1
 1166 383 l 1,6,7
 1141 307 1141 307 1100 234 c 128,-1,8
 1059 161 1059 161 997.5 105 c 128,-1,9
 936 49 936 49 851 14.5 c 128,-1,10
 766 -20 766 -20 651 -20 c 0,11,12
 501 -20 501 -20 391.5 34.5 c 128,-1,13
 282 89 282 89 210 186.5 c 128,-1,14
 138 284 138 284 103.5 418 c 128,-1,15
 69 552 69 552 69 711 c 0,16,17
 69 876 69 876 103.5 1009 c 128,-1,18
 138 1142 138 1142 208.5 1235.5 c 128,-1,19
 279 1329 279 1329 387 1379.5 c 128,-1,20
 495 1430 495 1430 641 1430 c 0,21,22
 754 1430 754 1430 839 1401 c 128,-1,23
 924 1372 924 1372 985.5 1319.5 c 128,-1,24
 1047 1267 1047 1267 1087.5 1195.5 c 128,-1,25
 1128 1124 1128 1124 1151 1038 c 1,26,-1
 938 967 l 1,27,28
 927 1012 927 1012 903 1053.5 c 128,-1,29
 879 1095 879 1095 842.5 1127 c 128,-1,30
 806 1159 806 1159 757 1178.5 c 128,-1,31
 708 1198 708 1198 646 1198 c 0,32,33
 558 1198 558 1198 495 1163.5 c 128,-1,34
 432 1129 432 1129 391.5 1065 c 128,-1,35
 351 1001 351 1001 331.5 911.5 c 128,-1,36
 312 822 312 822 312 711 c 0,37,38
 312 601 312 601 331.5 509.5 c 128,-1,39
 351 418 351 418 392 352 c 128,-1,40
 433 286 433 286 497 249 c 128,-1,41
 561 212 561 212 651 212 c 0,0,1
EndSplineSet
EndChar

StartChar: D
Encoding: 68 68 39
Width: 1212
GlyphClass: 2
Flags: W
LayerCount: 2
Fore
SplineSet
1142 715 m 0,0,1
 1142 539 1142 539 1098.5 405.5 c 128,-1,2
 1055 272 1055 272 979.5 182 c 128,-1,3
 904 92 904 92 801 46 c 128,-1,4
 698 0 698 0 579 0 c 2,5,-1
 112 0 l 1,6,-1
 112 1409 l 1,7,-1
 530 1409 l 2,8,9
 664 1409 664 1409 776.5 1368 c 128,-1,10
 889 1327 889 1327 970 1242 c 128,-1,11
 1051 1157 1051 1157 1096.5 1026 c 128,-1,12
 1142 895 1142 895 1142 715 c 0,0,1
898 715 m 0,13,14
 898 838 898 838 870.5 926 c 128,-1,15
 843 1014 843 1014 794 1070.5 c 128,-1,16
 745 1127 745 1127 676.5 1154 c 128,-1,17
 608 1181 608 1181 525 1181 c 2,18,-1
 354 1181 l 1,19,-1
 354 228 l 1,20,-1
 559 228 l 2,21,22
 632 228 632 228 694 259 c 128,-1,23
 756 290 756 290 801.5 351.5 c 128,-1,24
 847 413 847 413 872.5 504 c 128,-1,25
 898 595 898 595 898 715 c 0,13,14
EndSplineSet
EndChar

StartChar: E
Encoding: 69 69 40
Width: 1120
GlyphClass: 2
Flags: W
LayerCount: 2
Fore
SplineSet
112 0 m 1,0,-1
 112 1409 l 1,1,-1
 1021 1409 l 1,2,-1
 1021 1181 l 1,3,-1
 354 1181 l 1,4,-1
 354 827 l 1,5,-1
 971 827 l 1,6,-1
 971 599 l 1,7,-1
 354 599 l 1,8,-1
 354 228 l 1,9,-1
 1054 228 l 1,10,-1
 1054 0 l 1,11,-1
 112 0 l 1,0,-1
EndSplineSet
EndChar

StartChar: F
Encoding: 70 70 41
Width: 1026
GlyphClass: 2
Flags: W
LayerCount: 2
Fore
SplineSet
354 1181 m 1,0,-1
 354 745 l 1,1,-1
 946 745 l 1,2,-1
 946 517 l 1,3,-1
 354 517 l 1,4,-1
 354 0 l 1,5,-1
 112 0 l 1,6,-1
 112 1409 l 1,7,-1
 964 1409 l 1,8,-1
 964 1181 l 1,9,-1
 354 1181 l 1,0,-1
EndSplineSet
EndChar

StartChar: G
Encoding: 71 71 42
Width: 1307
GlyphClass: 2
Flags: W
LayerCount: 2
Fore
SplineSet
661 211 m 0,0,1
 714 211 714 211 762.5 221 c 128,-1,2
 811 231 811 231 852 247.5 c 128,-1,3
 893 264 893 264 926.5 285.5 c 128,-1,4
 960 307 960 307 981 330 c 1,5,-1
 981 525 l 1,6,-1
 699 525 l 1,7,-1
 699 743 l 1,8,-1
 1203 743 l 1,9,-1
 1203 225 l 1,10,11
 1164 176 1164 176 1108 131.5 c 128,-1,12
 1052 87 1052 87 982 53.5 c 128,-1,13
 912 20 912 20 829.5 0 c 128,-1,14
 747 -20 747 -20 655 -20 c 0,15,16
 502 -20 502 -20 391 34.5 c 128,-1,17
 280 89 280 89 208.5 186.5 c 128,-1,18
 137 284 137 284 103 418 c 128,-1,19
 69 552 69 552 69 711 c 0,20,21
 69 876 69 876 105 1009 c 128,-1,22
 141 1142 141 1142 214.5 1235.5 c 128,-1,23
 288 1329 288 1329 399 1379.5 c 128,-1,24
 510 1430 510 1430 660 1430 c 0,25,26
 769 1430 769 1430 854 1404 c 128,-1,27
 939 1378 939 1378 1003 1330 c 128,-1,28
 1067 1282 1067 1282 1110 1214.5 c 128,-1,29
 1153 1147 1153 1147 1178 1063 c 1,30,-1
 955 981 l 1,31,32
 940 1025 940 1025 915.5 1064.5 c 128,-1,33
 891 1104 891 1104 854.5 1133.5 c 128,-1,34
 818 1163 818 1163 770 1180.5 c 128,-1,35
 722 1198 722 1198 660 1198 c 0,36,37
 570 1198 570 1198 504.5 1163.5 c 128,-1,38
 439 1129 439 1129 396.5 1065 c 128,-1,39
 354 1001 354 1001 333.5 911.5 c 128,-1,40
 313 822 313 822 313 711 c 0,41,42
 313 601 313 601 333.5 509 c 128,-1,43
 354 417 354 417 397.5 351 c 128,-1,44
 441 285 441 285 506.5 248 c 128,-1,45
 572 211 572 211 661 211 c 0,0,1
EndSplineSet
EndChar

StartChar: H
Encoding: 72 72 43
Width: 1212
GlyphClass: 2
Flags: W
LayerCount: 2
Fore
SplineSet
857 0 m 1,0,-1
 857 604 l 1,1,-1
 354 604 l 1,2,-1
 354 0 l 1,3,-1
 112 0 l 1,4,-1
 112 1409 l 1,5,-1
 354 1409 l 1,6,-1
 354 848 l 1,7,-1
 857 848 l 1,8,-1
 857 1409 l 1,9,-1
 1099 1409 l 1,10,-1
 1099 0 l 1,11,-1
 857 0 l 1,0,-1
EndSplineSet
EndChar

StartChar: I
Encoding: 73 73 44
Width: 467
GlyphClass: 2
Flags: W
LayerCount: 2
Fore
SplineSet
112 0 m 1,0,-1
 112 1409 l 1,1,-1
 355 1409 l 1,2,-1
 355 0 l 1,3,-1
 112 0 l 1,0,-1
EndSplineSet
EndChar

StartChar: J
Encoding: 74 74 45
Width: 934
GlyphClass: 2
Flags: W
LayerCount: 2
Fore
SplineSet
430 -20 m 0,0,1
 343 -20 343 -20 275 2 c 128,-1,2
 207 24 207 24 157 72 c 128,-1,3
 107 120 107 120 74.5 196.5 c 128,-1,4
 42 273 42 273 25 382 c 1,5,-1
 266 425 l 1,6,7
 274 366 274 366 288.5 325.5 c 128,-1,8
 303 285 303 285 324 259.5 c 128,-1,9
 345 234 345 234 372 222.5 c 128,-1,10
 399 211 399 211 431 211 c 0,11,12
 503 211 503 211 540.5 270 c 128,-1,13
 578 329 578 329 578 439 c 2,14,-1
 578 1178 l 1,15,-1
 348 1178 l 1,16,-1
 348 1409 l 1,17,-1
 819 1409 l 1,18,-1
 819 446 l 2,19,20
 819 339 819 339 793.5 252.5 c 128,-1,21
 768 166 768 166 718.5 105.5 c 128,-1,22
 669 45 669 45 596.5 12.5 c 128,-1,23
 524 -20 524 -20 430 -20 c 0,0,1
EndSplineSet
EndChar

StartChar: K
Encoding: 75 75 46
Width: 1212
GlyphClass: 2
Flags: W
LayerCount: 2
Fore
SplineSet
911 0 m 1,0,-1
 497 647 l 1,1,-1
 354 514 l 1,2,-1
 354 0 l 1,3,-1
 112 0 l 1,4,-1
 112 1409 l 1,5,-1
 354 1409 l 1,6,-1
 354 770 l 1,7,-1
 874 1409 l 1,8,-1
 1156 1409 l 1,9,-1
 663 813 l 1,10,-1
 1196 0 l 1,11,-1
 911 0 l 1,0,-1
EndSplineSet
EndChar

StartChar: L
Encoding: 76 76 47
Width: 1026
GlyphClass: 2
Flags: W
LayerCount: 2
Fore
SplineSet
112 0 m 1,0,-1
 112 1409 l 1,1,-1
 354 1409 l 1,2,-1
 354 228 l 1,3,-1
 974 228 l 1,4,-1
 974 0 l 1,5,-1
 112 0 l 1,0,-1
EndSplineSet
EndChar

StartChar: M
Encoding: 77 77 48
Width: 1399
GlyphClass: 2
Flags: W
LayerCount: 2
Fore
SplineSet
1072 0 m 1,0,-1
 1072 854 l 2,1,2
 1072 905 1072 905 1073 959 c 128,-1,3
 1074 1013 1074 1013 1076 1058 c 2,4,5
 1076 1058 1076 1058 1080 1161 c 1,6,7
 1080 1161 1080 1161 1047 1011 c 2,8,9
 1047 1011 1047 1011 1033 949 c 2,10,-1
 1019 887 l 1,11,-1
 1006 831 l 1,12,-1
 994 786 l 1,13,-1
 786 0 l 1,14,-1
 613 0 l 1,15,-1
 405 786 l 2,16,17
 400 805 400 805 394 831 c 2,18,-1
 381 887 l 1,19,-1
 366 949 l 1,20,-1
 352 1011 l 1,21,22
 352 1011 352 1011 317 1161 c 1,23,24
 319 1103 319 1103 322 1047 c 0,25,26
 324 999 324 999 325.5 946 c 128,-1,27
 327 893 327 893 327 854 c 2,28,-1
 327 0 l 1,29,-1
 112 0 l 1,30,-1
 112 1409 l 1,31,-1
 436 1409 l 1,32,-1
 643 621 l 2,33,34
 651 590 651 590 660 545 c 2,35,-1
 679 458 l 1,36,37
 679 458 679 458 700 356 c 1,38,39
 700 356 700 356 722 456 c 1,40,41
 722 456 722 456 732 499 c 2,42,-1
 742 542 l 2,43,44
 747 563 747 563 752 582 c 2,45,-1
 761 616 l 1,46,-1
 964 1409 l 1,47,-1
 1287 1409 l 1,48,-1
 1287 0 l 1,49,-1
 1072 0 l 1,0,-1
EndSplineSet
EndChar

StartChar: N
Encoding: 78 78 49
Width: 1212
GlyphClass: 2
Flags: W
LayerCount: 2
Fore
SplineSet
815 0 m 1,0,-1
 312 1085 l 1,1,2
 316 1041 316 1041 320 997 c 0,3,4
 323 959 323 959 325 915 c 128,-1,5
 327 871 327 871 327 831 c 2,6,-1
 327 0 l 1,7,-1
 112 0 l 1,8,-1
 112 1409 l 1,9,-1
 388 1409 l 1,10,-1
 899 315 l 1,11,12
 895 357 895 357 892 403 c 0,13,14
 889 442 889 442 886.5 491 c 128,-1,15
 884 540 884 540 884 590 c 2,16,-1
 884 1409 l 1,17,-1
 1099 1409 l 1,18,-1
 1099 0 l 1,19,-1
 815 0 l 1,0,-1
EndSplineSet
EndChar

StartChar: O
Encoding: 79 79 50
Width: 1307
GlyphClass: 2
Flags: W
LayerCount: 2
Fore
SplineSet
1236 711 m 0,0,1
 1236 546 1236 546 1196 411 c 128,-1,2
 1156 276 1156 276 1080.5 180 c 128,-1,3
 1005 84 1005 84 896.5 32 c 128,-1,4
 788 -20 788 -20 651 -20 c 0,5,6
 506 -20 506 -20 397 34.5 c 128,-1,7
 288 89 288 89 215 186.5 c 128,-1,8
 142 284 142 284 105.5 418 c 128,-1,9
 69 552 69 552 69 711 c 0,10,11
 69 876 69 876 107 1009 c 128,-1,12
 145 1142 145 1142 219.5 1235.5 c 128,-1,13
 294 1329 294 1329 402.5 1379.5 c 128,-1,14
 511 1430 511 1430 652 1430 c 256,15,16
 793 1430 793 1430 902 1379 c 128,-1,17
 1011 1328 1011 1328 1085 1234 c 128,-1,18
 1159 1140 1159 1140 1197.5 1007.5 c 128,-1,19
 1236 875 1236 875 1236 711 c 0,0,1
989 711 m 0,20,21
 989 822 989 822 967.5 911.5 c 128,-1,22
 946 1001 946 1001 903.5 1065 c 128,-1,23
 861 1129 861 1129 798 1163.5 c 128,-1,24
 735 1198 735 1198 652 1198 c 0,25,26
 567 1198 567 1198 504 1163.5 c 128,-1,27
 441 1129 441 1129 398 1065 c 128,-1,28
 355 1001 355 1001 334 911.5 c 128,-1,29
 313 822 313 822 313 711 c 0,30,31
 313 601 313 601 334.5 509.5 c 128,-1,32
 356 418 356 418 398.5 352 c 128,-1,33
 441 286 441 286 504.5 249 c 128,-1,34
 568 212 568 212 651 212 c 0,35,36
 740 212 740 212 803.5 249.5 c 128,-1,37
 867 287 867 287 908.5 353.5 c 128,-1,38
 950 420 950 420 969.5 511.5 c 128,-1,39
 989 603 989 603 989 711 c 0,20,21
EndSplineSet
EndChar

StartChar: P
Encoding: 80 80 51
Width: 1120
GlyphClass: 2
Flags: W
LayerCount: 2
Fore
SplineSet
1063 963 m 0,0,1
 1063 872 1063 872 1038 787.5 c 128,-1,2
 1013 703 1013 703 961 638 c 128,-1,3
 909 573 909 573 829.5 534.5 c 128,-1,4
 750 496 750 496 641 496 c 2,5,-1
 354 496 l 1,6,-1
 354 0 l 1,7,-1
 112 0 l 1,8,-1
 112 1409 l 1,9,-1
 631 1409 l 2,10,11
 742 1409 742 1409 823 1376.5 c 128,-1,12
 904 1344 904 1344 957.5 1285 c 128,-1,13
 1011 1226 1011 1226 1037 1144 c 128,-1,14
 1063 1062 1063 1062 1063 963 c 0,0,1
819 958 m 0,15,16
 819 1067 819 1067 765.5 1123.5 c 128,-1,17
 712 1180 712 1180 604 1180 c 2,18,-1
 354 1180 l 1,19,-1
 354 723 l 1,20,-1
 611 723 l 2,21,22
 665 723 665 723 704 740 c 128,-1,23
 743 757 743 757 768.5 788 c 128,-1,24
 794 819 794 819 806.5 862.5 c 128,-1,25
 819 906 819 906 819 958 c 0,15,16
EndSplineSet
EndChar

StartChar: Q
Encoding: 81 81 52
Width: 1307
GlyphClass: 2
Flags: W
LayerCount: 2
Fore
SplineSet
1236 711 m 0,0,1
 1236 570 1236 570 1207 451.5 c 128,-1,2
 1178 333 1178 333 1122.5 241.5 c 128,-1,3
 1067 150 1067 150 987.5 89.5 c 128,-1,4
 908 29 908 29 807 4 c 1,5,6
 823 -54 823 -54 845 -90.5 c 128,-1,7
 867 -127 867 -127 895 -147.5 c 128,-1,8
 923 -168 923 -168 956 -175.5 c 128,-1,9
 989 -183 989 -183 1026 -183 c 0,10,11
 1050 -183 1050 -183 1074.5 -180.5 c 128,-1,12
 1099 -178 1099 -178 1124 -173 c 1,13,-1
 1122 -375 l 1,14,15
 1078 -387 1078 -387 1029.5 -395 c 128,-1,16
 981 -403 981 -403 924 -403 c 0,17,18
 846 -403 846 -403 787.5 -374.5 c 128,-1,19
 729 -346 729 -346 686 -294.5 c 128,-1,20
 643 -243 643 -243 613 -170.5 c 128,-1,21
 583 -98 583 -98 561 -10 c 1,22,23
 438 4 438 4 346 63 c 128,-1,24
 254 122 254 122 192 217 c 128,-1,25
 130 312 130 312 99.5 438 c 128,-1,26
 69 564 69 564 69 711 c 0,27,28
 69 876 69 876 107 1009 c 128,-1,29
 145 1142 145 1142 219.5 1235.5 c 128,-1,30
 294 1329 294 1329 402.5 1379.5 c 128,-1,31
 511 1430 511 1430 652 1430 c 256,32,33
 793 1430 793 1430 902 1379 c 128,-1,34
 1011 1328 1011 1328 1085 1234 c 128,-1,35
 1159 1140 1159 1140 1197.5 1007.5 c 128,-1,36
 1236 875 1236 875 1236 711 c 0,0,1
989 711 m 0,37,38
 989 822 989 822 967.5 911.5 c 128,-1,39
 946 1001 946 1001 903.5 1065 c 128,-1,40
 861 1129 861 1129 798 1163.5 c 128,-1,41
 735 1198 735 1198 652 1198 c 0,42,43
 567 1198 567 1198 504 1163.5 c 128,-1,44
 441 1129 441 1129 398 1065 c 128,-1,45
 355 1001 355 1001 334 911.5 c 128,-1,46
 313 822 313 822 313 711 c 0,47,48
 313 601 313 601 334.5 509 c 128,-1,49
 356 417 356 417 398.5 351 c 128,-1,50
 441 285 441 285 504.5 248 c 128,-1,51
 568 211 568 211 651 211 c 0,52,53
 740 211 740 211 803.5 248.5 c 128,-1,54
 867 286 867 286 908.5 352.5 c 128,-1,55
 950 419 950 419 969.5 511 c 128,-1,56
 989 603 989 603 989 711 c 0,37,38
EndSplineSet
EndChar

StartChar: R
Encoding: 82 82 53
Width: 1212
GlyphClass: 2
Flags: W
LayerCount: 2
Fore
SplineSet
906 0 m 1,0,-1
 638 535 l 1,1,-1
 354 535 l 1,2,-1
 354 0 l 1,3,-1
 112 0 l 1,4,-1
 112 1409 l 1,5,-1
 689 1409 l 2,6,7
 797 1409 797 1409 878 1379.5 c 128,-1,8
 959 1350 959 1350 1013 1295.5 c 128,-1,9
 1067 1241 1067 1241 1093.5 1163.5 c 128,-1,10
 1120 1086 1120 1086 1120 989 c 0,11,12
 1120 910 1120 910 1101 844.5 c 128,-1,13
 1082 779 1082 779 1048 728 c 128,-1,14
 1014 677 1014 677 967 642.5 c 128,-1,15
 920 608 920 608 865 592 c 1,16,-1
 1178 0 l 1,17,-1
 906 0 l 1,0,-1
877 977 m 0,18,19
 877 1080 877 1080 821.5 1130 c 128,-1,20
 766 1180 766 1180 664 1180 c 2,21,-1
 354 1180 l 1,22,-1
 354 764 l 1,23,-1
 670 764 l 2,24,25
 724 764 724 764 763 779.5 c 128,-1,26
 802 795 802 795 827 823.5 c 128,-1,27
 852 852 852 852 864.5 891 c 128,-1,28
 877 930 877 930 877 977 c 0,18,19
EndSplineSet
EndChar

StartChar: S
Encoding: 83 83 54
Width: 1120
GlyphClass: 2
Flags: W
LayerCount: 2
Fore
SplineSet
1054 406 m 0,0,1
 1054 310 1054 310 1025.5 231.5 c 128,-1,2
 997 153 997 153 936.5 97 c 128,-1,3
 876 41 876 41 782.5 10.5 c 128,-1,4
 689 -20 689 -20 559 -20 c 0,5,6
 444 -20 444 -20 356.5 5 c 128,-1,7
 269 30 269 30 206 79 c 128,-1,8
 143 128 143 128 104.5 200.5 c 128,-1,9
 66 273 66 273 48 367 c 1,10,-1
 282 414 l 1,11,12
 292 367 292 367 311 328 c 128,-1,13
 330 289 330 289 363 260.5 c 128,-1,14
 396 232 396 232 445.5 216.5 c 128,-1,15
 495 201 495 201 566 201 c 0,16,17
 689 201 689 201 754 246.5 c 128,-1,18
 819 292 819 292 819 389 c 0,19,20
 819 447 819 447 793 484 c 128,-1,21
 767 521 767 521 723.5 545 c 128,-1,22
 680 569 680 569 623.5 585 c 128,-1,23
 567 601 567 601 505 616 c 1,24,25
 505 616 505 616 406 645 c 0,26,27
 357 660 357 660 312.5 681 c 128,-1,28
 268 702 268 702 229.5 731 c 128,-1,29
 191 760 191 760 162.5 802.5 c 128,-1,30
 134 845 134 845 118 902 c 128,-1,31
 102 959 102 959 102 1036 c 0,32,33
 102 1141 102 1141 136.5 1216 c 128,-1,34
 171 1291 171 1291 232.5 1338.5 c 128,-1,35
 294 1386 294 1386 378 1408 c 128,-1,36
 462 1430 462 1430 562 1430 c 0,37,38
 675 1430 675 1430 756 1408.5 c 128,-1,39
 837 1387 837 1387 891.5 1343 c 128,-1,40
 946 1299 946 1299 977.5 1232.5 c 128,-1,41
 1009 1166 1009 1166 1024 1077 c 1,42,-1
 790 1038 l 1,43,44
 772 1129 772 1129 716.5 1175 c 128,-1,45
 661 1221 661 1221 558 1221 c 0,46,47
 494 1221 494 1221 451.5 1207.5 c 128,-1,48
 409 1194 409 1194 384 1171 c 128,-1,49
 359 1148 359 1148 348.5 1117.5 c 128,-1,50
 338 1087 338 1087 338 1053 c 0,51,52
 338 1001 338 1001 358.5 967.5 c 128,-1,53
 379 934 379 934 416 911.5 c 128,-1,54
 453 889 453 889 504 873.5 c 128,-1,55
 555 858 555 858 617 842 c 0,56,57
 671 828 671 828 724 812.5 c 128,-1,58
 777 797 777 797 825.5 776 c 128,-1,59
 874 755 874 755 916 725 c 128,-1,60
 958 695 958 695 988.5 651.5 c 128,-1,61
 1019 608 1019 608 1036.5 548 c 128,-1,62
 1054 488 1054 488 1054 406 c 0,0,1
EndSplineSet
EndChar

StartChar: T
Encoding: 84 84 55
Width: 1026
GlyphClass: 2
Flags: W
LayerCount: 2
Fore
SplineSet
634 1181 m 1,0,-1
 634 0 l 1,1,-1
 392 0 l 1,2,-1
 392 1181 l 1,3,-1
 19 1181 l 1,4,-1
 19 1409 l 1,5,-1
 1008 1409 l 1,6,-1
 1008 1181 l 1,7,-1
 634 1181 l 1,0,-1
EndSplineSet
EndChar

StartChar: U
Encoding: 85 85 56
Width: 1212
GlyphClass: 2
Flags: W
LayerCount: 2
Fore
SplineSet
592 -20 m 0,0,1
 484 -20 484 -20 394 11.5 c 128,-1,2
 304 43 304 43 239 109.5 c 128,-1,3
 174 176 174 176 137.5 280 c 128,-1,4
 101 384 101 384 101 528 c 2,5,-1
 101 1409 l 1,6,-1
 343 1409 l 1,7,-1
 343 551 l 2,8,9
 343 462 343 462 361 397.5 c 128,-1,10
 379 333 379 333 412.5 291.5 c 128,-1,11
 446 250 446 250 493.5 230.5 c 128,-1,12
 541 211 541 211 599 211 c 0,13,14
 658 211 658 211 707.5 231.5 c 128,-1,15
 757 252 757 252 792.5 295 c 128,-1,16
 828 338 828 338 848 404 c 128,-1,17
 868 470 868 470 868 561 c 2,18,-1
 868 1409 l 1,19,-1
 1110 1409 l 1,20,-1
 1110 543 l 2,21,22
 1110 398 1110 398 1071.5 292 c 128,-1,23
 1033 186 1033 186 964 116.5 c 128,-1,24
 895 47 895 47 800 13.5 c 128,-1,25
 705 -20 705 -20 592 -20 c 0,0,1
EndSplineSet
EndChar

StartChar: V
Encoding: 86 86 57
Width: 1120
GlyphClass: 2
Flags: W
LayerCount: 2
Fore
SplineSet
684 0 m 1,0,-1
 439 0 l 1,1,-1
 11 1409 l 1,2,-1
 264 1409 l 1,3,-1
 502 504 l 1,4,5
 502 504 502 504 524 412 c 2,6,-1
 544 326 l 2,7,8
 554 280 554 280 562 238 c 1,9,10
 570 279 570 279 580 324 c 0,11,12
 588 362 588 362 599 410 c 2,13,-1
 621 504 l 1,14,-1
 858 1409 l 1,15,-1
 1109 1409 l 1,16,-1
 684 0 l 1,0,-1
EndSplineSet
EndChar

StartChar: W
Encoding: 87 87 58
Width: 1585
GlyphClass: 2
Flags: W
LayerCount: 2
Fore
SplineSet
1285 0 m 1,0,-1
 998 0 l 1,1,-1
 841 815 l 2,2,3
 834 852 834 852 826 903 c 2,4,-1
 809 1002 l 2,5,6
 800 1057 800 1057 793 1116 c 1,7,8
 793 1116 793 1116 775 1001 c 2,9,10
 775 1001 775 1001 767 952 c 0,11,12
 763 926 763 926 758 902 c 2,13,-1
 750 855 l 2,14,15
 746 833 746 833 742 815 c 2,16,-1
 586 0 l 1,17,-1
 299 0 l 1,18,-1
 2 1409 l 1,19,-1
 247 1409 l 1,20,-1
 391 625 l 1,21,-1
 414 499 l 1,22,-1
 434 388 l 2,23,24
 444 331 444 331 452 279 c 1,25,-1
 476 423 l 1,26,27
 476 423 476 423 486 485 c 1,28,-1
 498 548 l 1,29,-1
 508 608 l 1,30,-1
 517 659 l 1,31,-1
 660 1409 l 1,32,-1
 931 1409 l 1,33,-1
 1077 659 l 2,34,35
 1082 635 1082 635 1086 606 c 2,36,-1
 1096 544 l 2,37,38
 1101 513 1101 513 1106 481.5 c 128,-1,39
 1111 450 1111 450 1115 420 c 2,40,-1
 1135 279 l 1,41,42
 1135 279 1135 279 1155 395 c 1,43,44
 1155 395 1155 395 1176 507 c 0,45,46
 1187 568 1187 568 1199 625 c 1,47,-1
 1338 1409 l 1,48,-1
 1583 1409 l 1,49,-1
 1285 0 l 1,0,-1
EndSplineSet
EndChar

StartChar: X
Encoding: 88 88 59
Width: 1120
GlyphClass: 2
Flags: W
LayerCount: 2
Fore
SplineSet
851 0 m 1,0,-1
 561 561 l 1,1,-1
 271 0 l 1,2,-1
 15 0 l 1,3,-1
 415 741 l 1,4,-1
 48 1409 l 1,5,-1
 304 1409 l 1,6,-1
 561 911 l 1,7,-1
 817 1409 l 1,8,-1
 1072 1409 l 1,9,-1
 721 741 l 1,10,-1
 1105 0 l 1,11,-1
 851 0 l 1,0,-1
EndSplineSet
EndChar

StartChar: Y
Encoding: 89 89 60
Width: 1120
GlyphClass: 2
Flags: W
LayerCount: 2
Fore
SplineSet
681 578 m 1,0,-1
 681 0 l 1,1,-1
 440 0 l 1,2,-1
 440 578 l 1,3,-1
 29 1409 l 1,4,-1
 282 1409 l 1,5,-1
 559 813 l 1,6,-1
 840 1409 l 1,7,-1
 1093 1409 l 1,8,-1
 681 578 l 1,0,-1
EndSplineSet
EndChar

StartChar: Z
Encoding: 90 90 61
Width: 1026
GlyphClass: 2
Flags: W
LayerCount: 2
Fore
SplineSet
978 0 m 1,0,-1
 50 0 l 1,1,-1
 50 209 l 1,2,-1
 675 1178 l 1,3,-1
 112 1178 l 1,4,-1
 112 1409 l 1,5,-1
 944 1409 l 1,6,-1
 944 1204 l 1,7,-1
 319 231 l 1,8,-1
 978 231 l 1,9,-1
 978 0 l 1,0,-1
EndSplineSet
EndChar

StartChar: bracketleft
Encoding: 91 91 62
Width: 559
GlyphClass: 2
Flags: W
LayerCount: 2
Fore
SplineSet
94 -425 m 1,0,-1
 94 1484 l 1,1,-1
 539 1484 l 1,2,-1
 539 1294 l 1,3,-1
 312 1294 l 1,4,-1
 312 -234 l 1,5,-1
 539 -234 l 1,6,-1
 539 -425 l 1,7,-1
 94 -425 l 1,0,-1
EndSplineSet
EndChar

StartChar: backslash
Encoding: 92 92 63
Width: 467
GlyphClass: 2
Flags: W
LayerCount: 2
Fore
SplineSet
252 -41 m 1,0,-1
 17 1485 l 1,1,-1
 213 1485 l 1,2,-1
 451 -41 l 1,3,-1
 252 -41 l 1,0,-1
EndSplineSet
EndChar

StartChar: bracketright
Encoding: 93 93 64
Width: 559
GlyphClass: 2
Flags: W
LayerCount: 2
Fore
SplineSet
20 -425 m 1,0,-1
 20 -234 l 1,1,-1
 248 -234 l 1,2,-1
 248 1294 l 1,3,-1
 20 1294 l 1,4,-1
 20 1484 l 1,5,-1
 465 1484 l 1,6,-1
 465 -425 l 1,7,-1
 20 -425 l 1,0,-1
EndSplineSet
EndChar

StartChar: asciicircum
Encoding: 94 94 65
Width: 981
GlyphClass: 2
Flags: W
LayerCount: 2
Fore
SplineSet
756 514 m 1,0,-1
 489 1266 l 1,1,-1
 223 514 l 1,2,-1
 37 514 l 1,3,-1
 358 1409 l 1,4,-1
 622 1409 l 1,5,-1
 944 514 l 1,6,-1
 756 514 l 1,0,-1
EndSplineSet
EndChar

StartChar: underscore
Encoding: 95 95 66
Width: 934
GlyphClass: 2
Flags: W
LayerCount: 2
Fore
SplineSet
-16 -250 m 1,0,-1
 -16 -172 l 1,1,-1
 949 -172 l 1,2,-1
 949 -250 l 1,3,-1
 -16 -250 l 1,0,-1
EndSplineSet
EndChar

StartChar: grave
Encoding: 96 96 67
Width: 559
GlyphClass: 2
Flags: W
LayerCount: 2
Fore
SplineSet
333 1183 m 5,0,-1
 54 1459 l 5,1,-1
 54 1502 l 5,2,-1
 266 1502 l 5,3,-1
 471 1214 l 5,4,-1
 471 1183 l 5,5,-1
 333 1183 l 5,0,-1
EndSplineSet
EndChar

StartChar: a
Encoding: 97 97 68
Width: 934
GlyphClass: 2
Flags: W
LayerCount: 2
Fore
SplineSet
322 -20 m 0,0,1
 258 -20 258 -20 207.5 1.5 c 128,-1,2
 157 23 157 23 122 64.5 c 128,-1,3
 87 106 87 106 68 167 c 128,-1,4
 49 228 49 228 49 306 c 0,5,6
 49 402 49 402 76.5 467.5 c 128,-1,7
 104 533 104 533 151.5 573.5 c 128,-1,8
 199 614 199 614 263 632.5 c 128,-1,9
 327 651 327 651 399 652 c 2,10,-1
 590 656 l 1,11,-1
 590 711 l 2,12,13
 590 770 590 770 581.5 809.5 c 128,-1,14
 573 849 573 849 556.5 874 c 128,-1,15
 540 899 540 899 516 909.5 c 128,-1,16
 492 920 492 920 461 920 c 0,17,18
 432 920 432 920 409.5 913 c 128,-1,19
 387 906 387 906 370.5 888.5 c 128,-1,20
 354 871 354 871 344 841.5 c 128,-1,21
 334 812 334 812 330 767 c 1,22,-1
 89 781 l 1,23,24
 99 852 99 852 125.5 910.5 c 128,-1,25
 152 969 152 969 198 1012 c 128,-1,26
 244 1055 244 1055 312 1078.5 c 128,-1,27
 380 1102 380 1102 471 1102 c 0,28,29
 554 1102 554 1102 618.5 1077 c 128,-1,30
 683 1052 683 1052 728 1002.5 c 128,-1,31
 773 953 773 953 797 881 c 128,-1,32
 821 809 821 809 821 714 c 2,33,-1
 821 320 l 2,34,35
 821 282 821 282 824 252 c 128,-1,36
 827 222 827 222 834.5 201.5 c 128,-1,37
 842 181 842 181 856.5 170.5 c 128,-1,38
 871 160 871 160 894 160 c 0,39,40
 920 160 920 160 945 166 c 1,41,-1
 945 14 l 1,42,43
 945 14 945 14 908 3 c 0,44,45
 891 -2 891 -2 875 -5 c 128,-1,46
 859 -8 859 -8 840.5 -10 c 128,-1,47
 822 -12 822 -12 797 -12 c 0,48,49
 710 -12 710 -12 668.5 40 c 128,-1,50
 627 92 627 92 619 193 c 1,51,-1
 614 193 l 1,52,53
 568 92 568 92 496 36 c 128,-1,54
 424 -20 424 -20 322 -20 c 0,0,1
590 501 m 1,55,-1
 472 499 l 1,56,57
 435 497 435 497 402 491.5 c 128,-1,58
 369 486 369 486 344 468.5 c 128,-1,59
 319 451 319 451 304 418 c 128,-1,60
 289 385 289 385 289 328 c 0,61,62
 289 251 289 251 318.5 213.5 c 128,-1,63
 348 176 348 176 396 176 c 0,64,65
 440 176 440 176 476.5 199 c 128,-1,66
 513 222 513 222 538 259.5 c 128,-1,67
 563 297 563 297 576.5 346 c 128,-1,68
 590 395 590 395 590 446 c 2,69,-1
 590 501 l 1,55,-1
EndSplineSet
EndChar

StartChar: b
Encoding: 98 98 69
Width: 1026
GlyphClass: 2
Flags: W
LayerCount: 2
Fore
SplineSet
957 545 m 0,0,1
 957 422 957 422 937 318.5 c 128,-1,2
 917 215 917 215 875 139.5 c 128,-1,3
 833 64 833 64 768.5 22 c 128,-1,4
 704 -20 704 -20 617 -20 c 0,5,6
 578 -20 578 -20 538.5 -10 c 128,-1,7
 499 0 499 0 463.5 23 c 128,-1,8
 428 46 428 46 398.5 83 c 128,-1,9
 369 120 369 120 348 174 c 1,10,-1
 346 174 l 1,11,12
 346 153 346 153 345 126 c 128,-1,13
 344 99 344 99 342 73.5 c 128,-1,14
 340 48 340 48 338 28 c 128,-1,15
 336 8 336 8 335 0 c 1,16,-1
 111 0 l 1,17,18
 113 35 113 35 115 99.5 c 128,-1,19
 117 164 117 164 117 247 c 2,20,-1
 117 1484 l 1,21,-1
 348 1484 l 1,22,-1
 348 1070 l 2,23,24
 348 1038 348 1038 347.5 1007.5 c 128,-1,25
 347 977 347 977 346 951 c 0,26,27
 345 921 345 921 344 894 c 1,28,-1
 348 894 l 1,29,30
 390 1006 390 1006 463 1054 c 128,-1,31
 536 1102 536 1102 632 1102 c 0,32,33
 717 1102 717 1102 778.5 1060.5 c 128,-1,34
 840 1019 840 1019 879.5 944.5 c 128,-1,35
 919 870 919 870 938 768 c 128,-1,36
 957 666 957 666 957 545 c 0,0,1
717 545 m 0,37,38
 717 729 717 729 672.5 818 c 128,-1,39
 628 907 628 907 536 907 c 0,40,41
 501 907 501 907 466 890 c 128,-1,42
 431 873 431 873 404 830.5 c 128,-1,43
 377 788 377 788 360.5 716.5 c 128,-1,44
 344 645 344 645 344 536 c 0,45,46
 344 430 344 430 360.5 360 c 128,-1,47
 377 290 377 290 403.5 248 c 128,-1,48
 430 206 430 206 464.5 189 c 128,-1,49
 499 172 499 172 534 172 c 0,50,51
 622 172 622 172 669.5 260.5 c 128,-1,52
 717 349 717 349 717 545 c 0,37,38
EndSplineSet
EndChar

StartChar: c
Encoding: 99 99 70
Width: 934
GlyphClass: 2
Flags: W
LayerCount: 2
Fore
SplineSet
487 -20 m 0,0,1
 381 -20 381 -20 302 20 c 128,-1,2
 223 60 223 60 170.5 133 c 128,-1,3
 118 206 118 206 92 308.5 c 128,-1,4
 66 411 66 411 66 535 c 0,5,6
 66 670 66 670 94.5 775.5 c 128,-1,7
 123 881 123 881 177 953.5 c 128,-1,8
 231 1026 231 1026 310.5 1064 c 128,-1,9
 390 1102 390 1102 490 1102 c 0,10,11
 576 1102 576 1102 643 1074 c 128,-1,12
 710 1046 710 1046 758.5 997.5 c 128,-1,13
 807 949 807 949 837 883 c 128,-1,14
 867 817 867 817 878 741 c 1,15,-1
 646 727 l 1,16,17
 636 810 636 810 597 859.5 c 128,-1,18
 558 909 558 909 485 909 c 0,19,20
 392 909 392 909 350 816 c 128,-1,21
 308 723 308 723 308 546 c 0,22,23
 308 172 308 172 489 172 c 0,24,25
 555 172 555 172 599 222.5 c 128,-1,26
 643 273 643 273 654 373 c 1,27,-1
 885 360 l 1,28,29
 877 285 877 285 847.5 216.5 c 128,-1,30
 818 148 818 148 768.5 95.5 c 128,-1,31
 719 43 719 43 648.5 11.5 c 128,-1,32
 578 -20 578 -20 487 -20 c 0,0,1
EndSplineSet
EndChar

StartChar: d
Encoding: 100 100 71
Width: 1026
GlyphClass: 2
Flags: W
LayerCount: 2
Fore
SplineSet
692 0 m 1,0,1
 690 8 690 8 688 28.5 c 128,-1,2
 686 49 686 49 684 75 c 128,-1,3
 682 101 682 101 681 128 c 128,-1,4
 680 155 680 155 680 176 c 1,5,-1
 677 176 l 1,6,7
 637 71 637 71 565 25.5 c 128,-1,8
 493 -20 493 -20 393 -20 c 0,9,10
 309 -20 309 -20 248 22 c 128,-1,11
 187 64 187 64 147 139 c 128,-1,12
 107 214 107 214 88 316.5 c 128,-1,13
 69 419 69 419 69 540 c 0,14,15
 69 663 69 663 89 766 c 128,-1,16
 109 869 109 869 151 943.5 c 128,-1,17
 193 1018 193 1018 257.5 1060 c 128,-1,18
 322 1102 322 1102 410 1102 c 0,19,20
 453 1102 453 1102 493.5 1091 c 128,-1,21
 534 1080 534 1080 568.5 1057 c 128,-1,22
 603 1034 603 1034 631 998 c 128,-1,23
 659 962 659 962 678 911 c 1,24,-1
 680 911 l 1,25,26
 680 921 680 921 679.5 940.5 c 128,-1,27
 679 960 679 960 679 985 c 128,-1,28
 679 1010 679 1010 678.5 1037 c 128,-1,29
 678 1064 678 1064 678 1089 c 2,30,-1
 678 1484 l 1,31,-1
 909 1484 l 1,32,-1
 909 236 l 2,33,34
 909 157 909 157 911.5 95.5 c 128,-1,35
 914 34 914 34 915 0 c 1,36,-1
 692 0 l 1,0,1
682 547 m 0,37,38
 682 654 682 654 665.5 724.5 c 128,-1,39
 649 795 649 795 622 836.5 c 128,-1,40
 595 878 595 878 561 894.5 c 128,-1,41
 527 911 527 911 492 911 c 0,42,43
 448 911 448 911 414 890 c 128,-1,44
 380 869 380 869 356.5 824 c 128,-1,45
 333 779 333 779 321 709 c 128,-1,46
 309 639 309 639 309 540 c 0,47,48
 309 172 309 172 490 172 c 0,49,50
 524 172 524 172 559 190 c 128,-1,51
 594 208 594 208 621 251 c 128,-1,52
 648 294 648 294 665 366.5 c 128,-1,53
 682 439 682 439 682 547 c 0,37,38
EndSplineSet
EndChar

StartChar: e
Encoding: 101 101 72
Width: 934
GlyphClass: 2
Flags: W
LayerCount: 2
Fore
SplineSet
481 -20 m 0,0,1
 385 -20 385 -20 308 14.5 c 128,-1,2
 231 49 231 49 177 119.5 c 128,-1,3
 123 190 123 190 94.5 296.5 c 128,-1,4
 66 403 66 403 66 546 c 0,5,6
 66 701 66 701 100 807 c 128,-1,7
 134 913 134 913 191.5 978.5 c 128,-1,8
 249 1044 249 1044 324.5 1073 c 128,-1,9
 400 1102 400 1102 484 1102 c 0,10,11
 589 1102 589 1102 663 1057.5 c 128,-1,12
 737 1013 737 1013 784.5 933 c 128,-1,13
 832 853 832 853 854.5 741.5 c 128,-1,14
 877 630 877 630 877 495 c 2,15,-1
 877 487 l 1,16,-1
 308 487 l 1,17,18
 308 419 308 419 317.5 360.5 c 128,-1,19
 327 302 327 302 349 259.5 c 128,-1,20
 371 217 371 217 406.5 192.5 c 128,-1,21
 442 168 442 168 492 168 c 0,22,23
 553 168 553 168 591.5 199.5 c 128,-1,24
 630 231 630 231 646 297 c 1,25,-1
 863 274 l 1,26,27
 848 228 848 228 821.5 176 c 128,-1,28
 795 124 795 124 751 80.5 c 128,-1,29
 707 37 707 37 641 8.5 c 128,-1,30
 575 -20 575 -20 481 -20 c 0,0,1
481 925 m 0,31,32
 446 925 446 925 415 910.5 c 128,-1,33
 384 896 384 896 361.5 864.5 c 128,-1,34
 339 833 339 833 325 783 c 128,-1,35
 311 733 311 733 309 663 c 1,36,-1
 654 663 l 1,37,38
 647 794 647 794 602 859.5 c 128,-1,39
 557 925 557 925 481 925 c 0,31,32
EndSplineSet
EndChar

StartChar: f
Encoding: 102 102 73
Width: 559
GlyphClass: 2
Flags: W
LayerCount: 2
Fore
SplineSet
388 892 m 1,0,-1
 388 0 l 1,1,-1
 158 0 l 1,2,-1
 158 892 l 1,3,-1
 29 892 l 1,4,-1
 29 1082 l 1,5,-1
 158 1082 l 1,6,-1
 158 1195 l 2,7,8
 158 1257 158 1257 170.5 1309.5 c 128,-1,9
 183 1362 183 1362 212.5 1401 c 128,-1,10
 242 1440 242 1440 292 1462 c 128,-1,11
 342 1484 342 1484 416 1484 c 0,12,13
 455 1484 455 1484 493.5 1479 c 128,-1,14
 532 1474 532 1474 562 1468 c 1,15,-1
 562 1287 l 1,16,17
 547 1291 547 1291 529 1293.5 c 128,-1,18
 511 1296 511 1296 495 1296 c 0,19,20
 463 1296 463 1296 442 1288 c 128,-1,21
 421 1280 421 1280 409.5 1264 c 128,-1,22
 398 1248 398 1248 393 1223.5 c 128,-1,23
 388 1199 388 1199 388 1167 c 2,24,-1
 388 1082 l 1,25,-1
 562 1082 l 1,26,-1
 562 892 l 1,27,-1
 388 892 l 1,0,-1
EndSplineSet
EndChar

StartChar: g
Encoding: 103 103 74
Width: 1026
GlyphClass: 2
Flags: W
LayerCount: 2
Fore
SplineSet
489 -434 m 0,0,1
 401 -434 401 -434 334 -412.5 c 128,-1,2
 267 -391 267 -391 220 -352.5 c 128,-1,3
 173 -314 173 -314 144.5 -260.5 c 128,-1,4
 116 -207 116 -207 106 -143 c 1,5,-1
 336 -110 l 1,6,7
 348 -175 348 -175 389 -212 c 128,-1,8
 430 -249 430 -249 495 -249 c 0,9,10
 536 -249 536 -249 570 -235 c 128,-1,11
 604 -221 604 -221 628.5 -187.5 c 128,-1,12
 653 -154 653 -154 666.5 -99 c 128,-1,13
 680 -44 680 -44 680 37 c 2,14,15
 680 37 680 37 680 94 c 0,16,17
 680 123 680 123 681 147 c 0,18,19
 682 175 682 175 682 201 c 1,20,-1
 680 201 l 1,21,22
 640 96 640 96 567.5 49 c 128,-1,23
 495 2 495 2 394 2 c 0,24,25
 310 2 310 2 249 42.5 c 128,-1,26
 188 83 188 83 147.5 155.5 c 128,-1,27
 107 228 107 228 88 328.5 c 128,-1,28
 69 429 69 429 69 550 c 0,29,30
 69 675 69 675 89.5 776.5 c 128,-1,31
 110 878 110 878 152 951 c 128,-1,32
 194 1024 194 1024 258.5 1063.5 c 128,-1,33
 323 1103 323 1103 412 1103 c 256,34,35
 501 1103 501 1103 571 1057 c 128,-1,36
 641 1011 641 1011 680 908 c 1,37,-1
 684 908 l 1,38,39
 684 929 684 929 685 956.5 c 128,-1,40
 686 984 686 984 688 1009.5 c 128,-1,41
 690 1035 690 1035 692 1055 c 128,-1,42
 694 1075 694 1075 695 1082 c 1,43,-1
 914 1082 l 1,44,45
 912 1046 912 1046 910.5 981 c 128,-1,46
 909 916 909 916 909 832 c 2,47,-1
 909 33 l 2,48,49
 909 -85 909 -85 881 -172.5 c 128,-1,50
 853 -260 853 -260 799.5 -318 c 128,-1,51
 746 -376 746 -376 667.5 -405 c 128,-1,52
 589 -434 589 -434 489 -434 c 0,0,1
682 556 m 0,53,54
 682 658 682 658 665.5 726 c 128,-1,55
 649 794 649 794 622.5 835 c 128,-1,56
 596 876 596 876 562 893 c 128,-1,57
 528 910 528 910 494 910 c 0,58,59
 450 910 450 910 415.5 889 c 128,-1,60
 381 868 381 868 357.5 824 c 128,-1,61
 334 780 334 780 321.5 712 c 128,-1,62
 309 644 309 644 309 550 c 0,63,64
 309 375 309 375 355 286 c 128,-1,65
 401 197 401 197 492 197 c 0,66,67
 526 197 526 197 560.5 213.5 c 128,-1,68
 595 230 595 230 622 271.5 c 128,-1,69
 649 313 649 313 665.5 382 c 128,-1,70
 682 451 682 451 682 556 c 0,53,54
EndSplineSet
EndChar

StartChar: h
Encoding: 104 104 75
Width: 1026
GlyphClass: 2
Flags: W
LayerCount: 2
Fore
SplineSet
344 866 m 1,0,1
 391 990 391 990 461.5 1046 c 128,-1,2
 532 1102 532 1102 630 1102 c 0,3,4
 710 1102 710 1102 765.5 1070 c 128,-1,5
 821 1038 821 1038 856 982 c 128,-1,6
 891 926 891 926 906.5 850 c 128,-1,7
 922 774 922 774 922 686 c 2,8,-1
 922 0 l 1,9,-1
 692 0 l 1,10,-1
 692 606 l 2,11,12
 692 669 692 669 684 721.5 c 128,-1,13
 676 774 676 774 657 811.5 c 128,-1,14
 638 849 638 849 607.5 870 c 128,-1,15
 577 891 577 891 534 891 c 0,16,17
 492 891 492 891 458 868.5 c 128,-1,18
 424 846 424 846 399.5 804.5 c 128,-1,19
 375 763 375 763 361.5 705.5 c 128,-1,20
 348 648 348 648 348 579 c 2,21,-1
 348 0 l 1,22,-1
 117 0 l 1,23,-1
 117 1484 l 1,24,-1
 348 1484 l 1,25,-1
 348 1079 l 2,26,27
 348 1047 348 1047 347 1014.5 c 128,-1,28
 346 982 346 982 345 953.5 c 128,-1,29
 344 925 344 925 343 902 c 128,-1,30
 342 879 342 879 341 866 c 1,31,-1
 344 866 l 1,0,1
EndSplineSet
EndChar

StartChar: i
Encoding: 105 105 76
Width: 467
GlyphClass: 2
Flags: W
LayerCount: 2
Fore
SplineSet
117 1277 m 1,0,-1
 117 1484 l 1,1,-1
 348 1484 l 1,2,-1
 348 1277 l 1,3,-1
 117 1277 l 1,0,-1
117 0 m 1,4,-1
 117 1082 l 1,5,-1
 348 1082 l 1,6,-1
 348 0 l 1,7,-1
 117 0 l 1,4,-1
EndSplineSet
EndChar

StartChar: j
Encoding: 106 106 77
Width: 467
GlyphClass: 2
Flags: W
LayerCount: 2
Fore
SplineSet
118 1277 m 1,0,-1
 118 1484 l 1,1,-1
 349 1484 l 1,2,-1
 349 1277 l 1,3,-1
 118 1277 l 1,0,-1
113 -425 m 0,4,5
 67 -425 67 -425 33 -422.5 c 128,-1,6
 -1 -420 -1 -420 -26 -416 c 1,7,-1
 -26 -218 l 1,8,9
 -15 -220 -15 -220 -4.5 -221 c 128,-1,10
 6 -222 6 -222 16 -222 c 0,11,12
 48 -222 48 -222 67.5 -214 c 128,-1,13
 87 -206 87 -206 98.5 -187 c 128,-1,14
 110 -168 110 -168 114 -137 c 128,-1,15
 118 -106 118 -106 118 -60 c 2,16,-1
 118 1082 l 1,17,-1
 349 1082 l 1,18,-1
 349 -128 l 2,19,20
 349 -193 349 -193 336 -247 c 128,-1,21
 323 -301 323 -301 294.5 -341 c 128,-1,22
 266 -381 266 -381 221 -403 c 128,-1,23
 176 -425 176 -425 113 -425 c 0,4,5
EndSplineSet
EndChar

StartChar: k
Encoding: 107 107 78
Width: 934
GlyphClass: 2
Flags: W
LayerCount: 2
Fore
SplineSet
684 0 m 1,0,-1
 447 490 l 1,1,-1
 348 406 l 1,2,-1
 348 0 l 1,3,-1
 117 0 l 1,4,-1
 117 1484 l 1,5,-1
 348 1484 l 1,6,-1
 348 634 l 1,7,-1
 664 1082 l 1,8,-1
 912 1082 l 1,9,-1
 600 660 l 1,10,-1
 936 0 l 1,11,-1
 684 0 l 1,0,-1
EndSplineSet
EndChar

StartChar: l
Encoding: 108 108 79
Width: 467
GlyphClass: 2
Flags: W
LayerCount: 2
Fore
SplineSet
117 0 m 1,0,-1
 117 1484 l 1,1,-1
 348 1484 l 1,2,-1
 348 0 l 1,3,-1
 117 0 l 1,0,-1
EndSplineSet
EndChar

StartChar: m
Encoding: 109 109 80
Width: 1493
GlyphClass: 2
Flags: W
LayerCount: 2
Fore
SplineSet
640 0 m 1,0,-1
 640 607 l 2,1,2
 640 670 640 670 633 722.5 c 128,-1,3
 626 775 626 775 610 812.5 c 128,-1,4
 594 850 594 850 568 871 c 128,-1,5
 542 892 542 892 505 892 c 0,6,7
 470 892 470 892 441 869.5 c 128,-1,8
 412 847 412 847 391.5 805.5 c 128,-1,9
 371 764 371 764 359.5 706.5 c 128,-1,10
 348 649 348 649 348 580 c 2,11,-1
 348 0 l 1,12,-1
 117 0 l 1,13,-1
 117 840 l 2,14,15
 117 875 117 875 116.5 912 c 128,-1,16
 116 949 116 949 115 982.5 c 128,-1,17
 114 1016 114 1016 113 1042.5 c 128,-1,18
 112 1069 112 1069 111 1082 c 1,19,-1
 330 1082 l 1,20,21
 332 1070 332 1070 333.5 1043.5 c 128,-1,22
 335 1017 335 1017 337 985 c 128,-1,23
 339 953 339 953 340 921 c 128,-1,24
 341 889 341 889 341 867 c 1,25,-1
 344 867 l 1,26,27
 387 991 387 991 450.5 1047 c 128,-1,28
 514 1103 514 1103 603 1103 c 0,29,30
 705 1103 705 1103 766.5 1042.5 c 128,-1,31
 828 982 828 982 849 867 c 1,32,-1
 854 867 l 1,33,34
 878 934 878 934 905.5 979 c 128,-1,35
 933 1024 933 1024 966 1051.5 c 128,-1,36
 999 1079 999 1079 1038 1091 c 128,-1,37
 1077 1103 1077 1103 1123 1103 c 0,38,39
 1196 1103 1196 1103 1246.5 1071 c 128,-1,40
 1297 1039 1297 1039 1328.5 983 c 128,-1,41
 1360 927 1360 927 1374.5 851 c 128,-1,42
 1389 775 1389 775 1389 687 c 2,43,-1
 1389 0 l 1,44,-1
 1160 0 l 1,45,-1
 1160 607 l 2,46,47
 1160 670 1160 670 1153 722.5 c 128,-1,48
 1146 775 1146 775 1130 812.5 c 128,-1,49
 1114 850 1114 850 1088.5 871 c 128,-1,50
 1063 892 1063 892 1026 892 c 0,51,52
 992 892 992 892 963.5 870.5 c 128,-1,53
 935 849 935 849 914 809.5 c 128,-1,54
 893 770 893 770 881.5 715 c 128,-1,55
 870 660 870 660 868 593 c 1,56,-1
 868 0 l 1,57,-1
 640 0 l 1,0,-1
EndSplineSet
EndChar

StartChar: n
Encoding: 110 110 81
Width: 1026
GlyphClass: 2
Flags: W
LayerCount: 2
Fore
SplineSet
692 0 m 1,0,-1
 692 607 l 2,1,2
 692 670 692 670 684 722.5 c 128,-1,3
 676 775 676 775 657 812.5 c 128,-1,4
 638 850 638 850 607.5 871 c 128,-1,5
 577 892 577 892 534 892 c 0,6,7
 492 892 492 892 458 869.5 c 128,-1,8
 424 847 424 847 399.5 805.5 c 128,-1,9
 375 764 375 764 361.5 706.5 c 128,-1,10
 348 649 348 649 348 580 c 2,11,-1
 348 0 l 1,12,-1
 117 0 l 1,13,-1
 117 840 l 2,14,15
 117 875 117 875 116.5 912 c 128,-1,16
 116 949 116 949 115 982.5 c 128,-1,17
 114 1016 114 1016 113 1042.5 c 128,-1,18
 112 1069 112 1069 111 1082 c 1,19,-1
 331 1082 l 1,20,21
 333 1070 333 1070 334 1043.5 c 128,-1,22
 335 1017 335 1017 337 985 c 128,-1,23
 339 953 339 953 340 921 c 128,-1,24
 341 889 341 889 341 867 c 1,25,-1
 344 867 l 1,26,27
 391 991 391 991 461.5 1047 c 128,-1,28
 532 1103 532 1103 630 1103 c 0,29,30
 710 1103 710 1103 765.5 1071 c 128,-1,31
 821 1039 821 1039 856 983 c 128,-1,32
 891 927 891 927 906.5 851 c 128,-1,33
 922 775 922 775 922 687 c 2,34,-1
 922 0 l 1,35,-1
 692 0 l 1,0,-1
EndSplineSet
EndChar

StartChar: o
Encoding: 111 111 82
Width: 1026
GlyphClass: 2
Flags: W
LayerCount: 2
Fore
SplineSet
960 542 m 0,0,1
 960 418 960 418 932 315 c 128,-1,2
 904 212 904 212 847.5 137.5 c 128,-1,3
 791 63 791 63 706.5 21.5 c 128,-1,4
 622 -20 622 -20 509 -20 c 0,5,6
 401 -20 401 -20 318 21 c 128,-1,7
 235 62 235 62 179 136 c 128,-1,8
 123 210 123 210 94.5 313.5 c 128,-1,9
 66 417 66 417 66 542 c 0,10,11
 66 663 66 663 93.5 765.5 c 128,-1,12
 121 868 121 868 176.5 943 c 128,-1,13
 232 1018 232 1018 316.5 1060 c 128,-1,14
 401 1102 401 1102 514 1102 c 0,15,16
 634 1102 634 1102 718.5 1060 c 128,-1,17
 803 1018 803 1018 856.5 943.5 c 128,-1,18
 910 869 910 869 935 766.5 c 128,-1,19
 960 664 960 664 960 542 c 0,0,1
719 542 m 0,20,21
 719 735 719 735 667.5 822 c 128,-1,22
 616 909 616 909 518 909 c 0,23,24
 416 909 416 909 362 821 c 128,-1,25
 308 733 308 733 308 542 c 0,26,27
 308 445 308 445 322 375 c 128,-1,28
 336 305 336 305 362.5 260 c 128,-1,29
 389 215 389 215 426 193.5 c 128,-1,30
 463 172 463 172 507 172 c 0,31,32
 558 172 558 172 597.5 193.5 c 128,-1,33
 637 215 637 215 664 260 c 128,-1,34
 691 305 691 305 705 375 c 128,-1,35
 719 445 719 445 719 542 c 0,20,21
EndSplineSet
EndChar

StartChar: p
Encoding: 112 112 83
Width: 1026
GlyphClass: 2
Flags: W
LayerCount: 2
Fore
SplineSet
957 546 m 0,0,1
 957 423 957 423 937 319 c 128,-1,2
 917 215 917 215 875 140 c 128,-1,3
 833 65 833 65 768.5 22.5 c 128,-1,4
 704 -20 704 -20 617 -20 c 0,5,6
 578 -20 578 -20 538.5 -10 c 128,-1,7
 499 0 499 0 464 22.5 c 128,-1,8
 429 45 429 45 399 81.5 c 128,-1,9
 369 118 369 118 348 172 c 1,10,-1
 343 172 l 1,11,12
 344 167 344 167 344.5 147 c 128,-1,13
 345 127 345 127 346 100.5 c 128,-1,14
 347 74 347 74 347.5 44.5 c 128,-1,15
 348 15 348 15 348 -10 c 2,16,-1
 348 -425 l 1,17,-1
 117 -425 l 1,18,-1
 117 833 l 2,19,20
 117 916 117 916 115 981 c 128,-1,21
 113 1046 113 1046 111 1082 c 1,22,-1
 335 1082 l 1,23,24
 337 1075 337 1075 338.5 1055 c 128,-1,25
 340 1035 340 1035 341.5 1009 c 128,-1,26
 343 983 343 983 343.5 955 c 128,-1,27
 344 927 344 927 344 906 c 1,28,-1
 348 906 l 1,29,30
 390 1013 390 1013 463 1059 c 128,-1,31
 536 1105 536 1105 632 1105 c 0,32,33
 716 1105 716 1105 777.5 1063 c 128,-1,34
 839 1021 839 1021 879 947 c 128,-1,35
 919 873 919 873 938 770.5 c 128,-1,36
 957 668 957 668 957 546 c 0,0,1
717 546 m 0,37,38
 717 731 717 731 671 820.5 c 128,-1,39
 625 910 625 910 534 910 c 0,40,41
 500 910 500 910 465.5 892.5 c 128,-1,42
 431 875 431 875 404.5 832.5 c 128,-1,43
 378 790 378 790 361 718.5 c 128,-1,44
 344 647 344 647 344 538 c 0,45,46
 344 432 344 432 360.5 361.5 c 128,-1,47
 377 291 377 291 404 249 c 128,-1,48
 431 207 431 207 464.5 189.5 c 128,-1,49
 498 172 498 172 532 172 c 0,50,51
 576 172 576 172 610.5 193.5 c 128,-1,52
 645 215 645 215 668.5 260.5 c 128,-1,53
 692 306 692 306 704.5 377 c 128,-1,54
 717 448 717 448 717 546 c 0,37,38
EndSplineSet
EndChar

StartChar: q
Encoding: 113 113 84
Width: 1026
GlyphClass: 2
Flags: W
LayerCount: 2
Fore
SplineSet
69 540 m 0,0,1
 69 663 69 663 89.5 766.5 c 128,-1,2
 110 870 110 870 152 944.5 c 128,-1,3
 194 1019 194 1019 258.5 1061 c 128,-1,4
 323 1103 323 1103 412 1103 c 256,5,6
 501 1103 501 1103 571 1057 c 128,-1,7
 641 1011 641 1011 680 908 c 1,8,9
 680 929 680 929 681 956.5 c 128,-1,10
 682 984 682 984 684 1009.5 c 128,-1,11
 686 1035 686 1035 688.5 1055 c 128,-1,12
 691 1075 691 1075 692 1082 c 1,13,-1
 914 1082 l 1,14,15
 912 1046 912 1046 910.5 981 c 128,-1,16
 909 916 909 916 909 833 c 2,17,-1
 909 -425 l 1,18,-1
 680 -425 l 1,19,-1
 680 25 l 2,20,21
 680 53 680 53 681 80 c 128,-1,22
 682 107 682 107 682 130 c 2,23,24
 682 130 682 130 684 180 c 1,25,-1
 682 180 l 1,26,27
 642 75 642 75 567.5 27.5 c 128,-1,28
 493 -20 493 -20 393 -20 c 0,29,30
 309 -20 309 -20 248 22 c 128,-1,31
 187 64 187 64 147 139 c 128,-1,32
 107 214 107 214 88 316.5 c 128,-1,33
 69 419 69 419 69 540 c 0,0,1
682 546 m 256,34,35
 682 654 682 654 665.5 724 c 128,-1,36
 649 794 649 794 622.5 835.5 c 128,-1,37
 596 877 596 877 562 893.5 c 128,-1,38
 528 910 528 910 494 910 c 0,39,40
 450 910 450 910 415.5 889 c 128,-1,41
 381 868 381 868 357.5 823 c 128,-1,42
 334 778 334 778 321.5 708 c 128,-1,43
 309 638 309 638 309 540 c 0,44,45
 309 172 309 172 492 172 c 0,46,47
 526 172 526 172 560.5 190 c 128,-1,48
 595 208 595 208 622 251 c 128,-1,49
 649 294 649 294 665.5 366 c 128,-1,50
 682 438 682 438 682 546 c 256,34,35
EndSplineSet
EndChar

StartChar: r
Encoding: 114 114 85
Width: 653
GlyphClass: 2
Flags: W
LayerCount: 2
Fore
SplineSet
117 0 m 1,0,-1
 117 828 l 2,1,2
 117 863 117 863 116.5 902 c 128,-1,3
 116 941 116 941 115 976.5 c 128,-1,4
 114 1012 114 1012 113 1040.5 c 128,-1,5
 112 1069 112 1069 111 1082 c 1,6,-1
 330 1082 l 1,7,8
 332 1070 332 1070 333.5 1040.5 c 128,-1,9
 335 1011 335 1011 336 976 c 2,10,-1
 340 906 l 2,11,12
 341 872 341 872 341 851 c 1,13,-1
 344 851 l 1,14,15
 361 910 361 910 378.5 956.5 c 128,-1,16
 396 1003 396 1003 419 1035.5 c 128,-1,17
 442 1068 442 1068 475 1085.5 c 128,-1,18
 508 1103 508 1103 556 1103 c 0,19,20
 576 1103 576 1103 596.5 1098.5 c 128,-1,21
 617 1094 617 1094 628 1088 c 1,22,-1
 628 853 l 1,23,24
 606 859 606 859 583 863.5 c 128,-1,25
 560 868 560 868 529 868 c 0,26,27
 443 868 443 868 395 783 c 128,-1,28
 347 698 347 698 347 531 c 2,29,-1
 347 0 l 1,30,-1
 117 0 l 1,0,-1
EndSplineSet
EndChar

StartChar: s
Encoding: 115 115 86
Width: 934
GlyphClass: 2
Flags: W
LayerCount: 2
Fore
SplineSet
865 316 m 0,0,1
 865 238 865 238 838.5 176 c 128,-1,2
 812 114 812 114 761 70.5 c 128,-1,3
 710 27 710 27 636.5 3.5 c 128,-1,4
 563 -20 563 -20 468 -20 c 0,5,6
 384 -20 384 -20 316 -5 c 128,-1,7
 248 10 248 10 196.5 44.5 c 128,-1,8
 145 79 145 79 110.5 134 c 128,-1,9
 76 189 76 189 59 270 c 1,10,-1
 262 307 l 1,11,12
 272 262 272 262 289 234 c 128,-1,13
 306 206 306 206 331.5 191 c 128,-1,14
 357 176 357 176 391 171 c 128,-1,15
 425 166 425 166 468 166 c 0,16,17
 507 166 507 166 541.5 171.5 c 128,-1,18
 576 177 576 177 601 190.5 c 128,-1,19
 626 204 626 204 640 228.5 c 128,-1,20
 654 253 654 253 654 290 c 0,21,22
 654 332 654 332 633.5 356.5 c 128,-1,23
 613 381 613 381 578.5 396.5 c 128,-1,24
 544 412 544 412 496.5 423.5 c 128,-1,25
 449 435 449 435 396 450 c 0,26,27
 340 465 340 465 286 486 c 128,-1,28
 232 507 232 507 189.5 543 c 128,-1,29
 147 579 147 579 120.5 634.5 c 128,-1,30
 94 690 94 690 94 775 c 0,31,32
 94 852 94 852 119 912.5 c 128,-1,33
 144 973 144 973 191.5 1015.5 c 128,-1,34
 239 1058 239 1058 309 1080.5 c 128,-1,35
 379 1103 379 1103 470 1103 c 0,36,37
 542 1103 542 1103 604.5 1086.5 c 128,-1,38
 667 1070 667 1070 716 1034.5 c 128,-1,39
 765 999 765 999 798.5 944 c 128,-1,40
 832 889 832 889 845 811 c 1,41,-1
 640 785 l 1,42,43
 634 824 634 824 619.5 849.5 c 128,-1,44
 605 875 605 875 583.5 890 c 128,-1,45
 562 905 562 905 533 910.5 c 128,-1,46
 504 916 504 916 470 916 c 0,47,48
 388 916 388 916 347 890.5 c 128,-1,49
 306 865 306 865 306 805 c 0,50,51
 306 768 306 768 322.5 746 c 128,-1,52
 339 724 339 724 370 709.5 c 128,-1,53
 401 695 401 695 443 684.5 c 128,-1,54
 485 674 485 674 535 659 c 1,55,56
 597 643 597 643 656.5 621.5 c 128,-1,57
 716 600 716 600 762.5 562.5 c 128,-1,58
 809 525 809 525 837 466 c 128,-1,59
 865 407 865 407 865 316 c 0,0,1
EndSplineSet
EndChar

StartChar: t
Encoding: 116 116 87
Width: 559
GlyphClass: 2
Flags: W
LayerCount: 2
Fore
SplineSet
344 -18 m 0,0,1
 242 -18 242 -18 187.5 49.5 c 128,-1,2
 133 117 133 117 133 254 c 2,3,-1
 133 892 l 1,4,-1
 20 892 l 1,5,-1
 20 1082 l 1,6,-1
 144 1082 l 1,7,-1
 216 1336 l 1,8,-1
 361 1336 l 1,9,-1
 361 1082 l 1,10,-1
 529 1082 l 1,11,-1
 529 892 l 1,12,-1
 361 892 l 1,13,-1
 361 330 l 2,14,15
 361 251 361 251 385.5 213.5 c 128,-1,16
 410 176 410 176 461 176 c 0,17,18
 482 176 482 176 499.5 180 c 128,-1,19
 517 184 517 184 539 190 c 1,20,-1
 539 16 l 1,21,22
 496 -1 496 -1 448.5 -9.5 c 128,-1,23
 401 -18 401 -18 344 -18 c 0,0,1
EndSplineSet
EndChar

StartChar: u
Encoding: 117 117 88
Width: 1026
GlyphClass: 2
Flags: W
LayerCount: 2
Fore
SplineSet
335 1082 m 1,0,-1
 335 475 l 2,1,2
 335 412 335 412 343 359.5 c 128,-1,3
 351 307 351 307 370 269.5 c 128,-1,4
 389 232 389 232 419 211 c 128,-1,5
 449 190 449 190 492 190 c 0,6,7
 534 190 534 190 568 212.5 c 128,-1,8
 602 235 602 235 626.5 276.5 c 128,-1,9
 651 318 651 318 664.5 375.5 c 128,-1,10
 678 433 678 433 678 502 c 2,11,-1
 678 1082 l 1,12,-1
 909 1082 l 1,13,-1
 909 242 l 2,14,15
 909 208 909 208 909.5 170.5 c 128,-1,16
 910 133 910 133 911 99.5 c 128,-1,17
 912 66 912 66 913 39.5 c 128,-1,18
 914 13 914 13 915 0 c 1,19,-1
 695 0 l 1,20,21
 694 12 694 12 692.5 38.5 c 128,-1,22
 691 65 691 65 689.5 97 c 128,-1,23
 688 129 688 129 687 161 c 128,-1,24
 686 193 686 193 686 215 c 1,25,-1
 682 215 l 1,26,27
 636 92 636 92 565 36 c 128,-1,28
 494 -20 494 -20 396 -20 c 0,29,30
 316 -20 316 -20 260.5 12 c 128,-1,31
 205 44 205 44 170 99.5 c 128,-1,32
 135 155 135 155 119.5 231 c 128,-1,33
 104 307 104 307 104 395 c 2,34,-1
 104 1082 l 1,35,-1
 335 1082 l 1,0,-1
EndSplineSet
EndChar

StartChar: v
Encoding: 118 118 89
Width: 934
GlyphClass: 2
Flags: W
LayerCount: 2
Fore
SplineSet
599 0 m 1,0,-1
 324 0 l 1,1,-1
 7 1082 l 1,2,-1
 250 1082 l 1,3,-1
 405 477 l 1,4,5
 405 477 405 477 420 414 c 0,6,7
 429 380 429 380 436 347 c 2,8,-1
 451 283 l 2,9,10
 458 252 458 252 463 227 c 1,11,12
 468 251 468 251 476 282 c 2,13,-1
 491 345 l 1,14,-1
 508 411 l 1,15,-1
 524 474 l 1,16,-1
 686 1082 l 1,17,-1
 927 1082 l 1,18,-1
 599 0 l 1,0,-1
EndSplineSet
EndChar

StartChar: w
Encoding: 119 119 90
Width: 1307
GlyphClass: 2
Flags: W
LayerCount: 2
Fore
SplineSet
1077 0 m 1,0,-1
 834 0 l 1,1,-1
 692 660 l 2,2,3
 685 691 685 691 679 729.5 c 128,-1,4
 673 768 673 768 667 802 c 2,5,-1
 654 882 l 1,6,7
 647 842 647 842 639 802 c 0,8,9
 632 768 632 768 625 729 c 128,-1,10
 618 690 618 690 611 658 c 2,11,-1
 468 0 l 1,12,-1
 225 0 l 1,13,-1
 -5 1082 l 1,14,-1
 212 1082 l 1,15,-1
 324 446 l 2,16,17
 329 419 329 419 334 386 c 2,18,-1
 345 323 l 2,19,20
 351 289 351 289 358 255 c 1,21,22
 364 293 364 293 369 329 c 0,23,24
 374 360 374 360 380 392 c 2,25,-1
 390 446 l 1,26,-1
 529 1082 l 1,27,-1
 776 1082 l 1,28,-1
 912 446 l 2,29,30
 918 420 918 420 924 387 c 2,31,-1
 935 325 l 2,32,33
 941 291 941 291 946 255 c 1,34,35
 953 291 953 291 958 325 c 1,36,37
 958 325 958 325 969 387 c 2,38,-1
 980 446 l 1,39,-1
 1097 1082 l 1,40,-1
 1310 1082 l 1,41,-1
 1077 0 l 1,0,-1
EndSplineSet
EndChar

StartChar: x
Encoding: 120 120 91
Width: 934
GlyphClass: 2
Flags: W
LayerCount: 2
Fore
SplineSet
672 0 m 1,0,-1
 465 392 l 1,1,-1
 257 0 l 1,2,-1
 11 0 l 1,3,-1
 336 559 l 1,4,-1
 27 1082 l 1,5,-1
 276 1082 l 1,6,-1
 465 728 l 1,7,-1
 654 1082 l 1,8,-1
 904 1082 l 1,9,-1
 595 562 l 1,10,-1
 922 0 l 1,11,-1
 672 0 l 1,0,-1
EndSplineSet
EndChar

StartChar: y
Encoding: 121 121 92
Width: 934
GlyphClass: 2
Flags: W
LayerCount: 2
Fore
SplineSet
574 -57 m 1,0,1
 542 -152 542 -152 509 -221 c 128,-1,2
 476 -290 476 -290 436.5 -335.5 c 128,-1,3
 397 -381 397 -381 347.5 -403 c 128,-1,4
 298 -425 298 -425 232 -425 c 0,5,6
 196 -425 196 -425 158.5 -422 c 128,-1,7
 121 -419 121 -419 87 -412 c 1,8,-1
 87 -212 l 1,9,10
 103 -215 103 -215 126.5 -217.5 c 128,-1,11
 150 -220 150 -220 166 -220 c 0,12,13
 200 -220 200 -220 226.5 -211 c 128,-1,14
 253 -202 253 -202 274 -181 c 128,-1,15
 295 -160 295 -160 313.5 -125 c 128,-1,16
 332 -90 332 -90 349 -37 c 2,17,-1
 364 11 l 1,18,-1
 13 1082 l 1,19,-1
 257 1082 l 1,20,-1
 396 575 l 1,21,22
 396 575 396 575 406 538 c 2,23,-1
 422 478 l 1,24,-1
 440 408 l 1,25,-1
 457 338 l 2,26,27
 465 304 465 304 470.5 278 c 128,-1,28
 476 252 476 252 479 241 c 1,29,30
 481 252 481 252 486 278 c 2,31,-1
 499 336 l 1,32,-1
 514 404 l 1,33,-1
 530 473 l 1,34,-1
 543 532 l 2,35,36
 549 559 549 559 553 571 c 2,37,-1
 684 1082 l 1,38,-1
 925 1082 l 1,39,-1
 574 -57 l 1,0,1
EndSplineSet
EndChar

StartChar: z
Encoding: 122 122 93
Width: 840
GlyphClass: 2
Flags: W
LayerCount: 2
Fore
SplineSet
56 0 m 1,0,-1
 56 199 l 1,1,-1
 499 879 l 1,2,-1
 89 879 l 1,3,-1
 89 1082 l 1,4,-1
 753 1082 l 1,5,-1
 753 881 l 1,6,-1
 313 205 l 1,7,-1
 793 205 l 1,8,-1
 793 0 l 1,9,-1
 56 0 l 1,0,-1
EndSplineSet
EndChar

StartChar: braceleft
Encoding: 123 123 94
Width: 653
GlyphClass: 2
Flags: W
LayerCount: 2
Fore
SplineSet
456 -425 m 2,0,1
 399 -425 399 -425 355 -404 c 128,-1,2
 311 -383 311 -383 279 -344.5 c 128,-1,3
 247 -306 247 -306 231 -250.5 c 128,-1,4
 215 -195 215 -195 215 -126 c 2,5,-1
 215 202 l 2,6,7
 215 265 215 265 201.5 308.5 c 128,-1,8
 188 352 188 352 163.5 379 c 128,-1,9
 139 406 139 406 104.5 418 c 128,-1,10
 70 430 70 430 27 431 c 1,11,-1
 27 626 l 1,12,13
 70 628 70 628 105 640.5 c 128,-1,14
 140 653 140 653 164 680 c 128,-1,15
 188 707 188 707 201.5 750.5 c 128,-1,16
 215 794 215 794 215 857 c 2,17,-1
 215 1185 l 2,18,19
 215 1331 215 1331 279 1407.5 c 128,-1,20
 343 1484 343 1484 456 1484 c 2,21,-1
 618 1484 l 1,22,-1
 618 1294 l 1,23,-1
 570 1294 l 2,24,25
 495 1294 495 1294 462 1242 c 128,-1,26
 429 1190 429 1190 429 1085 c 2,27,-1
 429 784 l 2,28,29
 429 733 429 733 415.5 690.5 c 128,-1,30
 402 648 402 648 379 616 c 128,-1,31
 356 584 356 584 325 562.5 c 128,-1,32
 294 541 294 541 260 532 c 1,33,-1
 260 528 l 1,34,35
 295 518 295 518 326 496.5 c 128,-1,36
 357 475 357 475 380 442.5 c 128,-1,37
 403 410 403 410 416 368.5 c 128,-1,38
 429 327 429 327 429 276 c 2,39,-1
 429 -25 l 2,40,41
 429 -131 429 -131 462.5 -182.5 c 128,-1,42
 496 -234 496 -234 570 -234 c 2,43,-1
 618 -234 l 1,44,-1
 618 -425 l 1,45,-1
 456 -425 l 2,0,1
EndSplineSet
EndChar

StartChar: bar
Encoding: 124 124 95
Width: 471
GlyphClass: 2
Flags: W
LayerCount: 2
Fore
SplineSet
128 -455 m 1,0,-1
 128 1484 l 1,1,-1
 344 1484 l 1,2,-1
 344 -455 l 1,3,-1
 128 -455 l 1,0,-1
EndSplineSet
EndChar

StartChar: braceright
Encoding: 125 125 96
Width: 653
GlyphClass: 2
Flags: W
LayerCount: 2
Fore
SplineSet
35 -234 m 1,0,-1
 82 -234 l 2,1,2
 158 -234 158 -234 190.5 -182.5 c 128,-1,3
 223 -131 223 -131 223 -25 c 2,4,-1
 223 276 l 2,5,6
 223 327 223 327 236.5 368.5 c 128,-1,7
 250 410 250 410 273 442.5 c 128,-1,8
 296 475 296 475 326.5 496.5 c 128,-1,9
 357 518 357 518 392 528 c 1,10,-1
 392 532 l 1,11,12
 358 541 358 541 327.5 562.5 c 128,-1,13
 297 584 297 584 273.5 616 c 128,-1,14
 250 648 250 648 236.5 690.5 c 128,-1,15
 223 733 223 733 223 784 c 2,16,-1
 223 1085 l 2,17,18
 223 1190 223 1190 190.5 1242 c 128,-1,19
 158 1294 158 1294 82 1294 c 2,20,-1
 35 1294 l 1,21,-1
 35 1484 l 1,22,-1
 197 1484 l 2,23,24
 310 1484 310 1484 374 1407.5 c 128,-1,25
 438 1331 438 1331 438 1185 c 2,26,-1
 438 857 l 2,27,28
 438 794 438 794 451.5 750.5 c 128,-1,29
 465 707 465 707 490 680 c 128,-1,30
 515 653 515 653 549.5 640.5 c 128,-1,31
 584 628 584 628 628 626 c 1,32,-1
 628 431 l 1,33,34
 585 430 585 430 550 418 c 128,-1,35
 515 406 515 406 490 379 c 128,-1,36
 465 352 465 352 451.5 308.5 c 128,-1,37
 438 265 438 265 438 202 c 2,38,-1
 438 -126 l 2,39,40
 438 -195 438 -195 422 -250.5 c 128,-1,41
 406 -306 406 -306 374 -344.5 c 128,-1,42
 342 -383 342 -383 297.5 -404 c 128,-1,43
 253 -425 253 -425 197 -425 c 2,44,-1
 35 -425 l 1,45,-1
 35 -234 l 1,0,-1
EndSplineSet
EndChar

StartChar: asciitilde
Encoding: 126 126 97
Width: 981
GlyphClass: 2
Flags: W
LayerCount: 2
Fore
SplineSet
699 516 m 0,0,1
 637 516 637 516 577.5 537 c 128,-1,2
 518 558 518 558 457 584 c 0,3,4
 403 607 403 607 358 619 c 128,-1,5
 313 631 313 631 276 631 c 0,6,7
 244 631 244 631 216.5 625 c 128,-1,8
 189 619 189 619 164 607.5 c 128,-1,9
 139 596 139 596 115 580 c 128,-1,10
 91 564 91 564 66 543 c 1,11,-1
 66 756 l 1,12,13
 108 794 108 794 164 817 c 128,-1,14
 220 840 220 840 289 840 c 0,15,16
 323 840 323 840 356.5 833.5 c 128,-1,17
 390 827 390 827 422.5 816.5 c 128,-1,18
 455 806 455 806 487 792 c 2,19,-1
 550 766 l 2,20,21
 587 750 587 750 631 736.5 c 128,-1,22
 675 723 675 723 714 723 c 0,23,24
 770 723 770 723 822.5 748 c 128,-1,25
 875 773 875 773 918 815 c 1,26,-1
 918 596 l 1,27,28
 892 574 892 574 867 558.5 c 128,-1,29
 842 543 842 543 816 533.5 c 128,-1,30
 790 524 790 524 761.5 520 c 128,-1,31
 733 516 733 516 699 516 c 0,0,1
EndSplineSet
EndChar

StartChar: exclamdown
Encoding: 161 161 98
Width: 559
GlyphClass: 2
Flags: W
LayerCount: 2
Fore
SplineSet
164 812 m 1,0,-1
 164 1082 l 1,1,-1
 400 1082 l 1,2,-1
 400 812 l 1,3,-1
 164 812 l 1,0,-1
159 -327 m 1,4,-1
 185 654 l 1,5,-1
 374 654 l 1,6,-1
 400 -327 l 1,7,-1
 159 -327 l 1,4,-1
EndSplineSet
EndChar

StartChar: cent
Encoding: 162 162 99
Width: 934
GlyphClass: 2
Flags: W
HStem: 1389 20G<415 548>
VStem: 42 232<447.241 936.754> 415 133<-31 165.316 353.513 1030.91 1217.15 1409> 663 232<416.874 537.742 867.157 965.943>
LayerCount: 2
Fore
SplineSet
415 352.389 m 1,0,-1
 415 1032.48 l 1,1,2
 360.419 1011.44 360.419 1011.44 326.5 952 c 0,3,4
 274 860 274 860 274 691 c 0,5,6
 274 409.721 274 409.721 415 352.389 c 1,0,-1
548 353.513 m 1,7,8
 646.345 397.591 646.345 397.591 663 549 c 1,9,-1
 895 537 l 1,10,11
 868.082 304.834 868.082 304.834 687.5 205 c 0,12,13
 626 171 626 171 548 160 c 1,14,-1
 548 -31 l 1,15,-1
 415 -31 l 1,16,-1
 415 158 l 1,17,18
 232.167 179.625 232.167 179.625 134.5 323.5 c 0,19,20
 42 459.763 42 459.763 42 686 c 0,21,22
 42 919.368 42 919.368 139.5 1061 c 0,23,24
 235.762 1200.83 235.762 1200.83 415 1225 c 1,25,-1
 415 1409 l 1,26,-1
 548 1409 l 1,27,-1
 548 1225 l 1,28,29
 691.419 1205.62 691.419 1205.62 781.5 1106 c 0,30,31
 864.732 1013.96 864.732 1013.96 888 868 c 1,32,-1
 657 854 l 1,33,34
 637.57 990.01 637.57 990.01 548 1030.91 c 1,35,-1
 548 353.513 l 1,7,8
EndSplineSet
EndChar

StartChar: sterling
Encoding: 163 163 100
Width: 934
GlyphClass: 2
Flags: W
LayerCount: 2
Fore
SplineSet
917 363 m 1,0,1
 906 290 906 290 881.5 224 c 128,-1,2
 857 158 857 158 817 108.5 c 128,-1,3
 777 59 777 59 722 29.5 c 128,-1,4
 667 0 667 0 595 0 c 2,5,-1
 26 0 l 1,6,-1
 26 205 l 1,7,8
 58 227 58 227 85 253 c 128,-1,9
 112 279 112 279 131 314.5 c 128,-1,10
 150 350 150 350 160.5 398 c 128,-1,11
 171 446 171 446 171 512 c 2,12,-1
 171 604 l 1,13,-1
 17 604 l 1,14,-1
 17 774 l 1,15,-1
 163 774 l 1,16,-1
 163 1022 l 2,17,18
 163 1114 163 1114 183 1189.5 c 128,-1,19
 203 1265 203 1265 245 1318.5 c 128,-1,20
 287 1372 287 1372 353 1401 c 128,-1,21
 419 1430 419 1430 513 1430 c 0,22,23
 592 1430 592 1430 647.5 1409.5 c 128,-1,24
 703 1389 703 1389 742 1351 c 128,-1,25
 781 1313 781 1313 806 1259.5 c 128,-1,26
 831 1206 831 1206 846 1139 c 1,27,-1
 655 1092 l 1,28,29
 638 1169 638 1169 604.5 1204 c 128,-1,30
 571 1239 571 1239 517 1239 c 0,31,32
 442 1239 442 1239 409 1181.5 c 128,-1,33
 376 1124 376 1124 376 999 c 2,34,-1
 376 774 l 1,35,-1
 611 774 l 1,36,-1
 611 604 l 1,37,-1
 376 604 l 1,38,-1
 376 514 l 2,39,40
 376 455 376 455 366 408.5 c 128,-1,41
 356 362 356 362 337 325.5 c 128,-1,42
 318 289 318 289 290 261 c 128,-1,43
 262 233 262 233 227 209 c 1,44,-1
 539 209 l 2,45,46
 624 209 624 209 668 258.5 c 128,-1,47
 712 308 712 308 726 402 c 1,48,-1
 917 363 l 1,0,1
EndSplineSet
EndChar

StartChar: currency
Encoding: 164 164 101
Width: 934
GlyphClass: 2
Flags: W
LayerCount: 2
Fore
SplineSet
110 684 m 256,0,1
 110 744 110 744 122.5 800 c 128,-1,2
 135 856 135 856 159 905 c 1,3,-1
 50 1038 l 1,4,-1
 179 1194 l 1,5,-1
 286 1061 l 1,6,7
 325 1089 325 1089 371 1104.5 c 128,-1,8
 417 1120 417 1120 467 1120 c 0,9,10
 516 1120 516 1120 561.5 1105 c 128,-1,11
 607 1090 607 1090 646 1061 c 1,12,-1
 757 1196 l 1,13,-1
 886 1038 l 1,14,-1
 775 903 l 1,15,16
 799 855 799 855 811.5 799.5 c 128,-1,17
 824 744 824 744 824 684 c 256,18,19
 824 624 824 624 812 569.5 c 128,-1,20
 800 515 800 515 777 467 c 1,21,-1
 886 334 l 1,22,-1
 757 174 l 1,23,-1
 648 309 l 1,24,25
 566 250 566 250 467 250 c 0,26,27
 418 250 418 250 372 264.5 c 128,-1,28
 326 279 326 279 286 307 c 1,29,-1
 175 170 l 1,30,-1
 47 328 l 1,31,-1
 157 465 l 1,32,33
 134 513 134 513 122 568.5 c 128,-1,34
 110 624 110 624 110 684 c 256,0,1
295 686 m 256,35,36
 295 643 295 643 308.5 605 c 128,-1,37
 322 567 322 567 345.5 538.5 c 128,-1,38
 369 510 369 510 400 493.5 c 128,-1,39
 431 477 431 477 467 477 c 0,40,41
 502 477 502 477 532.5 493.5 c 128,-1,42
 563 510 563 510 586.5 538.5 c 128,-1,43
 610 567 610 567 623.5 605 c 128,-1,44
 637 643 637 643 637 686 c 256,45,46
 637 729 637 729 623.5 767 c 128,-1,47
 610 805 610 805 586.5 833.5 c 128,-1,48
 563 862 563 862 532.5 878.5 c 128,-1,49
 502 895 502 895 467 895 c 256,50,51
 432 895 432 895 400.5 878.5 c 128,-1,52
 369 862 369 862 345.5 833.5 c 128,-1,53
 322 805 322 805 308.5 767 c 128,-1,54
 295 729 295 729 295 686 c 256,35,36
EndSplineSet
EndChar

StartChar: yen
Encoding: 165 165 102
Width: 934
GlyphClass: 2
Flags: W
LayerCount: 2
Fore
SplineSet
628 691 m 1,0,-1
 854 691 l 1,1,-1
 854 545 l 1,2,-1
 577 545 l 1,3,-1
 577 383 l 1,4,-1
 854 383 l 1,5,-1
 854 236 l 1,6,-1
 577 236 l 1,7,-1
 577 0 l 1,8,-1
 354 0 l 1,9,-1
 354 236 l 1,10,-1
 79 236 l 1,11,-1
 79 383 l 1,12,-1
 354 383 l 1,13,-1
 356 545 l 1,14,-1
 79 545 l 1,15,-1
 79 691 l 1,16,-1
 305 691 l 1,17,-1
 7 1409 l 1,18,-1
 244 1409 l 1,19,-1
 465 813 l 1,20,-1
 690 1409 l 1,21,-1
 927 1409 l 1,22,-1
 628 691 l 1,0,-1
EndSplineSet
EndChar

StartChar: brokenbar
Encoding: 166 166 103
Width: 471
GlyphClass: 2
Flags: W
LayerCount: 2
Fore
SplineSet
128 676 m 1,0,-1
 128 1454 l 1,1,-1
 344 1454 l 1,2,-1
 344 676 l 1,3,-1
 128 676 l 1,0,-1
128 -455 m 1,4,-1
 128 324 l 1,5,-1
 344 324 l 1,6,-1
 344 -455 l 1,7,-1
 128 -455 l 1,4,-1
EndSplineSet
EndChar

StartChar: section
Encoding: 167 167 104
Width: 934
GlyphClass: 2
Flags: W
LayerCount: 2
Fore
SplineSet
472 1427 m 0,0,1
 543 1427 543 1427 605.5 1411.5 c 128,-1,2
 668 1396 668 1396 717.5 1363 c 128,-1,3
 767 1330 767 1330 800 1278 c 128,-1,4
 833 1226 833 1226 845 1153 c 1,5,-1
 649 1128 l 1,6,7
 643 1162 643 1162 627.5 1186.5 c 128,-1,8
 612 1211 612 1211 588.5 1226.5 c 128,-1,9
 565 1242 565 1242 535 1249.5 c 128,-1,10
 505 1257 505 1257 472 1257 c 0,11,12
 380 1257 380 1257 337 1227.5 c 128,-1,13
 294 1198 294 1198 294 1133 c 0,14,15
 294 1094 294 1094 312.5 1067.5 c 128,-1,16
 331 1041 331 1041 363 1022 c 128,-1,17
 395 1003 395 1003 437.5 989.5 c 128,-1,18
 480 976 480 976 526 963 c 0,19,20
 596 944 596 944 658 920 c 128,-1,21
 720 896 720 896 766 859 c 128,-1,22
 812 822 812 822 839 768 c 128,-1,23
 866 714 866 714 866 634 c 0,24,25
 866 590 866 590 855.5 549.5 c 128,-1,26
 845 509 845 509 824 474.5 c 128,-1,27
 803 440 803 440 773 413 c 128,-1,28
 743 386 743 386 704 371 c 1,29,30
 738 353 738 353 765.5 329 c 128,-1,31
 793 305 793 305 812.5 274.5 c 128,-1,32
 832 244 832 244 842.5 204.5 c 128,-1,33
 853 165 853 165 853 115 c 0,34,35
 853 37 853 37 829 -26.5 c 128,-1,36
 805 -90 805 -90 756 -135 c 128,-1,37
 707 -180 707 -180 632.5 -204.5 c 128,-1,38
 558 -229 558 -229 456 -229 c 0,39,40
 372 -229 372 -229 303.5 -214 c 128,-1,41
 235 -199 235 -199 182.5 -165 c 128,-1,42
 130 -131 130 -131 95.5 -76 c 128,-1,43
 61 -21 61 -21 43 59 c 1,44,-1
 238 96 l 1,45,46
 247 51 247 51 266 21 c 128,-1,47
 285 -9 285 -9 312.5 -27 c 128,-1,48
 340 -45 340 -45 376 -52 c 128,-1,49
 412 -59 412 -59 456 -59 c 0,50,51
 556 -59 556 -59 607.5 -26.5 c 128,-1,52
 659 6 659 6 659 86 c 0,53,54
 659 131 659 131 642 160 c 128,-1,55
 625 189 625 189 590.5 209.5 c 128,-1,56
 556 230 556 230 504.5 246.5 c 128,-1,57
 453 263 453 263 384 283 c 0,58,59
 332 298 332 298 277 320.5 c 128,-1,60
 222 343 222 343 177.5 379 c 128,-1,61
 133 415 133 415 104 468.5 c 128,-1,62
 75 522 75 522 75 600 c 0,63,64
 75 649 75 649 87 689 c 128,-1,65
 99 729 99 729 122 760.5 c 128,-1,66
 145 792 145 792 177.5 816 c 128,-1,67
 210 840 210 840 249 856 c 1,68,69
 218 872 218 872 190 896.5 c 128,-1,70
 162 921 162 921 141 953.5 c 128,-1,71
 120 986 120 986 107.5 1026 c 128,-1,72
 95 1066 95 1066 95 1114 c 0,73,74
 95 1263 95 1263 191.5 1345 c 128,-1,75
 288 1427 288 1427 472 1427 c 0,0,1
671 600 m 0,76,77
 671 639 671 639 658 666 c 128,-1,78
 645 693 645 693 615.5 713.5 c 128,-1,79
 586 734 586 734 540.5 749.5 c 128,-1,80
 495 765 495 765 431 780 c 1,81,82
 355 769 355 769 314 732.5 c 128,-1,83
 273 696 273 696 273 627 c 0,84,85
 273 588 273 588 292.5 561.5 c 128,-1,86
 312 535 312 535 345.5 516.5 c 128,-1,87
 379 498 379 498 422 484.5 c 128,-1,88
 465 471 465 471 511 458 c 1,89,90
 545 460 545 460 574.5 468.5 c 128,-1,91
 604 477 604 477 625 494 c 128,-1,92
 646 511 646 511 658.5 537 c 128,-1,93
 671 563 671 563 671 600 c 0,76,77
EndSplineSet
EndChar

StartChar: dieresis
Encoding: 168 168 105
Width: 559
GlyphClass: 2
Flags: W
LayerCount: 2
Fore
SplineSet
369 1199 m 1,0,-1
 369 1418 l 1,1,-1
 547 1418 l 1,2,-1
 547 1199 l 1,3,-1
 369 1199 l 1,0,-1
13 1199 m 1,4,-1
 13 1418 l 1,5,-1
 189 1418 l 1,6,-1
 189 1199 l 1,7,-1
 13 1199 l 1,4,-1
EndSplineSet
EndChar

StartChar: copyright
Encoding: 169 169 106
Width: 1237
GlyphClass: 2
Flags: W
LayerCount: 2
Fore
SplineSet
1212 707 m 0,0,1
 1212 607 1212 607 1190.5 514.5 c 128,-1,2
 1169 422 1169 422 1130.5 341.5 c 128,-1,3
 1092 261 1092 261 1038.5 195.5 c 128,-1,4
 985 130 985 130 919 83 c 128,-1,5
 853 36 853 36 777 10 c 128,-1,6
 701 -16 701 -16 619 -16 c 0,7,8
 538 -16 538 -16 462 10 c 128,-1,9
 386 36 386 36 320.5 83 c 128,-1,10
 255 130 255 130 200.5 195.5 c 128,-1,11
 146 261 146 261 107.5 341.5 c 128,-1,12
 69 422 69 422 47.5 514.5 c 128,-1,13
 26 607 26 607 26 707 c 256,14,15
 26 807 26 807 47.5 899 c 128,-1,16
 69 991 69 991 107.5 1071.5 c 128,-1,17
 146 1152 146 1152 200 1218 c 128,-1,18
 254 1284 254 1284 320 1331 c 128,-1,19
 386 1378 386 1378 461.5 1404 c 128,-1,20
 537 1430 537 1430 619 1430 c 0,21,22
 742 1430 742 1430 849.5 1373 c 128,-1,23
 957 1316 957 1316 1038 1218 c 128,-1,24
 1119 1120 1119 1120 1165.5 988.5 c 128,-1,25
 1212 857 1212 857 1212 707 c 0,0,1
1120 707 m 0,26,27
 1120 833 1120 833 1080.5 943.5 c 128,-1,28
 1041 1054 1041 1054 973 1136.5 c 128,-1,29
 905 1219 905 1219 814 1267 c 128,-1,30
 723 1315 723 1315 619 1315 c 0,31,32
 550 1315 550 1315 486.5 1293 c 128,-1,33
 423 1271 423 1271 367.5 1231.5 c 128,-1,34
 312 1192 312 1192 266.5 1136.5 c 128,-1,35
 221 1081 221 1081 188.5 1013.5 c 128,-1,36
 156 946 156 946 138 868.5 c 128,-1,37
 120 791 120 791 120 707 c 0,38,39
 120 580 120 580 159.5 469 c 128,-1,40
 199 358 199 358 266.5 275 c 128,-1,41
 334 192 334 192 425 144 c 128,-1,42
 516 96 516 96 619 96 c 0,43,44
 723 96 723 96 814 144 c 128,-1,45
 905 192 905 192 973 275 c 128,-1,46
 1041 358 1041 358 1080.5 469 c 128,-1,47
 1120 580 1120 580 1120 707 c 0,26,27
446 709 m 256,48,49
 446 647 446 647 457 595 c 128,-1,50
 468 543 468 543 491 505.5 c 128,-1,51
 514 468 514 468 548.5 447 c 128,-1,52
 583 426 583 426 630 426 c 0,53,54
 664 426 664 426 690 439 c 128,-1,55
 716 452 716 452 735.5 473 c 128,-1,56
 755 494 755 494 768.5 519.5 c 128,-1,57
 782 545 782 545 790 569 c 1,58,-1
 921 522 l 1,59,60
 905 479 905 479 881.5 436.5 c 128,-1,61
 858 394 858 394 823.5 360 c 128,-1,62
 789 326 789 326 741.5 305.5 c 128,-1,63
 694 285 694 285 630 285 c 0,64,65
 545 285 545 285 482.5 316.5 c 128,-1,66
 420 348 420 348 379 404.5 c 128,-1,67
 338 461 338 461 318 539 c 128,-1,68
 298 617 298 617 298 709 c 0,69,70
 298 805 298 805 318 882 c 128,-1,71
 338 959 338 959 378 1012.5 c 128,-1,72
 418 1066 418 1066 479 1095 c 128,-1,73
 540 1124 540 1124 622 1124 c 0,74,75
 686 1124 686 1124 733.5 1105.5 c 128,-1,76
 781 1087 781 1087 815 1055.5 c 128,-1,77
 849 1024 849 1024 872.5 982.5 c 128,-1,78
 896 941 896 941 912 895 c 1,79,-1
 784 854 l 1,80,81
 776 878 776 878 762.5 901 c 128,-1,82
 749 924 749 924 730 942.5 c 128,-1,83
 711 961 711 961 685.5 972 c 128,-1,84
 660 983 660 983 626 983 c 0,85,86
 578 983 578 983 544 963.5 c 128,-1,87
 510 944 510 944 488 908 c 128,-1,88
 466 872 466 872 456 821.5 c 128,-1,89
 446 771 446 771 446 709 c 256,48,49
EndSplineSet
EndChar

StartChar: ordfeminine
Encoding: 170 170 107
Width: 621
GlyphClass: 2
Flags: W
LayerCount: 2
Fore
SplineSet
211 725 m 0,0,1
 132 725 132 725 84.5 777.5 c 128,-1,2
 37 830 37 830 37 927 c 0,3,4
 37 987 37 987 56 1027 c 128,-1,5
 75 1067 75 1067 106.5 1091.5 c 128,-1,6
 138 1116 138 1116 180.5 1126.5 c 128,-1,7
 223 1137 223 1137 270 1138 c 2,8,-1
 390 1140 l 1,9,-1
 390 1182 l 2,10,11
 390 1217 390 1217 383.5 1240 c 128,-1,12
 377 1263 377 1263 365.5 1276.5 c 128,-1,13
 354 1290 354 1290 338.5 1295.5 c 128,-1,14
 323 1301 323 1301 305 1301 c 0,15,16
 288 1301 288 1301 272.5 1297 c 128,-1,17
 257 1293 257 1293 245 1282.5 c 128,-1,18
 233 1272 233 1272 224 1254 c 128,-1,19
 215 1236 215 1236 213 1207 c 1,20,-1
 57 1216 l 1,21,22
 64 1259 64 1259 81.5 1296 c 128,-1,23
 99 1333 99 1333 130 1360.5 c 128,-1,24
 161 1388 161 1388 204 1403.5 c 128,-1,25
 247 1419 247 1419 304 1419 c 0,26,27
 357 1419 357 1419 400 1405 c 128,-1,28
 443 1391 443 1391 474 1361.5 c 128,-1,29
 505 1332 505 1332 522 1288 c 128,-1,30
 539 1244 539 1244 539 1184 c 2,31,-1
 539 947 l 2,32,33
 539 899 539 899 546.5 874.5 c 128,-1,34
 554 850 554 850 581 850 c 0,35,36
 584 850 584 850 590 850.5 c 128,-1,37
 596 851 596 851 601.5 852 c 128,-1,38
 607 853 607 853 612.5 853.5 c 128,-1,39
 618 854 618 854 621 855 c 1,40,-1
 621 746 l 1,41,42
 597 738 597 738 571.5 733 c 128,-1,43
 546 728 546 728 524 728 c 0,44,45
 466 728 466 728 432.5 764.5 c 128,-1,46
 399 801 399 801 395 862 c 1,47,-1
 392 862 l 1,48,49
 364 797 364 797 319 761 c 128,-1,50
 274 725 274 725 211 725 c 0,0,1
269 856 m 0,51,52
 298 856 298 856 320 871 c 128,-1,53
 342 886 342 886 358 909 c 128,-1,54
 374 932 374 932 382 960.5 c 128,-1,55
 390 989 390 989 390 1017 c 2,56,-1
 390 1044 l 1,57,-1
 315 1042 l 2,58,59
 290 1041 290 1041 267.5 1037.5 c 128,-1,60
 245 1034 245 1034 228 1023.5 c 128,-1,61
 211 1013 211 1013 201.5 993.5 c 128,-1,62
 192 974 192 974 192 941 c 0,63,64
 192 900 192 900 211 878 c 128,-1,65
 230 856 230 856 269 856 c 0,51,52
EndSplineSet
EndChar

StartChar: guillemotleft
Encoding: 171 171 108
Width: 934
GlyphClass: 2
Flags: W
LayerCount: 2
Fore
SplineSet
662 141 m 1,0,-1
 452 502 l 1,1,-1
 452 573 l 1,2,-1
 662 940 l 1,3,-1
 857 940 l 1,4,-1
 857 903 l 1,5,-1
 649 537 l 1,6,-1
 859 176 l 1,7,-1
 859 141 l 1,8,-1
 662 141 l 1,0,-1
287 141 m 1,9,-1
 75 502 l 1,10,-1
 75 573 l 1,11,-1
 287 940 l 1,12,-1
 481 940 l 1,13,-1
 481 903 l 1,14,-1
 272 537 l 1,15,-1
 482 176 l 1,16,-1
 482 141 l 1,17,-1
 287 141 l 1,9,-1
EndSplineSet
EndChar

StartChar: logicalnot
Encoding: 172 172 109
Width: 981
GlyphClass: 2
Flags: W
LayerCount: 2
Fore
SplineSet
728 141 m 1,0,-1
 728 569 l 1,1,-1
 69 569 l 1,2,-1
 69 793 l 1,3,-1
 911 793 l 1,4,-1
 911 141 l 1,5,-1
 728 141 l 1,0,-1
EndSplineSet
EndChar

StartChar: registered
Encoding: 174 174 110
Width: 1237
GlyphClass: 2
Flags: W
LayerCount: 2
Fore
SplineSet
1212 707 m 0,0,1
 1212 607 1212 607 1190.5 514.5 c 128,-1,2
 1169 422 1169 422 1130.5 341.5 c 128,-1,3
 1092 261 1092 261 1038.5 195.5 c 128,-1,4
 985 130 985 130 919 83 c 128,-1,5
 853 36 853 36 777 10 c 128,-1,6
 701 -16 701 -16 619 -16 c 0,7,8
 538 -16 538 -16 462 10 c 128,-1,9
 386 36 386 36 320.5 83 c 128,-1,10
 255 130 255 130 200.5 195.5 c 128,-1,11
 146 261 146 261 107.5 341.5 c 128,-1,12
 69 422 69 422 47.5 514.5 c 128,-1,13
 26 607 26 607 26 707 c 256,14,15
 26 807 26 807 47.5 899 c 128,-1,16
 69 991 69 991 107.5 1071.5 c 128,-1,17
 146 1152 146 1152 200 1218 c 128,-1,18
 254 1284 254 1284 320 1331 c 128,-1,19
 386 1378 386 1378 461.5 1404 c 128,-1,20
 537 1430 537 1430 619 1430 c 0,21,22
 742 1430 742 1430 849.5 1373 c 128,-1,23
 957 1316 957 1316 1038 1218 c 128,-1,24
 1119 1120 1119 1120 1165.5 988.5 c 128,-1,25
 1212 857 1212 857 1212 707 c 0,0,1
1120 707 m 0,26,27
 1120 833 1120 833 1080.5 943.5 c 128,-1,28
 1041 1054 1041 1054 973 1136.5 c 128,-1,29
 905 1219 905 1219 814 1267 c 128,-1,30
 723 1315 723 1315 619 1315 c 0,31,32
 550 1315 550 1315 486.5 1293 c 128,-1,33
 423 1271 423 1271 367.5 1231.5 c 128,-1,34
 312 1192 312 1192 266.5 1136.5 c 128,-1,35
 221 1081 221 1081 188.5 1013.5 c 128,-1,36
 156 946 156 946 138 868.5 c 128,-1,37
 120 791 120 791 120 707 c 0,38,39
 120 580 120 580 159.5 469 c 128,-1,40
 199 358 199 358 266.5 275 c 128,-1,41
 334 192 334 192 425 144 c 128,-1,42
 516 96 516 96 619 96 c 0,43,44
 723 96 723 96 814 144 c 128,-1,45
 905 192 905 192 973 275 c 128,-1,46
 1041 358 1041 358 1080.5 469 c 128,-1,47
 1120 580 1120 580 1120 707 c 0,26,27
757 297 m 1,48,-1
 611 610 l 1,49,-1
 515 610 l 1,50,-1
 515 297 l 1,51,-1
 369 297 l 1,52,-1
 369 1112 l 1,53,-1
 639 1112 l 2,54,55
 764 1112 764 1112 826.5 1047.5 c 128,-1,56
 889 983 889 983 889 870 c 0,57,58
 889 776 889 776 850 717 c 128,-1,59
 811 658 811 658 747 633 c 1,60,-1
 921 297 l 1,61,-1
 757 297 l 1,48,-1
742 868 m 0,62,63
 742 925 742 925 711 955 c 128,-1,64
 680 985 680 985 624 985 c 2,65,-1
 515 985 l 1,66,-1
 515 739 l 1,67,-1
 633 739 l 2,68,69
 687 739 687 739 714.5 774.5 c 128,-1,70
 742 810 742 810 742 868 c 0,62,63
EndSplineSet
EndChar

StartChar: macron
Encoding: 175 175 111
Width: 559
GlyphClass: 2
Flags: W
LayerCount: 2
Fore
SplineSet
567 1452 m 1,0,-1
 -8 1452 l 1,1,-1
 -8 1546 l 1,2,-1
 567 1546 l 1,3,-1
 567 1452 l 1,0,-1
EndSplineSet
EndChar

StartChar: degree
Encoding: 176 176 112
Width: 819
GlyphClass: 2
Flags: W
LayerCount: 2
Fore
SplineSet
731 1110 m 0,0,1
 731 1044 731 1044 705.5 986.5 c 128,-1,2
 680 929 680 929 636.5 886.5 c 128,-1,3
 593 844 593 844 534.5 819.5 c 128,-1,4
 476 795 476 795 410 795 c 256,5,6
 344 795 344 795 285.5 819.5 c 128,-1,7
 227 844 227 844 183.5 886.5 c 128,-1,8
 140 929 140 929 115 986.5 c 128,-1,9
 90 1044 90 1044 90 1110 c 0,10,11
 90 1177 90 1177 115 1234.5 c 128,-1,12
 140 1292 140 1292 183.5 1334.5 c 128,-1,13
 227 1377 227 1377 285.5 1401 c 128,-1,14
 344 1425 344 1425 410 1425 c 256,15,16
 476 1425 476 1425 534.5 1401 c 128,-1,17
 593 1377 593 1377 636.5 1334.5 c 128,-1,18
 680 1292 680 1292 705.5 1234.5 c 128,-1,19
 731 1177 731 1177 731 1110 c 0,0,1
573 1110 m 0,20,21
 573 1145 573 1145 560.5 1175.5 c 128,-1,22
 548 1206 548 1206 526 1228.5 c 128,-1,23
 504 1251 504 1251 474.5 1263.5 c 128,-1,24
 445 1276 445 1276 410 1276 c 256,25,26
 375 1276 375 1276 345 1263.5 c 128,-1,27
 315 1251 315 1251 292.5 1228.5 c 128,-1,28
 270 1206 270 1206 257 1175.5 c 128,-1,29
 244 1145 244 1145 244 1110 c 0,30,31
 244 1076 244 1076 257 1045.5 c 128,-1,32
 270 1015 270 1015 292.5 992 c 128,-1,33
 315 969 315 969 345 955.5 c 128,-1,34
 375 942 375 942 410 942 c 256,35,36
 445 942 445 942 474.5 955.5 c 128,-1,37
 504 969 504 969 526 992 c 128,-1,38
 548 1015 548 1015 560.5 1045.5 c 128,-1,39
 573 1076 573 1076 573 1110 c 0,20,21
EndSplineSet
EndChar

StartChar: plusminus
Encoding: 177 177 113
Width: 1124
GlyphClass: 2
Flags: W
LayerCount: 2
Fore
SplineSet
674 707 m 1,0,-1
 674 366 l 1,1,-1
 450 366 l 1,2,-1
 450 707 l 1,3,-1
 49 707 l 1,4,-1
 49 930 l 1,5,-1
 450 930 l 1,6,-1
 450 1270 l 1,7,-1
 674 1270 l 1,8,-1
 674 930 l 1,9,-1
 1076 930 l 1,10,-1
 1076 707 l 1,11,-1
 674 707 l 1,0,-1
49 0 m 1,12,-1
 49 223 l 1,13,-1
 1076 223 l 1,14,-1
 1076 0 l 1,15,-1
 49 0 l 1,12,-1
EndSplineSet
EndChar

StartChar: uni00B2
Encoding: 178 178 114
Width: 559
GlyphClass: 2
Flags: W
LayerCount: 2
Fore
SplineSet
43 694 m 1,0,-1
 42 815 l 1,1,2
 62 868 62 868 93 908.5 c 128,-1,3
 124 949 124 949 158.5 981 c 128,-1,4
 193 1013 193 1013 227 1040 c 128,-1,5
 261 1067 261 1067 288.5 1092.5 c 128,-1,6
 316 1118 316 1118 333.5 1146 c 128,-1,7
 351 1174 351 1174 351 1208 c 0,8,9
 351 1250 351 1250 335 1274.5 c 128,-1,10
 319 1299 319 1299 284 1299 c 0,11,12
 214 1299 214 1299 207 1201 c 1,13,-1
 48 1206 l 1,14,15
 53 1252 53 1252 70.5 1292 c 128,-1,16
 88 1332 88 1332 117.5 1362 c 128,-1,17
 147 1392 147 1392 188.5 1409 c 128,-1,18
 230 1426 230 1426 284 1426 c 0,19,20
 342 1426 342 1426 385.5 1410 c 128,-1,21
 429 1394 429 1394 457 1366 c 128,-1,22
 485 1338 485 1338 499 1299.5 c 128,-1,23
 513 1261 513 1261 513 1216 c 0,24,25
 513 1163 513 1163 495 1123 c 128,-1,26
 477 1083 477 1083 449 1051 c 128,-1,27
 421 1019 421 1019 387 992 c 2,28,-1
 322 940 l 2,29,30
 290 915 290 915 264.5 889 c 128,-1,31
 239 863 239 863 227 832 c 1,32,-1
 524 832 l 1,33,-1
 524 694 l 1,34,-1
 43 694 l 1,0,-1
EndSplineSet
EndChar

StartChar: uni00B3
Encoding: 179 179 115
Width: 559
GlyphClass: 2
Flags: W
LayerCount: 2
Fore
SplineSet
523 895 m 0,0,1
 523 796 523 796 461.5 740 c 128,-1,2
 400 684 400 684 287 684 c 0,3,4
 218 684 218 684 171.5 702 c 128,-1,5
 125 720 125 720 96 749.5 c 128,-1,6
 67 779 67 779 53.5 816 c 128,-1,7
 40 853 40 853 36 892 c 1,8,-1
 191 904 l 1,9,10
 195 859 195 859 217.5 835 c 128,-1,11
 240 811 240 811 284 811 c 0,12,13
 324 811 324 811 346 834.5 c 128,-1,14
 368 858 368 858 368 907 c 0,15,16
 368 938 368 938 357 956.5 c 128,-1,17
 346 975 346 975 329 984.5 c 128,-1,18
 312 994 312 994 292 997 c 128,-1,19
 272 1000 272 1000 254 1000 c 2,20,-1
 208 1000 l 1,21,-1
 208 1126 l 1,22,-1
 250 1126 l 2,23,24
 269 1126 269 1126 287.5 1130 c 128,-1,25
 306 1134 306 1134 320.5 1144 c 128,-1,26
 335 1154 335 1154 344.5 1171.5 c 128,-1,27
 354 1189 354 1189 354 1216 c 0,28,29
 354 1255 354 1255 335 1277 c 128,-1,30
 316 1299 316 1299 281 1299 c 0,31,32
 247 1299 247 1299 226 1277 c 128,-1,33
 205 1255 205 1255 201 1210 c 1,34,-1
 48 1222 l 1,35,36
 53 1273 53 1273 73.5 1311.5 c 128,-1,37
 94 1350 94 1350 125.5 1375.5 c 128,-1,38
 157 1401 157 1401 198 1413.5 c 128,-1,39
 239 1426 239 1426 285 1426 c 0,40,41
 341 1426 341 1426 383 1411.5 c 128,-1,42
 425 1397 425 1397 452 1371.5 c 128,-1,43
 479 1346 479 1346 493 1311.5 c 128,-1,44
 507 1277 507 1277 507 1238 c 0,45,46
 507 1174 507 1174 477.5 1128.5 c 128,-1,47
 448 1083 448 1083 383 1067 c 1,48,-1
 383 1065 l 1,49,50
 420 1060 420 1060 446.5 1044.5 c 128,-1,51
 473 1029 473 1029 490 1006 c 128,-1,52
 507 983 507 983 515 954.5 c 128,-1,53
 523 926 523 926 523 895 c 0,0,1
EndSplineSet
EndChar

StartChar: acute
Encoding: 180 180 116
Width: 559
GlyphClass: 2
Flags: W
LayerCount: 2
Fore
SplineSet
71 1183 m 1,0,-1
 71 1214 l 1,1,-1
 278 1502 l 1,2,-1
 489 1502 l 1,3,-1
 489 1459 l 1,4,-1
 211 1183 l 1,5,-1
 71 1183 l 1,0,-1
EndSplineSet
EndChar

StartChar: uni00B5
Encoding: 181 181 117
Width: 1026
GlyphClass: 2
Flags: W
LayerCount: 2
Fore
SplineSet
686 0 m 1,0,1
 683 23 683 23 679 62 c 128,-1,2
 675 101 675 101 675 144 c 1,3,-1
 672 144 l 1,4,5
 655 95 655 95 636.5 63 c 128,-1,6
 618 31 618 31 597 12.5 c 128,-1,7
 576 -6 576 -6 550.5 -13 c 128,-1,8
 525 -20 525 -20 496 -20 c 0,9,10
 451 -20 451 -20 416 4 c 128,-1,11
 381 28 381 28 361 70 c 1,12,-1
 357 70 l 1,13,14
 360 38 360 38 360.5 10.5 c 128,-1,15
 361 -17 361 -17 361 -45 c 2,16,-1
 361 -426 l 1,17,-1
 117 -426 l 1,18,-1
 117 1082 l 1,19,-1
 361 1082 l 1,20,-1
 361 477 l 2,21,22
 361 413 361 413 368 361 c 128,-1,23
 375 309 375 309 392.5 271.5 c 128,-1,24
 410 234 410 234 439 213.5 c 128,-1,25
 468 193 468 193 513 193 c 0,26,27
 556 193 556 193 586 215.5 c 128,-1,28
 616 238 616 238 634 278.5 c 128,-1,29
 652 319 652 319 660 376.5 c 128,-1,30
 668 434 668 434 668 504 c 2,31,-1
 668 1082 l 1,32,-1
 912 1082 l 1,33,-1
 912 242 l 2,34,35
 912 208 912 208 912.5 171.5 c 128,-1,36
 913 135 913 135 914.5 101.5 c 128,-1,37
 916 68 916 68 917 41 c 128,-1,38
 918 14 918 14 919 0 c 1,39,-1
 686 0 l 1,0,1
EndSplineSet
EndChar

StartChar: paragraph
Encoding: 182 182 118
Width: 934
GlyphClass: 2
Flags: W
LayerCount: 2
Fore
SplineSet
771 1266 m 1,0,-1
 771 -264 l 1,1,-1
 643 -264 l 1,2,-1
 643 1266 l 1,3,-1
 483 1266 l 1,4,-1
 483 -264 l 1,5,-1
 356 -264 l 1,6,-1
 356 694 l 1,7,8
 290 694 290 694 235 716.5 c 128,-1,9
 180 739 180 739 141 783 c 128,-1,10
 102 827 102 827 80 894 c 128,-1,11
 58 961 58 961 58 1049 c 0,12,13
 58 1133 58 1133 78.5 1199.5 c 128,-1,14
 99 1266 99 1266 138 1312.5 c 128,-1,15
 177 1359 177 1359 233.5 1384 c 128,-1,16
 290 1409 290 1409 362 1409 c 2,17,-1
 878 1409 l 1,18,-1
 878 1266 l 1,19,-1
 771 1266 l 1,0,-1
EndSplineSet
EndChar

StartChar: periodcentered
Encoding: 183 183 119
AltUni2: 002219.ffffffff.0 002219.ffffffff.0 002219.ffffffff.0 002219.ffffffff.0
Width: 559
GlyphClass: 2
Flags: W
LayerCount: 2
Fore
SplineSet
139 531 m 1,0,-1
 139 836 l 1,1,-1
 421 836 l 1,2,-1
 421 531 l 1,3,-1
 139 531 l 1,0,-1
EndSplineSet
EndChar

StartChar: cedilla
Encoding: 184 184 120
Width: 559
GlyphClass: 2
Flags: W
LayerCount: 2
Fore
SplineSet
410 -235 m 0,0,1
 410 -274 410 -274 397 -309 c 128,-1,2
 384 -344 384 -344 355 -369.5 c 128,-1,3
 326 -395 326 -395 278.5 -410 c 128,-1,4
 231 -425 231 -425 161 -425 c 0,5,6
 124 -425 124 -425 79 -419 c 1,7,-1
 79 -301 l 1,8,9
 99 -306 99 -306 116.5 -307 c 128,-1,10
 134 -308 134 -308 148 -308 c 0,11,12
 209 -308 209 -308 234.5 -289.5 c 128,-1,13
 260 -271 260 -271 260 -239 c 0,14,15
 260 -204 260 -204 237 -187 c 128,-1,16
 214 -170 214 -170 160 -170 c 2,17,18
 160 -170 160 -170 139 -170 c 0,19,20
 129 -170 129 -170 117 -172 c 1,21,-1
 168 0 l 1,22,-1
 285 0 l 1,23,-1
 258 -82 l 1,24,25
 335 -87 335 -87 372.5 -128 c 128,-1,26
 410 -169 410 -169 410 -235 c 0,0,1
EndSplineSet
EndChar

StartChar: uni00B9
Encoding: 185 185 121
Width: 559
GlyphClass: 2
Flags: W
LayerCount: 2
Fore
SplineSet
67 694 m 1,0,-1
 67 815 l 1,1,-1
 218 815 l 1,2,-1
 218 1283 l 1,3,-1
 76 1175 l 1,4,-1
 76 1297 l 1,5,-1
 224 1414 l 1,6,-1
 367 1414 l 1,7,-1
 367 815 l 1,8,-1
 507 815 l 1,9,-1
 507 694 l 1,10,-1
 67 694 l 1,0,-1
EndSplineSet
EndChar

StartChar: ordmasculine
Encoding: 186 186 122
Width: 612
GlyphClass: 2
Flags: W
LayerCount: 2
Fore
SplineSet
583 1073 m 0,0,1
 583 996 583 996 565.5 932 c 128,-1,2
 548 868 548 868 513.5 822 c 128,-1,3
 479 776 479 776 427.5 750.5 c 128,-1,4
 376 725 376 725 307 725 c 0,5,6
 242 725 242 725 191.5 750.5 c 128,-1,7
 141 776 141 776 106.5 821.5 c 128,-1,8
 72 867 72 867 54.5 931 c 128,-1,9
 37 995 37 995 37 1073 c 0,10,11
 37 1148 37 1148 53.5 1211.5 c 128,-1,12
 70 1275 70 1275 104 1321 c 128,-1,13
 138 1367 138 1367 189.5 1393 c 128,-1,14
 241 1419 241 1419 310 1419 c 0,15,16
 382 1419 382 1419 434 1393 c 128,-1,17
 486 1367 486 1367 519 1321 c 128,-1,18
 552 1275 552 1275 567.5 1211.5 c 128,-1,19
 583 1148 583 1148 583 1073 c 0,0,1
420 1073 m 0,20,21
 420 1132 420 1132 413 1171 c 128,-1,22
 406 1210 406 1210 392.5 1233.5 c 128,-1,23
 379 1257 379 1257 359 1266.5 c 128,-1,24
 339 1276 339 1276 312 1276 c 256,25,26
 285 1276 285 1276 264 1266 c 128,-1,27
 243 1256 243 1256 228.5 1232.5 c 128,-1,28
 214 1209 214 1209 206.5 1170 c 128,-1,29
 199 1131 199 1131 199 1073 c 0,30,31
 199 1013 199 1013 206.5 973 c 128,-1,32
 214 933 214 933 228.5 909 c 128,-1,33
 243 885 243 885 262.5 875 c 128,-1,34
 282 865 282 865 306 865 c 0,35,36
 333 865 333 865 354.5 875 c 128,-1,37
 376 885 376 885 390 909 c 128,-1,38
 404 933 404 933 412 973 c 128,-1,39
 420 1013 420 1013 420 1073 c 0,20,21
EndSplineSet
EndChar

StartChar: guillemotright
Encoding: 187 187 123
Width: 934
GlyphClass: 2
Flags: W
LayerCount: 2
Fore
SplineSet
76 141 m 1,0,-1
 76 176 l 1,1,-1
 286 537 l 1,2,-1
 78 903 l 1,3,-1
 78 940 l 1,4,-1
 273 940 l 1,5,-1
 483 573 l 1,6,-1
 483 502 l 1,7,-1
 273 141 l 1,8,-1
 76 141 l 1,0,-1
453 141 m 1,9,-1
 453 176 l 1,10,-1
 663 537 l 1,11,-1
 454 903 l 1,12,-1
 454 940 l 1,13,-1
 648 940 l 1,14,-1
 859 573 l 1,15,-1
 859 502 l 1,16,-1
 648 141 l 1,17,-1
 453 141 l 1,9,-1
EndSplineSet
EndChar

StartChar: questiondown
Encoding: 191 191 127
Width: 1026
GlyphClass: 2
Flags: W
LayerCount: 2
Fore
SplineSet
94 56 m 0,0,1
 94 122 94 122 108 172 c 128,-1,2
 122 222 122 222 146 261.5 c 128,-1,3
 170 301 170 301 200 332.5 c 128,-1,4
 230 364 230 364 262 392 c 2,5,-1
 325 447 l 2,6,7
 356 474 356 474 380.5 504.5 c 128,-1,8
 405 535 405 535 420.5 571.5 c 128,-1,9
 436 608 436 608 438 656 c 1,10,-1
 657 656 l 1,11,12
 653 571 653 571 627 511 c 128,-1,13
 601 451 601 451 564 405.5 c 128,-1,14
 527 360 527 360 485.5 324.5 c 128,-1,15
 444 289 444 289 408 252 c 128,-1,16
 372 215 372 215 349 172 c 128,-1,17
 326 129 326 129 326 68 c 0,18,19
 326 -20 326 -20 373 -71 c 128,-1,20
 420 -122 420 -122 507 -122 c 0,21,22
 549 -122 549 -122 584 -106.5 c 128,-1,23
 619 -91 619 -91 646 -63 c 128,-1,24
 673 -35 673 -35 690 5 c 128,-1,25
 707 45 707 45 712 93 c 1,26,-1
 946 81 l 1,27,28
 936 -8 936 -8 905 -86 c 128,-1,29
 874 -164 874 -164 821 -222 c 128,-1,30
 768 -280 768 -280 690.5 -314 c 128,-1,31
 613 -348 613 -348 510 -348 c 0,32,33
 412 -348 412 -348 335 -320 c 128,-1,34
 258 -292 258 -292 204 -239.5 c 128,-1,35
 150 -187 150 -187 122 -112 c 128,-1,36
 94 -37 94 -37 94 56 c 0,0,1
664 1082 m 1,37,-1
 664 812 l 1,38,-1
 426 812 l 1,39,-1
 426 1082 l 1,40,-1
 664 1082 l 1,37,-1
EndSplineSet
EndChar

StartChar: AE
Encoding: 198 198 134
Width: 1679
GlyphClass: 2
Flags: W
LayerCount: 2
Fore
SplineSet
763 0 m 1,0,-1
 763 360 l 1,1,-1
 394 360 l 1,2,-1
 253 0 l 1,3,-1
 3 0 l 1,4,-1
 577 1409 l 1,5,-1
 1580 1409 l 1,6,-1
 1580 1182 l 1,7,-1
 1005 1182 l 1,8,-1
 1005 827 l 1,9,-1
 1529 827 l 1,10,-1
 1529 606 l 1,11,-1
 1005 606 l 1,12,-1
 1005 227 l 1,13,-1
 1613 227 l 1,14,-1
 1613 0 l 1,15,-1
 763 0 l 1,0,-1
763 1192 m 1,16,-1
 713 1192 l 1,17,18
 710 1183 710 1183 700 1155 c 2,19,-1
 676 1094 l 1,20,-1
 652 1029 l 2,21,22
 640 998 640 998 635 983 c 2,23,-1
 478 582 l 1,24,-1
 763 582 l 1,25,-1
 763 1192 l 1,16,-1
EndSplineSet
EndChar

StartChar: Eth
Encoding: 208 208 144
Width: 1212
GlyphClass: 2
Flags: W
LayerCount: 2
Fore
SplineSet
1142 715 m 0,0,1
 1142 539 1142 539 1098.5 405.5 c 128,-1,2
 1055 272 1055 272 979.5 182 c 128,-1,3
 904 92 904 92 801 46 c 128,-1,4
 698 0 698 0 579 0 c 2,5,-1
 112 0 l 1,6,-1
 112 594 l 1,7,-1
 7 594 l 1,8,-1
 7 813 l 1,9,-1
 112 813 l 1,10,-1
 112 1409 l 1,11,-1
 530 1409 l 2,12,13
 664 1409 664 1409 776.5 1368 c 128,-1,14
 889 1327 889 1327 970 1242 c 128,-1,15
 1051 1157 1051 1157 1096.5 1026 c 128,-1,16
 1142 895 1142 895 1142 715 c 0,0,1
898 715 m 0,17,18
 898 838 898 838 870.5 925.5 c 128,-1,19
 843 1013 843 1013 794 1069 c 128,-1,20
 745 1125 745 1125 676.5 1151.5 c 128,-1,21
 608 1178 608 1178 525 1178 c 2,22,-1
 354 1178 l 1,23,-1
 354 813 l 1,24,-1
 646 813 l 1,25,-1
 646 594 l 1,26,-1
 354 594 l 1,27,-1
 354 231 l 1,28,-1
 559 231 l 2,29,30
 632 231 632 231 694 261.5 c 128,-1,31
 756 292 756 292 801.5 353 c 128,-1,32
 847 414 847 414 872.5 504.5 c 128,-1,33
 898 595 898 595 898 715 c 0,17,18
EndSplineSet
EndChar

StartChar: multiply
Encoding: 215 215 151
Width: 981
GlyphClass: 2
Flags: W
LayerCount: 2
Fore
SplineSet
71 326 m 1,0,-1
 363 684 l 1,1,-1
 74 1036 l 1,2,-1
 203 1192 l 1,3,-1
 492 842 l 1,4,-1
 781 1194 l 1,5,-1
 910 1036 l 1,6,-1
 622 682 l 1,7,-1
 910 332 l 1,8,-1
 781 172 l 1,9,-1
 492 526 l 1,10,-1
 200 168 l 1,11,-1
 71 326 l 1,0,-1
EndSplineSet
EndChar

StartChar: Oslash
Encoding: 216 216 152
Width: 1307
GlyphClass: 2
Flags: W
LayerCount: 2
Fore
SplineSet
121 -73 m 1,0,-1
 247 145 l 1,1,2
 158 244 158 244 113.5 388.5 c 128,-1,3
 69 533 69 533 69 711 c 0,4,5
 69 876 69 876 107 1009 c 128,-1,6
 145 1142 145 1142 219.5 1235.5 c 128,-1,7
 294 1329 294 1329 402.5 1379.5 c 128,-1,8
 511 1430 511 1430 652 1430 c 0,9,10
 737 1430 737 1430 809.5 1410.5 c 128,-1,11
 882 1391 882 1391 943 1356 c 1,12,-1
 1010 1473 l 1,13,-1
 1168 1473 l 1,14,-1
 1052 1270 l 1,15,16
 1144 1176 1144 1176 1190.5 1033.5 c 128,-1,17
 1237 891 1237 891 1237 711 c 0,18,19
 1237 546 1237 546 1197 411 c 128,-1,20
 1157 276 1157 276 1081.5 180 c 128,-1,21
 1006 84 1006 84 897 32 c 128,-1,22
 788 -20 788 -20 651 -20 c 0,23,24
 477 -20 477 -20 355 57 c 1,25,-1
 281 -72 l 1,26,-1
 121 -73 l 1,0,-1
990 711 m 0,27,28
 990 811 990 811 972.5 893.5 c 128,-1,29
 955 976 955 976 920 1038 c 1,30,-1
 476 266 l 1,31,32
 511 240 511 240 555 225.5 c 128,-1,33
 599 211 599 211 651 211 c 0,34,35
 740 211 740 211 804 248.5 c 128,-1,36
 868 286 868 286 909.5 352.5 c 128,-1,37
 951 419 951 419 970.5 511 c 128,-1,38
 990 603 990 603 990 711 c 0,27,28
313 711 m 0,39,40
 313 612 313 612 329.5 528 c 128,-1,41
 346 444 346 444 382 379 c 1,42,-1
 824 1147 l 1,43,44
 787 1172 787 1172 745 1185 c 128,-1,45
 703 1198 703 1198 652 1198 c 0,46,47
 567 1198 567 1198 504 1163.5 c 128,-1,48
 441 1129 441 1129 398 1065 c 128,-1,49
 355 1001 355 1001 334 911.5 c 128,-1,50
 313 822 313 822 313 711 c 0,39,40
EndSplineSet
EndChar

StartChar: Thorn
Encoding: 222 222 158
Width: 1120
GlyphClass: 2
Flags: W
LayerCount: 2
Fore
SplineSet
1063 737 m 0,0,1
 1063 646 1063 646 1038 563.5 c 128,-1,2
 1013 481 1013 481 961 419 c 128,-1,3
 909 357 909 357 829.5 320 c 128,-1,4
 750 283 750 283 641 283 c 2,5,-1
 354 283 l 1,6,-1
 354 0 l 1,7,-1
 112 0 l 1,8,-1
 112 1409 l 1,9,-1
 354 1409 l 1,10,-1
 354 1176 l 1,11,-1
 631 1176 l 2,12,13
 742 1176 742 1176 823 1144.5 c 128,-1,14
 904 1113 904 1113 957.5 1055.5 c 128,-1,15
 1011 998 1011 998 1037 917 c 128,-1,16
 1063 836 1063 836 1063 737 c 0,0,1
819 733 m 0,17,18
 819 843 819 843 765.5 905 c 128,-1,19
 712 967 712 967 604 967 c 2,20,-1
 354 967 l 1,21,-1
 354 492 l 1,22,-1
 611 492 l 2,23,24
 665 492 665 492 704 510 c 128,-1,25
 743 528 743 528 768.5 560.5 c 128,-1,26
 794 593 794 593 806.5 637 c 128,-1,27
 819 681 819 681 819 733 c 0,17,18
EndSplineSet
EndChar

StartChar: germandbls
Encoding: 223 223 159
Width: 1026
GlyphClass: 2
Flags: W
LayerCount: 2
Fore
SplineSet
978 312 m 0,0,1
 978 239 978 239 960 178 c 128,-1,2
 942 117 942 117 903 73 c 128,-1,3
 864 29 864 29 804.5 4.5 c 128,-1,4
 745 -20 745 -20 661 -20 c 0,5,6
 603 -20 603 -20 550 -10 c 128,-1,7
 497 0 497 0 446 23 c 1,8,-1
 446 229 l 1,9,10
 466 218 466 218 490.5 207.5 c 128,-1,11
 515 197 515 197 540.5 188.5 c 128,-1,12
 566 180 566 180 591 175 c 128,-1,13
 616 170 616 170 636 170 c 0,14,15
 702 170 702 170 733 204.5 c 128,-1,16
 764 239 764 239 764 296 c 0,17,18
 764 342 764 342 743.5 376 c 128,-1,19
 723 410 723 410 692 439.5 c 128,-1,20
 661 469 661 469 625 497.5 c 128,-1,21
 589 526 589 526 558 562.5 c 128,-1,22
 527 599 527 599 506.5 646.5 c 128,-1,23
 486 694 486 694 486 760 c 0,24,25
 486 806 486 806 499.5 840.5 c 128,-1,26
 513 875 513 875 533.5 904 c 128,-1,27
 554 933 554 933 577.5 958 c 128,-1,28
 601 983 601 983 621.5 1009.5 c 128,-1,29
 642 1036 642 1036 655.5 1067 c 128,-1,30
 669 1098 669 1098 669 1138 c 0,31,32
 669 1203 669 1203 631 1242 c 128,-1,33
 593 1281 593 1281 521 1281 c 0,34,35
 437 1281 437 1281 392.5 1217.5 c 128,-1,36
 348 1154 348 1154 348 1013 c 2,37,-1
 348 0 l 1,38,-1
 117 0 l 1,39,-1
 117 1007 l 2,40,41
 117 1118 117 1118 141.5 1206.5 c 128,-1,42
 166 1295 166 1295 216.5 1356.5 c 128,-1,43
 267 1418 267 1418 343.5 1451 c 128,-1,44
 420 1484 420 1484 523 1484 c 0,45,46
 617 1484 617 1484 686 1457 c 128,-1,47
 755 1430 755 1430 799.5 1384.5 c 128,-1,48
 844 1339 844 1339 865.5 1278 c 128,-1,49
 887 1217 887 1217 887 1149 c 0,50,51
 887 1095 887 1095 873.5 1052.5 c 128,-1,52
 860 1010 860 1010 839.5 976 c 128,-1,53
 819 942 819 942 795 915 c 2,54,-1
 750 866 l 2,55,56
 730 843 730 843 716.5 822.5 c 128,-1,57
 703 802 703 802 703 782 c 0,58,59
 703 754 703 754 723.5 729.5 c 128,-1,60
 744 705 744 705 774 678 c 2,61,-1
 841 618 l 2,62,63
 877 585 877 585 907 542.5 c 128,-1,64
 937 500 937 500 957.5 443.5 c 128,-1,65
 978 387 978 387 978 312 c 0,0,1
EndSplineSet
EndChar

StartChar: ae
Encoding: 230 230 166
Width: 1493
GlyphClass: 2
Flags: W
LayerCount: 2
Fore
SplineSet
1027 -20 m 0,0,1
 903 -20 903 -20 813 36.5 c 128,-1,2
 723 93 723 93 671 209 c 1,3,4
 647 159 647 159 616 117 c 128,-1,5
 585 75 585 75 543.5 44.5 c 128,-1,6
 502 14 502 14 450 -3 c 128,-1,7
 398 -20 398 -20 333 -20 c 256,8,9
 268 -20 268 -20 216.5 1.5 c 128,-1,10
 165 23 165 23 129 64.5 c 128,-1,11
 93 106 93 106 73.5 167 c 128,-1,12
 54 228 54 228 54 306 c 0,13,14
 54 402 54 402 82.5 467 c 128,-1,15
 111 532 111 532 160 572.5 c 128,-1,16
 209 613 209 613 274.5 631.5 c 128,-1,17
 340 650 340 650 415 652 c 2,18,-1
 612 656 l 1,19,-1
 612 711 l 2,20,21
 612 770 612 770 603 809.5 c 128,-1,22
 594 849 594 849 576 874 c 128,-1,23
 558 899 558 899 532.5 909.5 c 128,-1,24
 507 920 507 920 474 920 c 0,25,26
 444 920 444 920 419.5 913 c 128,-1,27
 395 906 395 906 378 888.5 c 128,-1,28
 361 871 361 871 350 841.5 c 128,-1,29
 339 812 339 812 335 767 c 1,30,-1
 94 781 l 1,31,32
 104 852 104 852 130.5 910.5 c 128,-1,33
 157 969 157 969 204 1012 c 128,-1,34
 251 1055 251 1055 319 1078.5 c 128,-1,35
 387 1102 387 1102 480 1102 c 0,36,37
 658 1102 658 1102 753 995 c 1,38,39
 810 1052 810 1052 881 1077 c 128,-1,40
 952 1102 952 1102 1031 1102 c 0,41,42
 1136 1102 1136 1102 1210 1057.5 c 128,-1,43
 1284 1013 1284 1013 1331.5 933 c 128,-1,44
 1379 853 1379 853 1401 741.5 c 128,-1,45
 1423 630 1423 630 1423 495 c 2,46,-1
 1423 476 l 1,47,-1
 854 476 l 1,48,49
 854 411 854 411 865 354.5 c 128,-1,50
 876 298 876 298 898.5 256.5 c 128,-1,51
 921 215 921 215 955.5 191.5 c 128,-1,52
 990 168 990 168 1039 168 c 0,53,54
 1100 168 1100 168 1138.5 199.5 c 128,-1,55
 1177 231 1177 231 1193 297 c 1,56,-1
 1410 274 l 1,57,58
 1395 228 1395 228 1368.5 176 c 128,-1,59
 1342 124 1342 124 1298 80.5 c 128,-1,60
 1254 37 1254 37 1187.5 8.5 c 128,-1,61
 1121 -20 1121 -20 1027 -20 c 0,0,1
407 176 m 0,62,63
 454 176 454 176 491.5 200.5 c 128,-1,64
 529 225 529 225 556 264.5 c 128,-1,65
 583 304 583 304 597.5 354.5 c 128,-1,66
 612 405 612 405 612 456 c 2,67,-1
 612 501 l 1,68,-1
 487 499 l 1,69,70
 448 497 448 497 413 491.5 c 128,-1,71
 378 486 378 486 351.5 468.5 c 128,-1,72
 325 451 325 451 309.5 418 c 128,-1,73
 294 385 294 385 294 328 c 0,74,75
 294 251 294 251 325 213.5 c 128,-1,76
 356 176 356 176 407 176 c 0,62,63
1027 925 m 0,77,78
 992 925 992 925 961.5 910.5 c 128,-1,79
 931 896 931 896 908 864.5 c 128,-1,80
 885 833 885 833 871.5 783 c 128,-1,81
 858 733 858 733 856 663 c 1,82,-1
 1200 663 l 1,83,84
 1193 794 1193 794 1148 859.5 c 128,-1,85
 1103 925 1103 925 1027 925 c 0,77,78
EndSplineSet
EndChar

StartChar: eth
Encoding: 240 240 176
Width: 1026
GlyphClass: 2
Flags: W
LayerCount: 2
Fore
SplineSet
702 1266 m 1,0,1
 759 1196 759 1196 806.5 1115.5 c 128,-1,2
 854 1035 854 1035 888.5 944.5 c 128,-1,3
 923 854 923 854 941.5 753 c 128,-1,4
 960 652 960 652 960 541 c 2,5,-1
 960 537 l 2,6,7
 960 415 960 415 932.5 313 c 128,-1,8
 905 211 905 211 848.5 137.5 c 128,-1,9
 792 64 792 64 707.5 23 c 128,-1,10
 623 -18 623 -18 511 -18 c 0,11,12
 403 -18 403 -18 320 18.5 c 128,-1,13
 237 55 237 55 180.5 120.5 c 128,-1,14
 124 186 124 186 95 277.5 c 128,-1,15
 66 369 66 369 66 479 c 0,16,17
 66 586 66 586 93.5 676.5 c 128,-1,18
 121 767 121 767 176.5 833 c 128,-1,19
 232 899 232 899 316.5 936 c 128,-1,20
 401 973 401 973 514 973 c 0,21,22
 552 973 552 973 589 964.5 c 128,-1,23
 626 956 626 956 648 941 c 1,24,25
 620 1013 620 1013 591.5 1068 c 128,-1,26
 563 1123 563 1123 525 1176 c 1,27,-1
 285 1054 l 1,28,-1
 285 1238 l 1,29,-1
 422 1308 l 1,30,31
 375 1354 375 1354 320 1398 c 2,32,-1
 210 1484 l 1,33,-1
 450 1484 l 1,34,35
 483 1464 483 1464 516.5 1441 c 128,-1,36
 550 1418 550 1418 581 1390 c 1,37,-1
 801 1503 l 1,38,-1
 801 1315 l 1,39,-1
 702 1266 l 1,0,1
719 477 m 0,40,41
 719 637 719 637 667.5 708.5 c 128,-1,42
 616 780 616 780 518 780 c 0,43,44
 416 780 416 780 362 707 c 128,-1,45
 308 634 308 634 308 477 c 0,46,47
 308 397 308 397 322 339.5 c 128,-1,48
 336 282 336 282 362.5 244.5 c 128,-1,49
 389 207 389 207 426 189.5 c 128,-1,50
 463 172 463 172 507 172 c 0,51,52
 610 172 610 172 664.5 244 c 128,-1,53
 719 316 719 316 719 477 c 0,40,41
EndSplineSet
EndChar

StartChar: divide
Encoding: 247 247 183
Width: 1124
GlyphClass: 2
Flags: W
LayerCount: 2
Fore
SplineSet
442 961 m 1,0,-1
 442 1194 l 1,1,-1
 680 1194 l 1,2,-1
 680 961 l 1,3,-1
 442 961 l 1,0,-1
49 569 m 1,4,-1
 49 793 l 1,5,-1
 1076 793 l 1,6,-1
 1076 569 l 1,7,-1
 49 569 l 1,4,-1
442 170 m 1,8,-1
 442 403 l 1,9,-1
 680 403 l 1,10,-1
 680 170 l 1,11,-1
 442 170 l 1,8,-1
EndSplineSet
EndChar

StartChar: oslash
Encoding: 248 248 184
Width: 1026
GlyphClass: 2
Flags: W
LayerCount: 2
Fore
SplineSet
960 542 m 0,0,1
 960 418 960 418 932 315 c 128,-1,2
 904 212 904 212 847.5 137.5 c 128,-1,3
 791 63 791 63 706.5 21.5 c 128,-1,4
 622 -20 622 -20 509 -20 c 0,5,6
 428 -20 428 -20 362 3 c 128,-1,7
 296 26 296 26 244 69 c 1,8,-1
 151 -55 l 1,9,-1
 1 -55 l 1,10,-1
 162 160 l 1,11,12
 114 233 114 233 90 329.5 c 128,-1,13
 66 426 66 426 66 542 c 0,14,15
 66 663 66 663 93.5 765.5 c 128,-1,16
 121 868 121 868 176.5 943 c 128,-1,17
 232 1018 232 1018 316.5 1060 c 128,-1,18
 401 1102 401 1102 514 1102 c 0,19,20
 599 1102 599 1102 666 1080.5 c 128,-1,21
 733 1059 733 1059 785 1019 c 1,22,-1
 868 1133 l 1,23,-1
 1019 1133 l 1,24,-1
 868 927 l 1,25,26
 916 853 916 853 938 755 c 128,-1,27
 960 657 960 657 960 542 c 0,0,1
308 542 m 0,28,29
 308 450 308 450 322 379 c 1,30,-1
 655 840 l 1,31,32
 606 909 606 909 518 909 c 0,33,34
 416 909 416 909 362 821 c 128,-1,35
 308 733 308 733 308 542 c 0,28,29
719 542 m 0,36,37
 719 589 719 589 716 629.5 c 128,-1,38
 713 670 713 670 706 704 c 1,39,-1
 372 244 l 1,40,41
 398 207 398 207 432 189.5 c 128,-1,42
 466 172 466 172 507 172 c 0,43,44
 558 172 558 172 597.5 193.5 c 128,-1,45
 637 215 637 215 664 260 c 128,-1,46
 691 305 691 305 705 375 c 128,-1,47
 719 445 719 445 719 542 c 0,36,37
EndSplineSet
EndChar

StartChar: thorn
Encoding: 254 254 190
Width: 1026
GlyphClass: 2
Flags: W
LayerCount: 2
Fore
SplineSet
117 1484 m 1,0,-1
 348 1484 l 1,1,-1
 348 1022 l 2,2,3
 348 992 348 992 347.5 962 c 128,-1,4
 347 932 347 932 346 908 c 2,5,6
 346 908 346 908 344 854 c 1,7,-1
 348 854 l 1,8,9
 390 961 390 961 463 1007 c 128,-1,10
 536 1053 536 1053 632 1053 c 0,11,12
 716 1053 716 1053 777.5 1013 c 128,-1,13
 839 973 839 973 879 902 c 128,-1,14
 919 831 919 831 938 733.5 c 128,-1,15
 957 636 957 636 957 520 c 0,16,17
 957 403 957 403 937 304 c 128,-1,18
 917 205 917 205 875 133 c 128,-1,19
 833 61 833 61 768.5 20.5 c 128,-1,20
 704 -20 704 -20 617 -20 c 0,21,22
 578 -20 578 -20 538.5 -10 c 128,-1,23
 499 0 499 0 464 22.5 c 128,-1,24
 429 45 429 45 399 81.5 c 128,-1,25
 369 118 369 118 348 172 c 1,26,-1
 343 172 l 1,27,28
 344 167 344 167 344.5 147 c 128,-1,29
 345 127 345 127 346 100.5 c 128,-1,30
 347 74 347 74 347.5 44.5 c 128,-1,31
 348 15 348 15 348 -10 c 2,32,-1
 348 -425 l 1,33,-1
 117 -425 l 1,34,-1
 117 1484 l 1,0,-1
717 520 m 0,35,36
 717 692 717 692 671.5 775 c 128,-1,37
 626 858 626 858 534 858 c 0,38,39
 500 858 500 858 465.5 842 c 128,-1,40
 431 826 431 826 404.5 786.5 c 128,-1,41
 378 747 378 747 361 680 c 128,-1,42
 344 613 344 613 344 512 c 0,43,44
 344 413 344 413 360.5 347.5 c 128,-1,45
 377 282 377 282 404 243 c 128,-1,46
 431 204 431 204 464.5 188 c 128,-1,47
 498 172 498 172 532 172 c 0,48,49
 621 172 621 172 669 254.5 c 128,-1,50
 717 337 717 337 717 520 c 0,35,36
EndSplineSet
EndChar

StartChar: dcroat
Encoding: 273 273 209
Width: 1032
GlyphClass: 2
Flags: W
LayerCount: 2
Fore
SplineSet
682 1345 m 1,0,-1
 682 1484 l 1,1,-1
 915 1484 l 1,2,-1
 915 1345 l 1,3,-1
 1024 1345 l 1,4,-1
 1024 1175 l 1,5,-1
 915 1175 l 1,6,-1
 915 236 l 2,7,8
 915 157 915 157 917.5 95.5 c 128,-1,9
 920 34 920 34 921 0 c 1,10,-1
 697 0 l 1,11,12
 695 8 695 8 693 28.5 c 128,-1,13
 691 49 691 49 689 75 c 128,-1,14
 687 101 687 101 686 128 c 128,-1,15
 685 155 685 155 685 176 c 1,16,-1
 681 176 l 1,17,18
 641 71 641 71 568.5 25.5 c 128,-1,19
 496 -20 496 -20 395 -20 c 0,20,21
 311 -20 311 -20 249.5 20.5 c 128,-1,22
 188 61 188 61 148 133 c 128,-1,23
 108 205 108 205 88.5 304 c 128,-1,24
 69 403 69 403 69 521 c 0,25,26
 69 640 69 640 89.5 739.5 c 128,-1,27
 110 839 110 839 152 910.5 c 128,-1,28
 194 982 194 982 258.5 1022 c 128,-1,29
 323 1062 323 1062 412 1062 c 0,30,31
 456 1062 456 1062 496.5 1051 c 128,-1,32
 537 1040 537 1040 571.5 1017 c 128,-1,33
 606 994 606 994 634 958 c 128,-1,34
 662 922 662 922 682 871 c 1,35,-1
 684 871 l 1,36,37
 684 881 684 881 683.5 900.5 c 128,-1,38
 683 920 683 920 683 945 c 128,-1,39
 683 970 683 970 682.5 997 c 128,-1,40
 682 1024 682 1024 682 1049 c 2,41,-1
 682 1175 l 1,42,-1
 446 1175 l 1,43,-1
 446 1345 l 1,44,-1
 682 1345 l 1,0,-1
686 529 m 0,45,46
 686 633 686 633 669.5 699.5 c 128,-1,47
 653 766 653 766 626 805 c 128,-1,48
 599 844 599 844 564.5 859 c 128,-1,49
 530 874 530 874 495 874 c 0,50,51
 450 874 450 874 416 854.5 c 128,-1,52
 382 835 382 835 358.5 793 c 128,-1,53
 335 751 335 751 323 684 c 128,-1,54
 311 617 311 617 311 522 c 0,55,56
 311 172 311 172 493 172 c 0,57,58
 528 172 528 172 562.5 188.5 c 128,-1,59
 597 205 597 205 624.5 246 c 128,-1,60
 652 287 652 287 669 355.5 c 128,-1,61
 686 424 686 424 686 529 c 0,45,46
EndSplineSet
EndChar

StartChar: Hbar
Encoding: 294 294 230
Width: 1212
GlyphClass: 2
Flags: W
LayerCount: 2
Fore
SplineSet
866 0 m 1,0,-1
 866 604 l 1,1,-1
 354 604 l 1,2,-1
 354 0 l 1,3,-1
 112 0 l 1,4,-1
 112 1045 l 1,5,-1
 11 1045 l 1,6,-1
 11 1215 l 1,7,-1
 112 1215 l 1,8,-1
 112 1409 l 1,9,-1
 354 1409 l 1,10,-1
 354 1215 l 1,11,-1
 866 1215 l 1,12,-1
 866 1409 l 1,13,-1
 1099 1409 l 1,14,-1
 1099 1215 l 1,15,-1
 1201 1215 l 1,16,-1
 1201 1045 l 1,17,-1
 1099 1045 l 1,18,-1
 1099 0 l 1,19,-1
 866 0 l 1,0,-1
866 848 m 1,20,-1
 866 1045 l 1,21,-1
 354 1045 l 1,22,-1
 354 848 l 1,23,-1
 866 848 l 1,20,-1
EndSplineSet
EndChar

StartChar: hbar
Encoding: 295 295 231
Width: 1026
GlyphClass: 2
Flags: W
LayerCount: 2
Fore
SplineSet
344 826 m 1,0,1
 391 950 391 950 461.5 1006 c 128,-1,2
 532 1062 532 1062 630 1062 c 0,3,4
 710 1062 710 1062 765.5 1030 c 128,-1,5
 821 998 821 998 856 942 c 128,-1,6
 891 886 891 886 906.5 810 c 128,-1,7
 922 734 922 734 922 646 c 2,8,-1
 922 0 l 1,9,-1
 692 0 l 1,10,-1
 692 566 l 2,11,12
 692 629 692 629 684 681.5 c 128,-1,13
 676 734 676 734 657 771.5 c 128,-1,14
 638 809 638 809 607.5 830 c 128,-1,15
 577 851 577 851 534 851 c 0,16,17
 492 851 492 851 458 828.5 c 128,-1,18
 424 806 424 806 399.5 764.5 c 128,-1,19
 375 723 375 723 361.5 665.5 c 128,-1,20
 348 608 348 608 348 539 c 2,21,-1
 348 0 l 1,22,-1
 117 0 l 1,23,-1
 117 1175 l 1,24,-1
 8 1175 l 1,25,-1
 8 1345 l 1,26,-1
 117 1345 l 1,27,-1
 117 1484 l 1,28,-1
 348 1484 l 1,29,-1
 348 1345 l 1,30,-1
 599 1345 l 1,31,-1
 599 1175 l 1,32,-1
 348 1175 l 1,33,-1
 348 1039 l 2,34,35
 348 1007 348 1007 347 974.5 c 128,-1,36
 346 942 346 942 345 913.5 c 128,-1,37
 344 885 344 885 343 862 c 128,-1,38
 342 839 342 839 341 826 c 1,39,-1
 344 826 l 1,0,1
EndSplineSet
EndChar

StartChar: dotlessi
Encoding: 305 305 241
Width: 467
GlyphClass: 2
Flags: W
LayerCount: 2
Fore
SplineSet
119 0 m 1,0,-1
 119 1082 l 1,1,-1
 350 1082 l 1,2,-1
 350 0 l 1,3,-1
 119 0 l 1,0,-1
EndSplineSet
EndChar

StartChar: jcircumflex
Encoding: 309 309 245
Width: 467
GlyphClass: 2
Flags: W
LayerCount: 2
Fore
SplineSet
531 1211 m 1,0,-1
 531 1183 l 1,1,-1
 401 1183 l 1,2,-1
 234 1375 l 1,3,-1
 231 1375 l 1,4,-1
 57 1183 l 1,5,-1
 -74 1183 l 1,6,-1
 -74 1211 l 1,7,-1
 138 1529 l 1,8,-1
 326 1529 l 1,9,-1
 531 1211 l 1,0,-1
113 -425 m 0,10,11
 67 -425 67 -425 33 -422.5 c 128,-1,12
 -1 -420 -1 -420 -26 -416 c 1,13,-1
 -26 -218 l 1,14,15
 -15 -220 -15 -220 -4.5 -221 c 128,-1,16
 6 -222 6 -222 16 -222 c 0,17,18
 48 -222 48 -222 67.5 -214 c 128,-1,19
 87 -206 87 -206 98.5 -187 c 128,-1,20
 110 -168 110 -168 114 -137 c 128,-1,21
 118 -106 118 -106 118 -60 c 2,22,-1
 118 1082 l 1,23,-1
 349 1082 l 1,24,-1
 349 -128 l 2,25,26
 349 -193 349 -193 336 -247 c 128,-1,27
 323 -301 323 -301 294.5 -341 c 128,-1,28
 266 -381 266 -381 221 -403 c 128,-1,29
 176 -425 176 -425 113 -425 c 0,10,11
EndSplineSet
EndChar

StartChar: kgreenlandic
Encoding: 312 312 248
Width: 936
GlyphClass: 2
Flags: W
LayerCount: 2
Fore
SplineSet
685 0 m 1,0,-1
 448 490 l 1,1,-1
 348 406 l 1,2,-1
 348 0 l 1,3,-1
 118 0 l 1,4,-1
 118 1082 l 1,5,-1
 348 1082 l 1,6,-1
 348 634 l 1,7,-1
 666 1082 l 1,8,-1
 914 1082 l 1,9,-1
 602 660 l 1,10,-1
 938 0 l 1,11,-1
 685 0 l 1,0,-1
EndSplineSet
EndChar

StartChar: Lslash
Encoding: 321 321 257
Width: 1026
GlyphClass: 2
Flags: W
LayerCount: 2
Fore
SplineSet
112 0 m 1,0,-1
 112 483 l 1,1,-1
 0 418 l 1,2,-1
 0 643 l 1,3,-1
 112 709 l 1,4,-1
 112 1409 l 1,5,-1
 354 1409 l 1,6,-1
 354 850 l 1,7,-1
 606 997 l 1,8,-1
 606 774 l 1,9,-1
 354 627 l 1,10,-1
 354 231 l 1,11,-1
 974 231 l 1,12,-1
 974 0 l 1,13,-1
 112 0 l 1,0,-1
EndSplineSet
EndChar

StartChar: lslash
Encoding: 322 322 258
Width: 467
GlyphClass: 2
Flags: W
LayerCount: 2
Fore
SplineSet
348 717 m 1,0,-1
 348 0 l 1,1,-1
 117 0 l 1,2,-1
 117 561 l 1,3,-1
 15 492 l 1,4,-1
 15 707 l 1,5,-1
 117 776 l 1,6,-1
 117 1484 l 1,7,-1
 348 1484 l 1,8,-1
 348 932 l 1,9,-1
 454 1006 l 1,10,-1
 454 793 l 1,11,-1
 348 717 l 1,0,-1
EndSplineSet
EndChar

StartChar: Eng
Encoding: 330 330 266
Width: 1214
GlyphClass: 2
Flags: W
LayerCount: 2
Fore
SplineSet
741 -20 m 0,0,1
 680 -20 680 -20 633 -8.5 c 128,-1,2
 586 3 586 3 548.5 25.5 c 128,-1,3
 511 48 511 48 481.5 81.5 c 128,-1,4
 452 115 452 115 425 158 c 1,5,-1
 591 329 l 1,6,7
 605 307 605 307 620 286 c 128,-1,8
 635 265 635 265 653 248.5 c 128,-1,9
 671 232 671 232 692.5 222 c 128,-1,10
 714 212 714 212 739 212 c 0,11,12
 783 212 783 212 811 234.5 c 128,-1,13
 839 257 839 257 853.5 300 c 128,-1,14
 868 343 868 343 873 407 c 128,-1,15
 878 471 878 471 878 553 c 2,16,-1
 878 848 l 2,17,18
 878 942 878 942 865 1009 c 128,-1,19
 852 1076 852 1076 824.5 1118.5 c 128,-1,20
 797 1161 797 1161 754.5 1180.5 c 128,-1,21
 712 1200 712 1200 654 1200 c 0,22,23
 592 1200 592 1200 537 1170.5 c 128,-1,24
 482 1141 482 1141 441.5 1091.5 c 128,-1,25
 401 1042 401 1042 377.5 976.5 c 128,-1,26
 354 911 354 911 354 839 c 2,27,-1
 354 0 l 1,28,-1
 112 0 l 1,29,-1
 112 1092 l 2,30,31
 112 1129 112 1129 111.5 1175 c 128,-1,32
 111 1221 111 1221 111 1266 c 128,-1,33
 111 1311 111 1311 110.5 1349 c 128,-1,34
 110 1387 110 1387 109 1409 c 1,35,-1
 345 1409 l 1,36,37
 347 1387 347 1387 348.5 1355.5 c 128,-1,38
 350 1324 350 1324 351 1289.5 c 128,-1,39
 352 1255 352 1255 353 1220.5 c 128,-1,40
 354 1186 354 1186 354 1158 c 1,41,-1
 357 1158 l 1,42,43
 383 1220 383 1220 423 1270 c 128,-1,44
 463 1320 463 1320 513.5 1355 c 128,-1,45
 564 1390 564 1390 623.5 1409.5 c 128,-1,46
 683 1429 683 1429 749 1429 c 0,47,48
 845 1429 845 1429 914 1397 c 128,-1,49
 983 1365 983 1365 1026.5 1298.5 c 128,-1,50
 1070 1232 1070 1232 1090.5 1130 c 128,-1,51
 1111 1028 1111 1028 1111 889 c 2,52,-1
 1111 542 l 2,53,54
 1111 412 1111 412 1093.5 308 c 128,-1,55
 1076 204 1076 204 1034 131 c 128,-1,56
 992 58 992 58 920.5 19 c 128,-1,57
 849 -20 849 -20 741 -20 c 0,0,1
EndSplineSet
EndChar

StartChar: eng
Encoding: 331 331 267
Width: 1026
GlyphClass: 2
Flags: W
LayerCount: 2
Fore
SplineSet
686 -425 m 0,0,1
 640 -425 640 -425 606 -422.5 c 128,-1,2
 572 -420 572 -420 547 -416 c 1,3,-1
 547 -218 l 1,4,5
 558 -220 558 -220 568.5 -221 c 128,-1,6
 579 -222 579 -222 589 -222 c 0,7,8
 621 -222 621 -222 641 -214 c 128,-1,9
 661 -206 661 -206 672.5 -187 c 128,-1,10
 684 -168 684 -168 688 -137 c 128,-1,11
 692 -106 692 -106 692 -60 c 2,12,-1
 692 607 l 2,13,14
 692 670 692 670 684 722.5 c 128,-1,15
 676 775 676 775 657 812.5 c 128,-1,16
 638 850 638 850 607.5 871 c 128,-1,17
 577 892 577 892 534 892 c 0,18,19
 492 892 492 892 458 869.5 c 128,-1,20
 424 847 424 847 399.5 805.5 c 128,-1,21
 375 764 375 764 361.5 706.5 c 128,-1,22
 348 649 348 649 348 580 c 2,23,-1
 348 0 l 1,24,-1
 117 0 l 1,25,-1
 117 840 l 2,26,27
 117 875 117 875 116.5 912 c 128,-1,28
 116 949 116 949 115 982.5 c 128,-1,29
 114 1016 114 1016 113 1042.5 c 128,-1,30
 112 1069 112 1069 111 1082 c 1,31,-1
 331 1082 l 1,32,33
 333 1070 333 1070 334 1043.5 c 128,-1,34
 335 1017 335 1017 337 985 c 128,-1,35
 339 953 339 953 340 921 c 128,-1,36
 341 889 341 889 341 867 c 1,37,-1
 344 867 l 1,38,39
 391 991 391 991 461.5 1047 c 128,-1,40
 532 1103 532 1103 630 1103 c 0,41,42
 710 1103 710 1103 765.5 1071 c 128,-1,43
 821 1039 821 1039 856 983 c 128,-1,44
 891 927 891 927 906.5 851 c 128,-1,45
 922 775 922 775 922 687 c 2,46,-1
 922 -128 l 2,47,48
 922 -193 922 -193 909 -247 c 128,-1,49
 896 -301 896 -301 867.5 -341 c 128,-1,50
 839 -381 839 -381 794 -403 c 128,-1,51
 749 -425 749 -425 686 -425 c 0,0,1
EndSplineSet
EndChar

StartChar: OE
Encoding: 338 338 274
Width: 1679
GlyphClass: 2
Flags: W
LayerCount: 2
Fore
SplineSet
813 0 m 1,0,1
 782 -2 782 -2 738 -6 c 128,-1,2
 694 -10 694 -10 650 -10 c 0,3,4
 505 -10 505 -10 396.5 43 c 128,-1,5
 288 96 288 96 215 191.5 c 128,-1,6
 142 287 142 287 105.5 419.5 c 128,-1,7
 69 552 69 552 69 711 c 0,8,9
 69 876 69 876 107 1007.5 c 128,-1,10
 145 1139 145 1139 219.5 1230.5 c 128,-1,11
 294 1322 294 1322 402.5 1371 c 128,-1,12
 511 1420 511 1420 652 1420 c 0,13,14
 698 1420 698 1420 738.5 1416.5 c 128,-1,15
 779 1413 779 1413 818 1409 c 1,16,-1
 1580 1409 l 1,17,-1
 1580 1182 l 1,18,-1
 1033 1182 l 1,19,-1
 1033 827 l 1,20,-1
 1530 827 l 1,21,-1
 1530 606 l 1,22,-1
 1033 606 l 1,23,-1
 1033 227 l 1,24,-1
 1613 227 l 1,25,-1
 1613 0 l 1,26,-1
 813 0 l 1,0,1
789 1169 m 1,27,28
 764 1177 764 1177 726 1182.5 c 128,-1,29
 688 1188 688 1188 652 1188 c 0,30,31
 568 1188 568 1188 504 1155 c 128,-1,32
 440 1122 440 1122 397.5 1060 c 128,-1,33
 355 998 355 998 333.5 910 c 128,-1,34
 312 822 312 822 312 711 c 0,35,36
 312 601 312 601 334 511 c 128,-1,37
 356 421 356 421 399 356.5 c 128,-1,38
 442 292 442 292 505 257 c 128,-1,39
 568 222 568 222 650 222 c 0,40,41
 688 222 688 222 723 225 c 128,-1,42
 758 228 758 228 789 242 c 1,43,-1
 789 1169 l 1,27,28
EndSplineSet
EndChar

StartChar: oe
Encoding: 339 339 275
Width: 1585
GlyphClass: 2
Flags: W
LayerCount: 2
Fore
SplineSet
1135 -20 m 0,0,1
 1038 -20 1038 -20 962 19.5 c 128,-1,2
 886 59 886 59 832 139 c 1,3,4
 775 63 775 63 695 21.5 c 128,-1,5
 615 -20 615 -20 509 -20 c 0,6,7
 401 -20 401 -20 318 21 c 128,-1,8
 235 62 235 62 179 136 c 128,-1,9
 123 210 123 210 94.5 313.5 c 128,-1,10
 66 417 66 417 66 542 c 0,11,12
 66 663 66 663 93.5 765.5 c 128,-1,13
 121 868 121 868 176.5 943 c 128,-1,14
 232 1018 232 1018 316.5 1060 c 128,-1,15
 401 1102 401 1102 514 1102 c 0,16,17
 624 1102 624 1102 703.5 1062 c 128,-1,18
 783 1022 783 1022 837 949 c 1,19,20
 895 1030 895 1030 973 1066 c 128,-1,21
 1051 1102 1051 1102 1138 1102 c 0,22,23
 1243 1102 1243 1102 1317 1057.5 c 128,-1,24
 1391 1013 1391 1013 1439 933 c 128,-1,25
 1487 853 1487 853 1509 741.5 c 128,-1,26
 1531 630 1531 630 1531 495 c 2,27,-1
 1531 476 l 1,28,-1
 962 476 l 1,29,30
 962 411 962 411 972.5 354.5 c 128,-1,31
 983 298 983 298 1005.5 256.5 c 128,-1,32
 1028 215 1028 215 1063 191.5 c 128,-1,33
 1098 168 1098 168 1146 168 c 0,34,35
 1207 168 1207 168 1245.5 199.5 c 128,-1,36
 1284 231 1284 231 1300 297 c 1,37,-1
 1518 274 l 1,38,39
 1503 228 1503 228 1476.5 176 c 128,-1,40
 1450 124 1450 124 1405.5 80.5 c 128,-1,41
 1361 37 1361 37 1295 8.5 c 128,-1,42
 1229 -20 1229 -20 1135 -20 c 0,0,1
719 542 m 0,43,44
 719 735 719 735 667.5 822 c 128,-1,45
 616 909 616 909 517 909 c 0,46,47
 415 909 415 909 361 821 c 128,-1,48
 307 733 307 733 307 542 c 0,49,50
 307 445 307 445 321.5 375 c 128,-1,51
 336 305 336 305 362.5 260 c 128,-1,52
 389 215 389 215 425.5 193.5 c 128,-1,53
 462 172 462 172 507 172 c 0,54,55
 558 172 558 172 597.5 193.5 c 128,-1,56
 637 215 637 215 664 260 c 128,-1,57
 691 305 691 305 705 375 c 128,-1,58
 719 445 719 445 719 542 c 0,43,44
1135 925 m 0,59,60
 1100 925 1100 925 1069 910.5 c 128,-1,61
 1038 896 1038 896 1015.5 864.5 c 128,-1,62
 993 833 993 833 979 783 c 128,-1,63
 965 733 965 733 963 663 c 1,64,-1
 1308 663 l 1,65,66
 1301 794 1301 794 1256 859.5 c 128,-1,67
 1211 925 1211 925 1135 925 c 0,59,60
EndSplineSet
EndChar

StartChar: Tbar
Encoding: 358 358 294
Width: 1026
GlyphClass: 2
Flags: W
LayerCount: 2
Fore
SplineSet
634 1181 m 1,0,-1
 634 816 l 1,1,-1
 821 816 l 1,2,-1
 821 626 l 1,3,-1
 634 626 l 1,4,-1
 634 0 l 1,5,-1
 392 0 l 1,6,-1
 392 626 l 1,7,-1
 206 626 l 1,8,-1
 206 816 l 1,9,-1
 392 816 l 1,10,-1
 392 1181 l 1,11,-1
 19 1181 l 1,12,-1
 19 1409 l 1,13,-1
 1008 1409 l 1,14,-1
 1008 1181 l 1,15,-1
 634 1181 l 1,0,-1
EndSplineSet
EndChar

StartChar: tbar
Encoding: 359 359 295
Width: 559
GlyphClass: 2
Flags: W
LayerCount: 2
Fore
SplineSet
344 -18 m 0,0,1
 242 -18 242 -18 187.5 49.5 c 128,-1,2
 133 117 133 117 133 254 c 2,3,-1
 133 473 l 1,4,-1
 29 473 l 1,5,-1
 29 663 l 1,6,-1
 133 663 l 1,7,-1
 133 892 l 1,8,-1
 20 892 l 1,9,-1
 20 1082 l 1,10,-1
 144 1082 l 1,11,-1
 216 1336 l 1,12,-1
 361 1336 l 1,13,-1
 361 1082 l 1,14,-1
 529 1082 l 1,15,-1
 529 892 l 1,16,-1
 361 892 l 1,17,-1
 361 663 l 1,18,-1
 512 663 l 1,19,-1
 512 473 l 1,20,-1
 361 473 l 1,21,-1
 361 330 l 2,22,23
 361 251 361 251 385.5 213.5 c 128,-1,24
 410 176 410 176 461 176 c 0,25,26
 482 176 482 176 499.5 180 c 128,-1,27
 517 184 517 184 539 190 c 1,28,-1
 539 16 l 1,29,30
 496 -1 496 -1 448.5 -9.5 c 128,-1,31
 401 -18 401 -18 344 -18 c 0,0,1
EndSplineSet
EndChar

StartChar: longs
Encoding: 383 383 319
Width: 467
GlyphClass: 2
Flags: W
LayerCount: 2
Fore
SplineSet
117 1195 m 2,0,1
 117 1257 117 1257 129 1309.5 c 128,-1,2
 141 1362 141 1362 170.5 1401 c 128,-1,3
 200 1440 200 1440 250 1462 c 128,-1,4
 300 1484 300 1484 375 1484 c 0,5,6
 414 1484 414 1484 452.5 1479 c 128,-1,7
 491 1474 491 1474 521 1468 c 1,8,-1
 521 1287 l 1,9,10
 506 1291 506 1291 487.5 1293.5 c 128,-1,11
 469 1296 469 1296 454 1296 c 0,12,13
 422 1296 422 1296 401 1288 c 128,-1,14
 380 1280 380 1280 368 1264 c 128,-1,15
 356 1248 356 1248 351 1223.5 c 128,-1,16
 346 1199 346 1199 346 1167 c 2,17,-1
 346 0 l 1,18,-1
 117 0 l 1,19,-1
 117 1195 l 2,0,1
EndSplineSet
EndChar

StartChar: florin
Encoding: 402 402 320
Width: 934
GlyphClass: 2
Flags: W
LayerCount: 2
Fore
SplineSet
814 1247 m 1,0,1
 807 1250 807 1250 796 1253 c 128,-1,2
 785 1256 785 1256 773.5 1258.5 c 128,-1,3
 762 1261 762 1261 751 1262.5 c 128,-1,4
 740 1264 740 1264 731 1264 c 0,5,6
 678 1264 678 1264 654.5 1231 c 128,-1,7
 631 1198 631 1198 621 1137 c 2,8,-1
 604 1030 l 1,9,-1
 778 1030 l 1,10,-1
 749 840 l 1,11,-1
 574 840 l 1,12,-1
 368 -425 l 1,13,-1
 138 -425 l 1,14,-1
 344 840 l 1,15,-1
 214 840 l 1,16,-1
 244 1030 l 1,17,-1
 374 1030 l 1,18,-1
 396 1165 l 1,19,20
 405 1227 405 1227 425 1279.5 c 128,-1,21
 445 1332 445 1332 480.5 1371 c 128,-1,22
 516 1410 516 1410 569 1432 c 128,-1,23
 622 1454 622 1454 698 1454 c 0,24,25
 717 1454 717 1454 738 1451.5 c 128,-1,26
 759 1449 759 1449 779 1445 c 128,-1,27
 799 1441 799 1441 817 1435.5 c 128,-1,28
 835 1430 835 1430 847 1424 c 1,29,-1
 814 1247 l 1,0,1
EndSplineSet
EndChar

StartChar: circumflex
Encoding: 710 710 327
Width: 559
GlyphClass: 2
Flags: W
LayerCount: 2
Fore
SplineSet
604 1211 m 1,0,-1
 604 1183 l 1,1,-1
 474 1183 l 1,2,-1
 307 1375 l 1,3,-1
 304 1375 l 1,4,-1
 131 1183 l 1,5,-1
 0 1183 l 1,6,-1
 0 1211 l 1,7,-1
 211 1529 l 1,8,-1
 399 1529 l 1,9,-1
 604 1211 l 1,0,-1
EndSplineSet
EndChar

StartChar: caron
Encoding: 711 711 328
Width: 559
GlyphClass: 2
Flags: W
LayerCount: 2
Fore
SplineSet
399 1183 m 1,0,-1
 211 1183 l 1,1,-1
 0 1500 l 1,2,-1
 0 1529 l 1,3,-1
 131 1529 l 1,4,-1
 304 1336 l 1,5,-1
 307 1336 l 1,6,-1
 474 1529 l 1,7,-1
 604 1529 l 1,8,-1
 604 1500 l 1,9,-1
 399 1183 l 1,0,-1
EndSplineSet
EndChar

StartChar: uni02C9
Encoding: 713 713 329
Width: 1024
GlyphClass: 2
Flags: W
LayerCount: 2
Fore
SplineSet
54 1371 m 1,0,-1
 973 1371 l 1,1,-1
 973 1203 l 1,2,-1
 54 1203 l 1,3,-1
 54 1371 l 1,0,-1
EndSplineSet
EndChar

StartChar: breve
Encoding: 728 728 330
Width: 559
GlyphClass: 2
Flags: W
LayerCount: 2
Fore
SplineSet
242 1183 m 0,0,1
 176 1183 176 1183 124.5 1208.5 c 128,-1,2
 73 1234 73 1234 36.5 1278.5 c 128,-1,3
 0 1323 0 1323 -21.5 1381.5 c 128,-1,4
 -43 1440 -43 1440 -47 1506 c 1,5,-1
 87 1506 l 1,6,7
 94 1467 94 1467 108.5 1436 c 128,-1,8
 123 1405 123 1405 143.5 1384 c 128,-1,9
 164 1363 164 1363 190 1351.5 c 128,-1,10
 216 1340 216 1340 243 1340 c 0,11,12
 273 1340 273 1340 299 1351.5 c 128,-1,13
 325 1363 325 1363 345.5 1384 c 128,-1,14
 366 1405 366 1405 379.5 1436 c 128,-1,15
 393 1467 393 1467 399 1506 c 1,16,-1
 534 1506 l 1,17,18
 527 1440 527 1440 506 1381.5 c 128,-1,19
 485 1323 485 1323 449.5 1278.5 c 128,-1,20
 414 1234 414 1234 362.5 1208.5 c 128,-1,21
 311 1183 311 1183 242 1183 c 0,0,1
EndSplineSet
EndChar

StartChar: dotaccent
Encoding: 729 729 331
Width: 559
GlyphClass: 2
Flags: W
LayerCount: 2
Fore
SplineSet
164 1277 m 1,0,-1
 164 1484 l 1,1,-1
 394 1484 l 1,2,-1
 394 1277 l 1,3,-1
 164 1277 l 1,0,-1
EndSplineSet
EndChar

StartChar: ring
Encoding: 730 730 332
Width: 559
GlyphClass: 2
Flags: W
LayerCount: 2
Fore
SplineSet
448 1390 m 0,0,1
 448 1337 448 1337 432 1290.5 c 128,-1,2
 416 1244 416 1244 387.5 1209.5 c 128,-1,3
 359 1175 359 1175 321 1155.5 c 128,-1,4
 283 1136 283 1136 240 1136 c 256,5,6
 197 1136 197 1136 159 1155.5 c 128,-1,7
 121 1175 121 1175 93 1209.5 c 128,-1,8
 65 1244 65 1244 48.5 1290.5 c 128,-1,9
 32 1337 32 1337 32 1390 c 0,10,11
 32 1442 32 1442 48.5 1488.5 c 128,-1,12
 65 1535 65 1535 93 1569.5 c 128,-1,13
 121 1604 121 1604 159.5 1624 c 128,-1,14
 198 1644 198 1644 240 1644 c 0,15,16
 283 1644 283 1644 321 1624 c 128,-1,17
 359 1604 359 1604 387.5 1569.5 c 128,-1,18
 416 1535 416 1535 432 1488.5 c 128,-1,19
 448 1442 448 1442 448 1390 c 0,0,1
344 1390 m 0,20,21
 344 1416 344 1416 336 1438.5 c 128,-1,22
 328 1461 328 1461 314 1478 c 128,-1,23
 300 1495 300 1495 280.5 1505 c 128,-1,24
 261 1515 261 1515 240 1515 c 256,25,26
 219 1515 219 1515 200 1505 c 128,-1,27
 181 1495 181 1495 167 1478 c 128,-1,28
 153 1461 153 1461 145.5 1438.5 c 128,-1,29
 138 1416 138 1416 138 1390 c 0,30,31
 138 1363 138 1363 145.5 1339.5 c 128,-1,32
 153 1316 153 1316 167 1299 c 128,-1,33
 181 1282 181 1282 200 1272 c 128,-1,34
 219 1262 219 1262 240 1262 c 256,35,36
 261 1262 261 1262 280.5 1272 c 128,-1,37
 300 1282 300 1282 314 1299 c 128,-1,38
 328 1316 328 1316 336 1339.5 c 128,-1,39
 344 1363 344 1363 344 1390 c 0,20,21
EndSplineSet
EndChar

StartChar: ogonek
Encoding: 731 731 333
Width: 559
GlyphClass: 2
Flags: W
LayerCount: 2
Fore
SplineSet
257 -425 m 0,0,1
 215 -425 215 -425 179 -412.5 c 128,-1,2
 143 -400 143 -400 117.5 -374.5 c 128,-1,3
 92 -349 92 -349 77 -312 c 128,-1,4
 62 -275 62 -275 62 -225 c 0,5,6
 62 -177 62 -177 75.5 -136.5 c 128,-1,7
 89 -96 89 -96 108.5 -65 c 128,-1,8
 128 -34 128 -34 150.5 -12.5 c 128,-1,9
 173 9 173 9 192 21 c 1,10,-1
 317 21 l 1,11,12
 265 -21 265 -21 238 -78.5 c 128,-1,13
 211 -136 211 -136 211 -189 c 0,14,15
 211 -231 211 -231 231.5 -256.5 c 128,-1,16
 252 -282 252 -282 289 -282 c 0,17,18
 314 -282 314 -282 335.5 -275 c 128,-1,19
 357 -268 357 -268 380 -255 c 1,20,-1
 380 -392 l 1,21,22
 329 -425 329 -425 257 -425 c 0,0,1
EndSplineSet
EndChar

StartChar: tilde
Encoding: 732 732 334
Width: 559
GlyphClass: 2
Flags: W
LayerCount: 2
Fore
SplineSet
445 1183 m 0,0,1
 409 1183 409 1183 372.5 1202 c 128,-1,2
 336 1221 336 1221 302 1244 c 2,3,-1
 236 1287 l 2,4,5
 206 1306 206 1306 181 1306 c 0,6,7
 160 1306 160 1306 146 1297.5 c 128,-1,8
 132 1289 132 1289 123.5 1273 c 128,-1,9
 115 1257 115 1257 110 1234.5 c 128,-1,10
 105 1212 105 1212 101 1183 c 1,11,-1
 -11 1183 l 1,12,13
 -9 1228 -9 1228 -2.5 1279 c 128,-1,14
 4 1330 4 1330 23.5 1374 c 128,-1,15
 43 1418 43 1418 78 1447 c 128,-1,16
 113 1476 113 1476 173 1476 c 0,17,18
 210 1476 210 1476 247 1457 c 128,-1,19
 284 1438 284 1438 318 1414 c 1,20,-1
 382 1372 l 2,21,22
 412 1353 412 1353 436 1353 c 0,23,24
 456 1353 456 1353 470 1361.5 c 128,-1,25
 484 1370 484 1370 493 1386 c 128,-1,26
 502 1402 502 1402 507.5 1425 c 128,-1,27
 513 1448 513 1448 517 1476 c 1,28,-1
 628 1476 l 1,29,30
 626 1431 626 1431 619.5 1380 c 128,-1,31
 613 1329 613 1329 594 1285 c 128,-1,32
 575 1241 575 1241 540 1212 c 128,-1,33
 505 1183 505 1183 445 1183 c 0,0,1
EndSplineSet
EndChar

StartChar: hungarumlaut
Encoding: 733 733 335
Width: 559
GlyphClass: 2
Flags: W
LayerCount: 2
Fore
SplineSet
41 1184 m 1,0,-1
 -75 1184 l 1,1,-1
 -75 1218 l 1,2,-1
 109 1484 l 1,3,-1
 302 1484 l 1,4,-1
 302 1441 l 1,5,-1
 41 1184 l 1,0,-1
374 1184 m 1,6,-1
 257 1184 l 1,7,-1
 257 1218 l 1,8,-1
 442 1484 l 1,9,-1
 634 1484 l 1,10,-1
 634 1441 l 1,11,-1
 374 1184 l 1,6,-1
EndSplineSet
EndChar

StartChar: tonos
Encoding: 900 900 336
Width: 559
GlyphClass: 2
Flags: W
LayerCount: 2
Fore
SplineSet
152 1183 m 1,0,-1
 152 1216 l 1,1,-1
 208 1508 l 1,2,-1
 419 1508 l 1,3,-1
 419 1471 l 1,4,-1
 238 1183 l 1,5,-1
 152 1183 l 1,0,-1
EndSplineSet
EndChar

StartChar: dieresistonos
Encoding: 901 901 337
Width: 559
GlyphClass: 2
Flags: W
LayerCount: 2
Fore
SplineSet
212 1190 m 1,0,-1
 212 1223 l 1,1,-1
 247 1621 l 1,2,-1
 386 1621 l 1,3,-1
 386 1584 l 1,4,-1
 280 1190 l 1,5,-1
 212 1190 l 1,0,-1
65 1231 m 1,6,-1
 65 1453 l 1,7,-1
 182 1453 l 1,8,-1
 182 1231 l 1,9,-1
 65 1231 l 1,6,-1
377 1231 m 1,10,-1
 377 1453 l 1,11,-1
 494 1453 l 1,12,-1
 494 1231 l 1,13,-1
 377 1231 l 1,10,-1
EndSplineSet
EndChar

StartChar: Gamma
Encoding: 915 915 349
Width: 1010
GlyphClass: 2
Flags: W
LayerCount: 2
Fore
SplineSet
983 1409 m 1,0,-1
 983 1181 l 1,1,-1
 354 1181 l 1,2,-1
 354 1 l 1,3,-1
 112 1 l 1,4,-1
 112 1409 l 1,5,-1
 983 1409 l 1,0,-1
EndSplineSet
EndChar

StartChar: Delta
Encoding: 916 916 350
Width: 1206
GlyphClass: 2
Flags: W
LayerCount: 2
Fore
SplineSet
69 226 m 1,0,-1
 465 1409 l 1,1,-1
 747 1408 l 1,2,-1
 1137 226 l 1,3,-1
 1137 0 l 1,4,-1
 68 0 l 1,5,-1
 69 226 l 1,0,-1
890 244 m 1,6,-1
 672 942 l 1,7,8
 672 942 672 942 648 1024 c 2,9,-1
 626 1098 l 1,10,11
 617 1133 617 1133 611 1157.5 c 128,-1,12
 605 1182 605 1182 604 1189 c 1,13,14
 603 1182 603 1182 596 1157 c 2,15,-1
 581 1097 l 2,16,17
 572 1062 572 1062 560 1021 c 2,18,-1
 536 940 l 1,19,-1
 320 244 l 1,20,-1
 890 244 l 1,6,-1
EndSplineSet
EndChar

StartChar: Theta
Encoding: 920 920 354
Width: 1307
GlyphClass: 2
Flags: W
LayerCount: 2
Fore
SplineSet
412 827 m 1,0,-1
 893 827 l 1,1,-1
 893 599 l 1,2,-1
 412 599 l 1,3,-1
 412 827 l 1,0,-1
1236 711 m 0,4,5
 1236 546 1236 546 1196 411 c 128,-1,6
 1156 276 1156 276 1080.5 180 c 128,-1,7
 1005 84 1005 84 896.5 32 c 128,-1,8
 788 -20 788 -20 651 -20 c 0,9,10
 506 -20 506 -20 397 34.5 c 128,-1,11
 288 89 288 89 215 186.5 c 128,-1,12
 142 284 142 284 105.5 418 c 128,-1,13
 69 552 69 552 69 711 c 0,14,15
 69 876 69 876 107 1009 c 128,-1,16
 145 1142 145 1142 219.5 1235.5 c 128,-1,17
 294 1329 294 1329 402.5 1379.5 c 128,-1,18
 511 1430 511 1430 652 1430 c 256,19,20
 793 1430 793 1430 902 1379 c 128,-1,21
 1011 1328 1011 1328 1085 1234 c 128,-1,22
 1159 1140 1159 1140 1197.5 1007.5 c 128,-1,23
 1236 875 1236 875 1236 711 c 0,4,5
989 711 m 0,24,25
 989 822 989 822 967.5 911.5 c 128,-1,26
 946 1001 946 1001 903.5 1065 c 128,-1,27
 861 1129 861 1129 798 1163.5 c 128,-1,28
 735 1198 735 1198 652 1198 c 0,29,30
 567 1198 567 1198 504 1163.5 c 128,-1,31
 441 1129 441 1129 398 1065 c 128,-1,32
 355 1001 355 1001 334 911.5 c 128,-1,33
 313 822 313 822 313 711 c 0,34,35
 313 601 313 601 334.5 509.5 c 128,-1,36
 356 418 356 418 398.5 352 c 128,-1,37
 441 286 441 286 504.5 249 c 128,-1,38
 568 212 568 212 651 212 c 0,39,40
 740 212 740 212 803.5 249.5 c 128,-1,41
 867 287 867 287 908.5 353.5 c 128,-1,42
 950 420 950 420 969.5 511.5 c 128,-1,43
 989 603 989 603 989 711 c 0,24,25
EndSplineSet
EndChar

StartChar: Lambda
Encoding: 923 923 357
Width: 1120
GlyphClass: 2
Flags: W
LayerCount: 2
Fore
SplineSet
1109 1 m 1,0,-1
 858 1 l 1,1,-1
 621 886 l 1,2,3
 621 886 621 886 599 981 c 0,4,5
 588 1028 588 1028 580 1066 c 2,6,-1
 562 1152 l 1,7,8
 562 1152 562 1152 544 1064 c 1,9,10
 544 1064 544 1064 524 978 c 2,11,-1
 502 886 l 1,12,-1
 264 1 l 1,13,-1
 11 1 l 1,14,-1
 439 1410 l 1,15,-1
 684 1410 l 1,16,-1
 1109 1 l 1,0,-1
EndSplineSet
EndChar

StartChar: Xi
Encoding: 926 926 360
Width: 1081
GlyphClass: 2
Flags: W
LayerCount: 2
Fore
SplineSet
98 1409 m 1,0,-1
 984 1409 l 1,1,-1
 984 1181 l 1,2,-1
 98 1181 l 1,3,-1
 98 1409 l 1,0,-1
1013 228 m 1,4,-1
 1013 0 l 1,5,-1
 69 0 l 1,6,-1
 69 228 l 1,7,-1
 1013 228 l 1,4,-1
886 827 m 5,8,-1
 886 599 l 5,9,-1
 196 599 l 5,10,-1
 196 827 l 5,11,-1
 886 827 l 5,8,-1
EndSplineSet
EndChar

StartChar: Pi
Encoding: 928 928 362
Width: 1212
GlyphClass: 2
Flags: W
LayerCount: 2
Fore
SplineSet
865 0 m 1,0,-1
 865 1165 l 1,1,-1
 353 1165 l 1,2,-1
 353 0 l 1,3,-1
 112 0 l 1,4,-1
 112 1409 l 1,5,-1
 1099 1409 l 1,6,-1
 1099 0 l 1,7,-1
 865 0 l 1,0,-1
EndSplineSet
EndChar

StartChar: Sigma
Encoding: 931 931 364
Width: 1008
GlyphClass: 2
Flags: W
LayerCount: 2
Fore
SplineSet
74 0 m 1,0,-1
 74 234 l 1,1,-1
 441 741 l 1,2,-1
 88 1176 l 1,3,-1
 88 1409 l 1,4,-1
 907 1409 l 1,5,-1
 907 1181 l 1,6,-1
 335 1181 l 1,7,-1
 640 808 l 1,8,-1
 640 674 l 1,9,-1
 317 228 l 1,10,-1
 957 228 l 1,11,-1
 957 0 l 1,12,-1
 74 0 l 1,0,-1
EndSplineSet
EndChar

StartChar: Phi
Encoding: 934 934 367
Width: 1374
GlyphClass: 2
Flags: W
LayerCount: 2
Fore
SplineSet
1081 730 m 0,0,1
 1081 882 1081 882 1016 967 c 128,-1,2
 951 1052 951 1052 817 1052 c 2,3,-1
 801 1052 l 1,4,-1
 801 397 l 1,5,-1
 822 397 l 2,6,7
 891 397 891 397 939.5 422 c 128,-1,8
 988 447 988 447 1019.5 491.5 c 128,-1,9
 1051 536 1051 536 1066 597 c 128,-1,10
 1081 658 1081 658 1081 730 c 0,0,1
574 -11 m 1,11,-1
 574 188 l 1,12,-1
 530 188 l 2,13,14
 409 188 409 188 319 232 c 128,-1,15
 229 276 229 276 169.5 351 c 128,-1,16
 110 426 110 426 80.5 525 c 128,-1,17
 51 624 51 624 51 734 c 0,18,19
 51 853 51 853 81.5 950.5 c 128,-1,20
 112 1048 112 1048 173 1117 c 128,-1,21
 234 1186 234 1186 325.5 1223.5 c 128,-1,22
 417 1261 417 1261 539 1261 c 2,23,-1
 574 1261 l 1,24,-1
 574 1419 l 1,25,-1
 801 1419 l 1,26,-1
 801 1261 l 1,27,-1
 835 1261 l 2,28,29
 958 1261 958 1261 1049.5 1223.5 c 128,-1,30
 1141 1186 1141 1186 1202 1117 c 128,-1,31
 1263 1048 1263 1048 1293 950.5 c 128,-1,32
 1323 853 1323 853 1323 734 c 0,33,34
 1323 624 1323 624 1294 525 c 128,-1,35
 1265 426 1265 426 1205.5 351 c 128,-1,36
 1146 276 1146 276 1056.5 232 c 128,-1,37
 967 188 967 188 845 188 c 2,38,-1
 801 188 l 1,39,-1
 801 -11 l 1,40,-1
 574 -11 l 1,11,-1
294 730 m 0,41,42
 294 658 294 658 309 597 c 128,-1,43
 324 536 324 536 355.5 491.5 c 128,-1,44
 387 447 387 447 435.5 422 c 128,-1,45
 484 397 484 397 553 397 c 2,46,-1
 574 397 l 1,47,-1
 574 1052 l 1,48,-1
 558 1052 l 2,49,50
 423 1052 423 1052 358.5 967 c 128,-1,51
 294 882 294 882 294 730 c 0,41,42
EndSplineSet
EndChar

StartChar: Psi
Encoding: 936 936 369
Width: 1358
GlyphClass: 2
Flags: W
LayerCount: 2
Fore
SplineSet
793 427 m 1,0,-1
 793 0 l 1,1,-1
 565 0 l 1,2,-1
 565 427 l 1,3,-1
 532 427 l 2,4,5
 414 427 414 427 328.5 460.5 c 128,-1,6
 243 494 243 494 187.5 559.5 c 128,-1,7
 132 625 132 625 105.5 722 c 128,-1,8
 79 819 79 819 79 946 c 2,9,-1
 79 1409 l 1,10,-1
 307 1409 l 1,11,-1
 307 942 l 2,12,13
 307 862 307 862 321.5 806 c 128,-1,14
 336 750 336 750 366.5 715 c 128,-1,15
 397 680 397 680 444 664 c 128,-1,16
 491 648 491 648 557 648 c 2,17,-1
 565 648 l 1,18,-1
 565 1409 l 1,19,-1
 793 1409 l 1,20,-1
 793 648 l 1,21,-1
 801 648 l 2,22,23
 867 648 867 648 914 664 c 128,-1,24
 961 680 961 680 991.5 715 c 128,-1,25
 1022 750 1022 750 1036.5 806 c 128,-1,26
 1051 862 1051 862 1051 942 c 2,27,-1
 1051 1409 l 1,28,-1
 1279 1409 l 1,29,-1
 1279 946 l 2,30,31
 1279 819 1279 819 1252.5 722 c 128,-1,32
 1226 625 1226 625 1170.5 559.5 c 128,-1,33
 1115 494 1115 494 1029.5 460.5 c 128,-1,34
 944 427 944 427 826 427 c 2,35,-1
 793 427 l 1,0,-1
EndSplineSet
EndChar

StartChar: Omega
Encoding: 937 937 370
Width: 1346
GlyphClass: 2
Flags: W
LayerCount: 2
Fore
SplineSet
673 1430 m 256,0,1
 808 1430 808 1430 916 1389 c 128,-1,2
 1024 1348 1024 1348 1099.5 1270 c 128,-1,3
 1175 1192 1175 1192 1215 1080.5 c 128,-1,4
 1255 969 1255 969 1255 828 c 0,5,6
 1255 726 1255 726 1235.5 637.5 c 128,-1,7
 1216 549 1216 549 1173 472.5 c 128,-1,8
 1130 396 1130 396 1064 332 c 128,-1,9
 998 268 998 268 906 217 c 1,10,11
 906 217 906 217 957 223 c 0,12,13
 979 225 979 225 1004.5 226.5 c 128,-1,14
 1030 228 1030 228 1052 228 c 2,15,-1
 1278 228 l 1,16,-1
 1278 0 l 1,17,-1
 728 0 l 1,18,-1
 728 309 l 1,19,20
 876 395 876 395 942.5 510.5 c 128,-1,21
 1009 626 1009 626 1009 774 c 0,22,23
 1009 875 1009 875 986.5 954 c 128,-1,24
 964 1033 964 1033 921 1087 c 128,-1,25
 878 1141 878 1141 815 1169.5 c 128,-1,26
 752 1198 752 1198 671 1198 c 128,-1,27
 590 1198 590 1198 527.5 1169.5 c 128,-1,28
 465 1141 465 1141 421.5 1087 c 128,-1,29
 378 1033 378 1033 355.5 954 c 128,-1,30
 333 875 333 875 333 774 c 0,31,32
 333 626 333 626 399.5 510.5 c 128,-1,33
 466 395 466 395 615 309 c 1,34,-1
 615 0 l 1,35,-1
 68 0 l 1,36,-1
 68 228 l 1,37,-1
 293 228 l 2,38,39
 314 228 314 228 339.5 226.5 c 128,-1,40
 365 225 365 225 387 223 c 2,41,-1
 438 217 l 1,42,43
 346 268 346 268 280 332 c 128,-1,44
 214 396 214 396 172 472.5 c 128,-1,45
 130 549 130 549 110.5 638 c 128,-1,46
 91 727 91 727 91 829 c 0,47,48
 91 970 91 970 131 1081.5 c 128,-1,49
 171 1193 171 1193 246.5 1270.5 c 128,-1,50
 322 1348 322 1348 430 1389 c 128,-1,51
 538 1430 538 1430 673 1430 c 256,0,1
EndSplineSet
EndChar

StartChar: alpha
Encoding: 945 945 378
Width: 1032
GlyphClass: 2
Flags: W
LayerCount: 2
Fore
SplineSet
705 237 m 1,0,1
 684 181 684 181 657 134 c 128,-1,2
 630 87 630 87 595.5 52.5 c 128,-1,3
 561 18 561 18 515.5 -1 c 128,-1,4
 470 -20 470 -20 411 -20 c 0,5,6
 237 -20 237 -20 151.5 117.5 c 128,-1,7
 66 255 66 255 66 536 c 0,8,9
 66 820 66 820 159 961 c 128,-1,10
 252 1102 252 1102 432 1102 c 0,11,12
 492 1102 492 1102 540 1082.5 c 128,-1,13
 588 1063 588 1063 625 1028.5 c 128,-1,14
 662 994 662 994 689 947.5 c 128,-1,15
 716 901 716 901 734 847 c 1,16,-1
 736 847 l 1,17,18
 745 902 745 902 761.5 965.5 c 128,-1,19
 778 1029 778 1029 798 1082 c 1,20,-1
 1015 1082 l 1,21,22
 994 1035 994 1035 971.5 968.5 c 128,-1,23
 949 902 949 902 929.5 830 c 128,-1,24
 910 758 910 758 895.5 686 c 128,-1,25
 881 614 881 614 876 556 c 1,26,27
 883 479 883 479 893.5 403.5 c 128,-1,28
 904 328 904 328 919 257.5 c 128,-1,29
 934 187 934 187 951 122 c 128,-1,30
 968 57 968 57 988 0 c 1,31,-1
 766 0 l 1,32,33
 755 32 755 32 746 65 c 128,-1,34
 737 98 737 98 729.5 129.5 c 128,-1,35
 722 161 722 161 717 188 c 2,36,-1
 708 237 l 1,37,-1
 705 237 l 1,0,1
307 539 m 0,38,39
 307 442 307 442 315.5 373 c 128,-1,40
 324 304 324 304 342 259.5 c 128,-1,41
 360 215 360 215 388 194 c 128,-1,42
 416 173 416 173 456 173 c 0,43,44
 488 173 488 173 519 195.5 c 128,-1,45
 550 218 550 218 576 264 c 128,-1,46
 602 310 602 310 621 379.5 c 128,-1,47
 640 449 640 449 648 542 c 1,48,49
 641 616 641 616 626.5 682.5 c 128,-1,50
 612 749 612 749 589.5 799 c 128,-1,51
 567 849 567 849 535.5 878.5 c 128,-1,52
 504 908 504 908 462 908 c 0,53,54
 423 908 423 908 393.5 888 c 128,-1,55
 364 868 364 868 345 824 c 128,-1,56
 326 780 326 780 316.5 710 c 128,-1,57
 307 640 307 640 307 539 c 0,38,39
EndSplineSet
EndChar

StartChar: beta
Encoding: 946 946 379
Width: 1026
GlyphClass: 2
Flags: W
LayerCount: 2
Fore
SplineSet
969 405 m 0,0,1
 969 317 969 317 948 239.5 c 128,-1,2
 927 162 927 162 881.5 104 c 128,-1,3
 836 46 836 46 765.5 13 c 128,-1,4
 695 -20 695 -20 598 -20 c 0,5,6
 515 -20 515 -20 454.5 7.5 c 128,-1,7
 394 35 394 35 349 74 c 1,8,-1
 341 74 l 1,9,10
 345 17 345 17 346.5 -29 c 128,-1,11
 348 -75 348 -75 348 -128 c 2,12,-1
 348 -425 l 1,13,-1
 117 -425 l 1,14,-1
 117 1027 l 2,15,16
 117 1264 117 1264 219 1374 c 128,-1,17
 321 1484 321 1484 524 1484 c 0,18,19
 613 1484 613 1484 681 1460.5 c 128,-1,20
 749 1437 749 1437 795 1392 c 128,-1,21
 841 1347 841 1347 864.5 1282 c 128,-1,22
 888 1217 888 1217 888 1135 c 0,23,24
 888 1062 888 1062 873.5 1006.5 c 128,-1,25
 859 951 859 951 834 910 c 128,-1,26
 809 869 809 869 776 841 c 128,-1,27
 743 813 743 813 705 795 c 1,28,29
 752 784 752 784 799 756.5 c 128,-1,30
 846 729 846 729 884 682.5 c 128,-1,31
 922 636 922 636 945.5 567.5 c 128,-1,32
 969 499 969 499 969 405 c 0,0,1
348 255 m 1,33,34
 366 238 366 238 389.5 223 c 128,-1,35
 413 208 413 208 439.5 196.5 c 128,-1,36
 466 185 466 185 495 178.5 c 128,-1,37
 524 172 524 172 552 172 c 0,38,39
 600 172 600 172 635.5 189.5 c 128,-1,40
 671 207 671 207 695.5 239.5 c 128,-1,41
 720 272 720 272 732 317.5 c 128,-1,42
 744 363 744 363 744 419 c 256,43,44
 744 475 744 475 729.5 522 c 128,-1,45
 715 569 715 569 682 603 c 128,-1,46
 649 637 649 637 597.5 656.5 c 128,-1,47
 546 676 546 676 473 676 c 1,48,-1
 473 874 l 1,49,50
 577 896 577 896 623.5 953 c 128,-1,51
 670 1010 670 1010 670 1109 c 0,52,53
 670 1145 670 1145 661.5 1176.5 c 128,-1,54
 653 1208 653 1208 634.5 1231.5 c 128,-1,55
 616 1255 616 1255 588.5 1268 c 128,-1,56
 561 1281 561 1281 523 1281 c 0,57,58
 479 1281 479 1281 446 1265.5 c 128,-1,59
 413 1250 413 1250 391 1215.5 c 128,-1,60
 369 1181 369 1181 358.5 1125.5 c 128,-1,61
 348 1070 348 1070 348 991 c 2,62,-1
 348 255 l 1,33,34
EndSplineSet
EndChar

StartChar: gamma
Encoding: 947 947 380
Width: 934
GlyphClass: 2
Flags: W
LayerCount: 2
Fore
SplineSet
7 1082 m 1,0,-1
 251 1082 l 1,1,-1
 425 442 l 1,2,3
 425 442 425 442 434 402 c 0,4,5
 441 371 441 371 448.5 332.5 c 128,-1,6
 456 294 456 294 462 254.5 c 128,-1,7
 468 215 468 215 469 188 c 1,8,9
 472 219 472 219 478.5 255.5 c 128,-1,10
 485 292 485 292 492.5 327.5 c 128,-1,11
 500 363 500 363 507.5 394.5 c 128,-1,12
 515 426 515 426 521 447 c 2,13,-1
 686 1082 l 1,14,-1
 927 1082 l 1,15,-1
 604 54 l 1,16,-1
 572 -56 l 2,17,18
 556 -111 556 -111 543.5 -169.5 c 128,-1,19
 531 -228 531 -228 520.5 -291 c 128,-1,20
 510 -354 510 -354 503 -424 c 1,21,-1
 265 -424 l 1,22,23
 281 -290 281 -290 303 -183.5 c 128,-1,24
 325 -77 325 -77 348 11 c 1,25,-1
 7 1082 l 1,0,-1
EndSplineSet
EndChar

StartChar: delta
Encoding: 948 948 381
Width: 1018
GlyphClass: 2
Flags: W
LayerCount: 2
Fore
SplineSet
710 487 m 0,0,1
 710 556 710 556 697 614.5 c 128,-1,2
 684 673 684 673 661 724 c 128,-1,3
 638 775 638 775 608.5 819 c 128,-1,4
 579 863 579 863 547 903 c 1,5,6
 492 879 492 879 448 841 c 128,-1,7
 404 803 404 803 373 750.5 c 128,-1,8
 342 698 342 698 325 631 c 128,-1,9
 308 564 308 564 308 481 c 0,10,11
 308 415 308 415 319.5 359 c 128,-1,12
 331 303 331 303 355 262.5 c 128,-1,13
 379 222 379 222 415.5 199 c 128,-1,14
 452 176 452 176 502 176 c 0,15,16
 559 176 559 176 598.5 199.5 c 128,-1,17
 638 223 638 223 663 264 c 128,-1,18
 688 305 688 305 699 362.5 c 128,-1,19
 710 420 710 420 710 487 c 0,0,1
602 1294 m 2,20,21
 591 1294 591 1294 575 1295 c 2,22,-1
 542 1297 l 1,23,-1
 508 1299 l 2,24,25
 492 1300 492 1300 481 1301 c 1,26,-1
 746 1008 l 2,27,28
 794 955 794 955 831.5 898 c 128,-1,29
 869 841 869 841 894.5 777 c 128,-1,30
 920 713 920 713 934 640 c 128,-1,31
 948 567 948 567 948 483 c 0,32,33
 948 375 948 375 918.5 282.5 c 128,-1,34
 889 190 889 190 832.5 123 c 128,-1,35
 776 56 776 56 693.5 18 c 128,-1,36
 611 -20 611 -20 506 -20 c 0,37,38
 402 -20 402 -20 320.5 14.5 c 128,-1,39
 239 49 239 49 184 113.5 c 128,-1,40
 129 178 129 178 99.5 271 c 128,-1,41
 70 364 70 364 70 481 c 0,42,43
 70 591 70 591 100 677 c 128,-1,44
 130 763 130 763 182 829 c 128,-1,45
 234 895 234 895 303.5 942.5 c 128,-1,46
 373 990 373 990 452 1023 c 1,47,-1
 196 1337 l 1,48,-1
 196 1484 l 1,49,-1
 895 1484 l 1,50,-1
 895 1294 l 1,51,-1
 602 1294 l 2,20,21
EndSplineSet
EndChar

StartChar: epsilon
Encoding: 949 949 382
Width: 797
GlyphClass: 2
Flags: W
LayerCount: 2
Fore
SplineSet
431 168 m 256,0,1
 493 168 493 168 549 206.5 c 128,-1,2
 605 245 605 245 653 305 c 1,3,-1
 770 165 l 1,4,5
 743 131 743 131 711.5 98 c 128,-1,6
 680 65 680 65 637.5 39 c 128,-1,7
 595 13 595 13 539 -3.5 c 128,-1,8
 483 -20 483 -20 408 -20 c 0,9,10
 320 -20 320 -20 255 3.5 c 128,-1,11
 190 27 190 27 147.5 69 c 128,-1,12
 105 111 105 111 84 169 c 128,-1,13
 63 227 63 227 63 297 c 0,14,15
 63 354 63 354 80.5 400.5 c 128,-1,16
 98 447 98 447 129.5 480 c 128,-1,17
 161 513 161 513 204.5 533 c 128,-1,18
 248 553 248 553 299 558 c 1,19,-1
 299 560 l 1,20,21
 249 566 249 566 210 587 c 128,-1,22
 171 608 171 608 144.5 641 c 128,-1,23
 118 674 118 674 104 717.5 c 128,-1,24
 90 761 90 761 90 812 c 0,25,26
 90 875 90 875 113 928 c 128,-1,27
 136 981 136 981 180.5 1019.5 c 128,-1,28
 225 1058 225 1058 289 1080 c 128,-1,29
 353 1102 353 1102 437 1102 c 0,30,31
 494 1102 494 1102 541 1092.5 c 128,-1,32
 588 1083 588 1083 626.5 1063 c 128,-1,33
 665 1043 665 1043 697 1010.5 c 128,-1,34
 729 978 729 978 757 933 c 1,35,-1
 624 810 l 1,36,37
 590 867 590 867 548.5 895 c 128,-1,38
 507 923 507 923 450 923 c 0,39,40
 381 923 381 923 345 890.5 c 128,-1,41
 309 858 309 858 309 801 c 0,42,43
 309 753 309 753 330 723.5 c 128,-1,44
 351 694 351 694 387 678 c 128,-1,45
 423 662 423 662 472 657 c 128,-1,46
 521 652 521 652 578 652 c 1,47,-1
 578 475 l 1,48,49
 524 475 524 475 473.5 471.5 c 128,-1,50
 423 468 423 468 384.5 452.5 c 128,-1,51
 346 437 346 437 323 404.5 c 128,-1,52
 300 372 300 372 300 314 c 0,53,54
 300 242 300 242 334.5 205 c 128,-1,55
 369 168 369 168 431 168 c 256,0,1
EndSplineSet
EndChar

StartChar: zeta
Encoding: 950 950 383
Width: 772
GlyphClass: 2
Flags: W
LayerCount: 2
Fore
SplineSet
265 422 m 0,0,1
 265 366 265 366 281.5 331.5 c 128,-1,2
 298 297 298 297 327 275.5 c 128,-1,3
 356 254 356 254 396 240 c 2,4,-1
 481 209 l 2,5,6
 525 194 525 194 572.5 175 c 128,-1,7
 620 156 620 156 658.5 122.5 c 128,-1,8
 697 89 697 89 721.5 35.5 c 128,-1,9
 746 -18 746 -18 746 -102 c 0,10,11
 746 -144 746 -144 737.5 -187.5 c 128,-1,12
 729 -231 729 -231 717.5 -271.5 c 128,-1,13
 706 -312 706 -312 692.5 -346 c 128,-1,14
 679 -380 679 -380 669 -401 c 1,15,-1
 519 -327 l 1,16,17
 519 -327 519 -327 534 -294 c 0,18,19
 542 -275 542 -275 548.5 -255 c 128,-1,20
 555 -235 555 -235 559.5 -214 c 128,-1,21
 564 -193 564 -193 564 -172 c 0,22,23
 564 -135 564 -135 549.5 -109.5 c 128,-1,24
 535 -84 535 -84 508.5 -66 c 128,-1,25
 482 -48 482 -48 444.5 -34.5 c 128,-1,26
 407 -21 407 -21 359 -6 c 1,27,28
 307 8 307 8 252.5 27.5 c 128,-1,29
 198 47 198 47 154 84 c 128,-1,30
 110 121 110 121 82 182 c 128,-1,31
 54 243 54 243 54 339 c 0,32,33
 54 419 54 419 73 502.5 c 128,-1,34
 92 586 92 586 124.5 670.5 c 128,-1,35
 157 755 157 755 201 838.5 c 128,-1,36
 245 922 245 922 295 1002 c 128,-1,37
 345 1082 345 1082 399 1156 c 1,38,-1
 505 1295 l 1,39,-1
 505 1299 l 1,40,41
 495 1298 495 1298 481 1298 c 2,42,-1
 452 1296 l 1,43,-1
 424 1296 l 1,44,45
 410 1295 410 1295 401 1295 c 2,46,-1
 143 1295 l 1,47,-1
 143 1484 l 1,48,-1
 717 1484 l 1,49,-1
 717 1294 l 1,50,-1
 612 1163 l 1,51,52
 559 1093 559 1093 508.5 1018.5 c 128,-1,53
 458 944 458 944 414 866.5 c 128,-1,54
 370 789 370 789 337 713 c 128,-1,55
 304 637 304 637 284.5 563 c 128,-1,56
 265 489 265 489 265 422 c 0,0,1
EndSplineSet
EndChar

StartChar: eta
Encoding: 951 951 384
Width: 1026
GlyphClass: 2
Flags: W
LayerCount: 2
Fore
SplineSet
693 -424 m 1,0,-1
 693 629 l 2,1,2
 693 704 693 704 685 754.5 c 128,-1,3
 677 805 677 805 659 835.5 c 128,-1,4
 641 866 641 866 612 879 c 128,-1,5
 583 892 583 892 540 892 c 128,-1,6
 497 892 497 892 461.5 871.5 c 128,-1,7
 426 851 426 851 401 811 c 128,-1,8
 376 771 376 771 362.5 713.5 c 128,-1,9
 349 656 349 656 349 581 c 2,10,-1
 349 0 l 1,11,-1
 117 0 l 1,12,-1
 117 851 l 2,13,14
 117 919 117 919 108 979.5 c 128,-1,15
 99 1040 99 1040 88 1082 c 1,16,-1
 308 1082 l 1,17,18
 315 1061 315 1061 321 1037 c 128,-1,19
 327 1013 327 1013 331 988.5 c 128,-1,20
 335 964 335 964 337.5 940.5 c 128,-1,21
 340 917 340 917 340 897 c 1,22,-1
 342 897 l 1,23,24
 364 944 364 944 390.5 982 c 128,-1,25
 417 1020 417 1020 451.5 1046.5 c 128,-1,26
 486 1073 486 1073 530 1087.5 c 128,-1,27
 574 1102 574 1102 633 1102 c 0,28,29
 709 1102 709 1102 763.5 1080 c 128,-1,30
 818 1058 818 1058 853 1012 c 128,-1,31
 888 966 888 966 905 894 c 128,-1,32
 922 822 922 822 922 721 c 2,33,-1
 922 -424 l 1,34,-1
 693 -424 l 1,0,-1
EndSplineSet
EndChar

StartChar: theta
Encoding: 952 952 385
Width: 907
GlyphClass: 2
Flags: W
LayerCount: 2
Fore
SplineSet
833 733 m 0,0,1
 833 352 833 352 735 166 c 128,-1,2
 637 -20 637 -20 450 -20 c 0,3,4
 362 -20 362 -20 291.5 26 c 128,-1,5
 221 72 221 72 173 165 c 128,-1,6
 125 258 125 258 99.5 399.5 c 128,-1,7
 74 541 74 541 74 733 c 0,8,9
 74 1107 74 1107 169.5 1295 c 128,-1,10
 265 1483 265 1483 455 1483 c 0,11,12
 554 1483 554 1483 625.5 1436.5 c 128,-1,13
 697 1390 697 1390 743 1296 c 128,-1,14
 789 1202 789 1202 811 1061.5 c 128,-1,15
 833 921 833 921 833 733 c 0,0,1
451 162 m 0,16,17
 483 162 483 162 510.5 185.5 c 128,-1,18
 538 209 538 209 559.5 264.5 c 128,-1,19
 581 320 581 320 594 413 c 128,-1,20
 607 506 607 506 609 644 c 1,21,-1
 300 644 l 1,22,23
 302 506 302 506 315 413.5 c 128,-1,24
 328 321 328 321 349 265 c 128,-1,25
 370 209 370 209 396.5 185.5 c 128,-1,26
 423 162 423 162 451 162 c 0,16,17
456 1300 m 0,27,28
 424 1300 424 1300 396.5 1277.5 c 128,-1,29
 369 1255 369 1255 348 1201 c 128,-1,30
 327 1147 327 1147 314 1057.5 c 128,-1,31
 301 968 301 968 299 834 c 1,32,-1
 609 834 l 1,33,34
 607 968 607 968 594.5 1057.5 c 128,-1,35
 582 1147 582 1147 562 1201 c 128,-1,36
 542 1255 542 1255 514.5 1277.5 c 128,-1,37
 487 1300 487 1300 456 1300 c 0,27,28
EndSplineSet
EndChar

StartChar: iota
Encoding: 953 953 386
Width: 467
GlyphClass: 2
Flags: W
LayerCount: 2
Fore
SplineSet
163 0 m 1,0,1
 151 16 151 16 141 42.5 c 128,-1,2
 131 69 131 69 125 101 c 128,-1,3
 119 133 119 133 115.5 168 c 128,-1,4
 112 203 112 203 112 236 c 2,5,-1
 112 1082 l 1,6,-1
 344 1082 l 1,7,-1
 344 227 l 2,8,9
 344 195 344 195 349 163 c 128,-1,10
 354 131 354 131 362.5 101 c 128,-1,11
 371 71 371 71 383 45.5 c 128,-1,12
 395 20 395 20 410 0 c 1,13,-1
 163 0 l 1,0,1
EndSplineSet
EndChar

StartChar: kappa
Encoding: 954 954 387
Width: 936
GlyphClass: 2
Flags: W
LayerCount: 2
Fore
SplineSet
690 0 m 1,0,-1
 452 455 l 1,1,-1
 348 349 l 1,2,-1
 348 0 l 1,3,-1
 117 0 l 1,4,-1
 117 1082 l 1,5,-1
 348 1082 l 1,6,-1
 348 588 l 1,7,-1
 673 1082 l 1,8,-1
 911 1082 l 1,9,-1
 600 620 l 1,10,-1
 935 0 l 1,11,-1
 690 0 l 1,0,-1
EndSplineSet
EndChar

StartChar: lambda
Encoding: 955 955 388
Width: 934
GlyphClass: 2
Flags: W
LayerCount: 2
Fore
SplineSet
909 0 m 1,0,-1
 667 0 l 1,1,-1
 556 462 l 1,2,3
 556 462 556 462 548 498 c 2,4,-1
 536 548 l 1,5,-1
 522 608 l 2,6,7
 514 639 514 639 508 668 c 2,8,-1
 498 721 l 2,9,10
 494 745 494 745 492 759 c 1,11,12
 486 732 486 732 475 688 c 2,13,-1
 451 598 l 1,14,-1
 424 504 l 2,15,16
 411 459 411 459 400 429 c 2,17,-1
 251 0 l 1,18,-1
 7 0 l 1,19,-1
 396 1006 l 1,20,-1
 375 1079 l 1,21,22
 353 1148 353 1148 335 1196 c 128,-1,23
 317 1244 317 1244 299 1274.5 c 128,-1,24
 281 1305 281 1305 261.5 1318.5 c 128,-1,25
 242 1332 242 1332 216 1332 c 0,26,27
 200 1332 200 1332 177.5 1326.5 c 128,-1,28
 155 1321 155 1321 139 1313 c 1,29,-1
 100 1507 l 1,30,31
 125 1518 125 1518 166 1527.5 c 128,-1,32
 207 1537 207 1537 253 1537 c 0,33,34
 319 1537 319 1537 367 1515.5 c 128,-1,35
 415 1494 415 1494 451.5 1448 c 128,-1,36
 488 1402 488 1402 517 1331 c 128,-1,37
 546 1260 546 1260 574 1162 c 2,38,-1
 909 0 l 1,0,-1
EndSplineSet
EndChar

StartChar: mu
Encoding: 956 956 389
Width: 1026
GlyphClass: 2
Flags: W
LayerCount: 2
Fore
SplineSet
695 0 m 1,0,1
 694 12 694 12 692 34 c 128,-1,2
 690 56 690 56 688.5 82.5 c 128,-1,3
 687 109 687 109 686 136 c 128,-1,4
 685 163 685 163 685 184 c 1,5,-1
 682 184 l 1,6,7
 651 85 651 85 601 32.5 c 128,-1,8
 551 -20 551 -20 481 -20 c 0,9,10
 438 -20 438 -20 402.5 4 c 128,-1,11
 367 28 367 28 348 70 c 1,12,-1
 345 70 l 1,13,14
 347 38 347 38 347.5 10.5 c 128,-1,15
 348 -17 348 -17 348 -45 c 2,16,-1
 348 -416 l 1,17,-1
 118 -416 l 1,18,-1
 118 1082 l 1,19,-1
 348 1082 l 1,20,-1
 348 477 l 2,21,22
 348 413 348 413 356 361 c 128,-1,23
 364 309 364 309 381.5 271.5 c 128,-1,24
 399 234 399 234 427.5 213.5 c 128,-1,25
 456 193 456 193 499 193 c 0,26,27
 540 193 540 193 572.5 215.5 c 128,-1,28
 605 238 605 238 629 278.5 c 128,-1,29
 653 319 653 319 665.5 376.5 c 128,-1,30
 678 434 678 434 678 504 c 2,31,-1
 678 1082 l 1,32,-1
 908 1082 l 1,33,-1
 908 242 l 2,34,35
 908 208 908 208 908.5 171.5 c 128,-1,36
 909 135 909 135 910 101.5 c 128,-1,37
 911 68 911 68 912.5 41 c 128,-1,38
 914 14 914 14 915 0 c 1,39,-1
 695 0 l 1,0,1
EndSplineSet
EndChar

StartChar: nu
Encoding: 957 957 390
Width: 934
GlyphClass: 2
Flags: W
LayerCount: 2
Fore
SplineSet
859 846 m 0,0,1
 859 747 859 747 833 638 c 128,-1,2
 807 529 807 529 762.5 418.5 c 128,-1,3
 718 308 718 308 660.5 201 c 128,-1,4
 603 94 603 94 539 0 c 1,5,-1
 320 0 l 1,6,-1
 0 1082 l 1,7,-1
 244 1082 l 1,8,-1
 458 239 l 1,9,10
 504 319 504 319 536 393 c 128,-1,11
 568 467 568 467 588.5 539.5 c 128,-1,12
 609 612 609 612 618.5 685.5 c 128,-1,13
 628 759 628 759 628 837 c 0,14,15
 628 918 628 918 616 977.5 c 128,-1,16
 604 1037 604 1037 588 1082 c 1,17,-1
 818 1082 l 1,18,19
 837 1037 837 1037 848 980.5 c 128,-1,20
 859 924 859 924 859 846 c 0,0,1
EndSplineSet
EndChar

StartChar: xi
Encoding: 958 958 391
Width: 748
GlyphClass: 2
Flags: W
LayerCount: 2
Fore
SplineSet
266 420 m 0,0,1
 266 367 266 367 282.5 333 c 128,-1,2
 299 299 299 299 328 276.5 c 128,-1,3
 357 254 357 254 396.5 239 c 128,-1,4
 436 224 436 224 482 209 c 0,5,6
 526 194 526 194 573.5 175 c 128,-1,7
 621 156 621 156 659.5 122.5 c 128,-1,8
 698 89 698 89 722.5 35.5 c 128,-1,9
 747 -18 747 -18 747 -102 c 0,10,11
 747 -144 747 -144 739 -187.5 c 128,-1,12
 731 -231 731 -231 719 -271.5 c 128,-1,13
 707 -312 707 -312 694 -346 c 128,-1,14
 681 -380 681 -380 670 -401 c 1,15,-1
 520 -327 l 1,16,17
 520 -327 520 -327 535 -294 c 0,18,19
 543 -275 543 -275 549.5 -255 c 128,-1,20
 556 -235 556 -235 560.5 -214 c 128,-1,21
 565 -193 565 -193 565 -172 c 0,22,23
 565 -135 565 -135 550.5 -109.5 c 128,-1,24
 536 -84 536 -84 509.5 -66 c 128,-1,25
 483 -48 483 -48 445.5 -34.5 c 128,-1,26
 408 -21 408 -21 360 -6 c 1,27,28
 308 8 308 8 253 27.5 c 128,-1,29
 198 47 198 47 154 84 c 128,-1,30
 110 121 110 121 82 182 c 128,-1,31
 54 243 54 243 54 339 c 0,32,33
 54 415 54 415 75.5 491 c 128,-1,34
 97 567 97 567 142.5 631.5 c 128,-1,35
 188 696 188 696 260 743.5 c 128,-1,36
 332 791 332 791 434 810 c 1,37,-1
 434 812 l 1,38,39
 379 817 379 817 330 834 c 128,-1,40
 281 851 281 851 245.5 881 c 128,-1,41
 210 911 210 911 189 954 c 128,-1,42
 168 997 168 997 168 1052 c 0,43,44
 168 1109 168 1109 188.5 1150 c 128,-1,45
 209 1191 209 1191 241.5 1220 c 128,-1,46
 274 1249 274 1249 314 1266.5 c 128,-1,47
 354 1284 354 1284 392 1293 c 1,48,-1
 392 1301 l 1,49,50
 382 1300 382 1300 354 1299 c 128,-1,51
 326 1298 326 1298 293.5 1296.5 c 128,-1,52
 261 1295 261 1295 229.5 1294 c 128,-1,53
 198 1293 198 1293 184 1293 c 2,54,-1
 121 1293 l 1,55,-1
 121 1484 l 1,56,-1
 658 1484 l 1,57,-1
 658 1299 l 1,58,59
 601 1292 601 1292 548 1278 c 128,-1,60
 495 1264 495 1264 453.5 1240 c 128,-1,61
 412 1216 412 1216 387 1179 c 128,-1,62
 362 1142 362 1142 362 1088 c 0,63,64
 362 1037 362 1037 383.5 1004.5 c 128,-1,65
 405 972 405 972 441.5 952 c 128,-1,66
 478 932 478 932 525 922 c 128,-1,67
 572 912 572 912 623 907 c 1,68,-1
 623 716 l 1,69,70
 541 704 541 704 474.5 686 c 128,-1,71
 408 668 408 668 362 635.5 c 128,-1,72
 316 603 316 603 291 551.5 c 128,-1,73
 266 500 266 500 266 420 c 0,0,1
EndSplineSet
EndChar

StartChar: pi
Encoding: 960 960 393
Width: 1286
GlyphClass: 2
Flags: W
LayerCount: 2
Fore
SplineSet
1017 892 m 1,0,-1
 1017 303 l 2,1,2
 1017 231 1017 231 1040 203.5 c 128,-1,3
 1063 176 1063 176 1102 176 c 0,4,5
 1123 176 1123 176 1144.5 180 c 128,-1,6
 1166 184 1166 184 1183 188 c 1,7,-1
 1199 4 l 1,8,9
 1163 -6 1163 -6 1116 -13 c 128,-1,10
 1069 -20 1069 -20 1016 -20 c 0,11,12
 900 -20 900 -20 844 54.5 c 128,-1,13
 788 129 788 129 788 265 c 2,14,-1
 788 892 l 1,15,-1
 490 892 l 1,16,-1
 490 768 l 2,17,18
 490 638 490 638 485 529 c 128,-1,19
 480 420 480 420 470 327 c 128,-1,20
 460 234 460 234 447 154 c 128,-1,21
 434 74 434 74 418 0 c 1,22,-1
 183 0 l 1,23,24
 199 76 199 76 213.5 157.5 c 128,-1,25
 228 239 228 239 240 331 c 128,-1,26
 252 423 252 423 259 529 c 128,-1,27
 266 635 266 635 266 760 c 2,28,-1
 266 892 l 1,29,30
 186 892 186 892 125 883.5 c 128,-1,31
 64 875 64 875 34 855 c 1,32,-1
 34 1053 l 1,33,34
 46 1060 46 1060 64.5 1065.5 c 128,-1,35
 83 1071 83 1071 103 1074.5 c 128,-1,36
 123 1078 123 1078 144 1080 c 128,-1,37
 165 1082 165 1082 184 1082 c 2,38,-1
 1241 1082 l 1,39,-1
 1241 892 l 1,40,-1
 1017 892 l 1,0,-1
EndSplineSet
EndChar

StartChar: rho
Encoding: 961 961 394
Width: 1038
GlyphClass: 2
Flags: W
LayerCount: 2
Fore
SplineSet
972 516 m 0,0,1
 972 398 972 398 946 299.5 c 128,-1,2
 920 201 920 201 871.5 130 c 128,-1,3
 823 59 823 59 753 19.5 c 128,-1,4
 683 -20 683 -20 596 -20 c 0,5,6
 551 -20 551 -20 513.5 -9.5 c 128,-1,7
 476 1 476 1 444.5 19.5 c 128,-1,8
 413 38 413 38 387.5 63 c 128,-1,9
 362 88 362 88 341 117 c 1,10,-1
 338 117 l 1,11,12
 340 87 340 87 340.5 59.5 c 128,-1,13
 341 32 341 32 341 0 c 2,14,-1
 341 -425 l 1,15,-1
 99 -425 l 1,16,-1
 99 581 l 2,17,18
 99 700 99 700 127.5 796.5 c 128,-1,19
 156 893 156 893 210 961 c 128,-1,20
 264 1029 264 1029 342 1066 c 128,-1,21
 420 1103 420 1103 519 1103 c 0,22,23
 612 1103 612 1103 694.5 1063.5 c 128,-1,24
 777 1024 777 1024 838.5 949 c 128,-1,25
 900 874 900 874 936 765 c 128,-1,26
 972 656 972 656 972 516 c 0,0,1
732 526 m 0,27,28
 732 616 732 616 716.5 687 c 128,-1,29
 701 758 701 758 673.5 807.5 c 128,-1,30
 646 857 646 857 607 883 c 128,-1,31
 568 909 568 909 521 909 c 0,32,33
 473 909 473 909 439 886 c 128,-1,34
 405 863 405 863 383 819.5 c 128,-1,35
 361 776 361 776 351 713.5 c 128,-1,36
 341 651 341 651 341 572 c 2,37,-1
 341 300 l 1,38,39
 384 243 384 243 438 208.5 c 128,-1,40
 492 174 492 174 555 174 c 0,41,42
 598 174 598 174 631 199 c 128,-1,43
 664 224 664 224 686.5 269.5 c 128,-1,44
 709 315 709 315 720.5 380 c 128,-1,45
 732 445 732 445 732 526 c 0,27,28
EndSplineSet
EndChar

StartChar: sigma1
Encoding: 962 962 395
Width: 872
GlyphClass: 2
Flags: W
LayerCount: 2
Fore
SplineSet
278 445 m 0,0,1
 278 387 278 387 296 350 c 128,-1,2
 314 313 314 313 345.5 287.5 c 128,-1,3
 377 262 377 262 420 244 c 2,4,-1
 515 204 l 1,5,6
 515 204 515 204 582 180 c 0,7,8
 616 168 616 168 648 152 c 128,-1,9
 680 136 680 136 709 114.5 c 128,-1,10
 738 93 738 93 759 61 c 128,-1,11
 780 29 780 29 793 -15 c 128,-1,12
 806 -59 806 -59 806 -120 c 0,13,14
 806 -159 806 -159 797 -200 c 128,-1,15
 788 -241 788 -241 774.5 -279 c 128,-1,16
 761 -317 761 -317 745.5 -349 c 128,-1,17
 730 -381 730 -381 719 -401 c 1,18,-1
 573 -327 l 1,19,-1
 588 -294 l 2,20,21
 596 -276 596 -276 602.5 -256 c 128,-1,22
 609 -236 609 -236 613.5 -215 c 128,-1,23
 618 -194 618 -194 618 -173 c 0,24,25
 618 -136 618 -136 601 -111 c 128,-1,26
 584 -86 584 -86 553 -68 c 128,-1,27
 522 -50 522 -50 480 -36 c 1,28,-1
 386 -8 l 2,29,30
 349 4 349 4 311 18 c 128,-1,31
 273 32 273 32 237 53.5 c 128,-1,32
 201 75 201 75 170 105.5 c 128,-1,33
 139 136 139 136 115.5 180.5 c 128,-1,34
 92 225 92 225 78.5 286 c 128,-1,35
 65 347 65 347 65 428 c 0,36,37
 65 487 65 487 74 559.5 c 128,-1,38
 83 632 83 632 103.5 707 c 128,-1,39
 124 782 124 782 157.5 853.5 c 128,-1,40
 191 925 191 925 240.5 980.5 c 128,-1,41
 290 1036 290 1036 356 1069.5 c 128,-1,42
 422 1103 422 1103 508 1103 c 0,43,44
 602 1103 602 1103 675 1065.5 c 128,-1,45
 748 1028 748 1028 796 962 c 1,46,-1
 682 813 l 1,47,48
 667 832 667 832 650 850 c 128,-1,49
 633 868 633 868 612.5 882 c 128,-1,50
 592 896 592 896 568 904.5 c 128,-1,51
 544 913 544 913 517 913 c 0,52,53
 472 913 472 913 437 889 c 128,-1,54
 402 865 402 865 375.5 826.5 c 128,-1,55
 349 788 349 788 330.5 738 c 128,-1,56
 312 688 312 688 300.5 636 c 128,-1,57
 289 584 289 584 283.5 534 c 128,-1,58
 278 484 278 484 278 445 c 0,0,1
EndSplineSet
EndChar

StartChar: sigma
Encoding: 963 963 396
Width: 1149
GlyphClass: 2
Flags: W
LayerCount: 2
Fore
SplineSet
960 458 m 0,0,1
 960 353 960 353 932 265 c 128,-1,2
 904 177 904 177 848.5 114 c 128,-1,3
 793 51 793 51 710 15.5 c 128,-1,4
 627 -20 627 -20 515 -20 c 256,5,6
 403 -20 403 -20 319 17 c 128,-1,7
 235 54 235 54 178.5 123.5 c 128,-1,8
 122 193 122 193 94 294 c 128,-1,9
 66 395 66 395 66 524 c 0,10,11
 66 668 66 668 105 773 c 128,-1,12
 144 878 144 878 213 947 c 128,-1,13
 282 1016 282 1016 378.5 1049 c 128,-1,14
 475 1082 475 1082 590 1082 c 2,15,-1
 1116 1082 l 1,16,-1
 1116 892 l 1,17,-1
 956 892 l 2,18,19
 948 892 948 892 932 892.5 c 128,-1,20
 916 893 916 893 897 894 c 2,21,-1
 858 896 l 2,22,23
 837 897 837 897 822 898 c 1,24,-1
 822 894 l 1,25,26
 847 854 847 854 871.5 807 c 128,-1,27
 896 760 896 760 916 706 c 128,-1,28
 936 652 936 652 948 590 c 128,-1,29
 960 528 960 528 960 458 c 0,0,1
718 492 m 0,30,31
 718 555 718 555 711 612 c 128,-1,32
 704 669 704 669 693 719.5 c 128,-1,33
 682 770 682 770 666.5 813 c 128,-1,34
 651 856 651 856 635 892 c 1,35,-1
 574 892 l 2,36,37
 518 892 518 892 470 869.5 c 128,-1,38
 422 847 422 847 385.5 801.5 c 128,-1,39
 349 756 349 756 328.5 687 c 128,-1,40
 308 618 308 618 308 524 c 0,41,42
 308 347 308 347 359 259.5 c 128,-1,43
 410 172 410 172 509 172 c 0,44,45
 562 172 562 172 601.5 194 c 128,-1,46
 641 216 641 216 667 257.5 c 128,-1,47
 693 299 693 299 705.5 358 c 128,-1,48
 718 417 718 417 718 492 c 0,30,31
EndSplineSet
EndChar

StartChar: tau
Encoding: 964 964 397
Width: 750
GlyphClass: 2
Flags: W
LayerCount: 2
Fore
SplineSet
222 892 m 2,0,1
 190 892 190 892 157.5 889 c 128,-1,2
 125 886 125 886 96.5 880.5 c 128,-1,3
 68 875 68 875 46.5 868.5 c 128,-1,4
 25 862 25 862 15 855 c 1,5,-1
 15 1053 l 1,6,7
 25 1059 25 1059 42.5 1064.5 c 128,-1,8
 60 1070 60 1070 81 1074 c 128,-1,9
 102 1078 102 1078 124 1080 c 128,-1,10
 146 1082 146 1082 165 1082 c 2,11,-1
 722 1082 l 1,12,-1
 722 892 l 1,13,-1
 472 892 l 1,14,-1
 472 312 l 2,15,16
 472 272 472 272 478.5 246 c 128,-1,17
 485 220 485 220 497 204.5 c 128,-1,18
 509 189 509 189 526.5 183 c 128,-1,19
 544 177 544 177 566 177 c 0,20,21
 580 177 580 177 600 179.5 c 128,-1,22
 620 182 620 182 633 185 c 1,23,-1
 652 7 l 1,24,25
 638 2 638 2 617.5 -3 c 128,-1,26
 597 -8 597 -8 574.5 -12 c 128,-1,27
 552 -16 552 -16 529.5 -18.5 c 128,-1,28
 507 -21 507 -21 489 -21 c 0,29,30
 362 -21 362 -21 303 49 c 128,-1,31
 244 119 244 119 244 251 c 2,32,-1
 244 892 l 1,33,-1
 222 892 l 2,0,1
EndSplineSet
EndChar

StartChar: upsilon
Encoding: 965 965 398
Width: 977
GlyphClass: 2
Flags: W
LayerCount: 2
Fore
SplineSet
908 571 m 0,0,1
 908 435 908 435 884 325.5 c 128,-1,2
 860 216 860 216 808.5 139 c 128,-1,3
 757 62 757 62 677.5 21 c 128,-1,4
 598 -20 598 -20 487 -20 c 0,5,6
 290 -20 290 -20 197 90.5 c 128,-1,7
 104 201 104 201 104 433 c 2,8,-1
 104 1082 l 1,9,-1
 334 1082 l 1,10,-1
 334 460 l 2,11,12
 334 324 334 324 373 255.5 c 128,-1,13
 412 187 412 187 501 187 c 0,14,15
 549 187 549 187 582.5 210 c 128,-1,16
 616 233 616 233 637.5 283.5 c 128,-1,17
 659 334 659 334 668.5 413 c 128,-1,18
 678 492 678 492 678 603 c 0,19,20
 678 666 678 666 668.5 735 c 128,-1,21
 659 804 659 804 644 868.5 c 128,-1,22
 629 933 629 933 611 989 c 128,-1,23
 593 1045 593 1045 576 1082 c 1,24,-1
 811 1082 l 1,25,26
 827 1042 827 1042 844 985.5 c 128,-1,27
 861 929 861 929 875.5 862 c 128,-1,28
 890 795 890 795 899 720.5 c 128,-1,29
 908 646 908 646 908 571 c 0,0,1
EndSplineSet
EndChar

StartChar: phi
Encoding: 966 966 399
Width: 1202
GlyphClass: 2
Flags: W
LayerCount: 2
Fore
SplineSet
1137 565 m 0,0,1
 1137 414 1137 414 1104 306.5 c 128,-1,2
 1071 199 1071 199 1011.5 129 c 128,-1,3
 952 59 952 59 870.5 23.5 c 128,-1,4
 789 -12 789 -12 693 -18 c 1,5,-1
 693 -425 l 1,6,-1
 498 -425 l 1,7,-1
 498 -20 l 1,8,9
 399 -15 399 -15 319 21 c 128,-1,10
 239 57 239 57 182.5 126 c 128,-1,11
 126 195 126 195 96 299 c 128,-1,12
 66 403 66 403 66 544 c 0,13,14
 66 677 66 677 90.5 775 c 128,-1,15
 115 873 115 873 161.5 940.5 c 128,-1,16
 208 1008 208 1008 276.5 1048 c 128,-1,17
 345 1088 345 1088 434 1106 c 1,18,-1
 451 927 l 1,19,20
 409 914 409 914 379 879 c 128,-1,21
 349 844 349 844 329 792.5 c 128,-1,22
 309 741 309 741 300 677.5 c 128,-1,23
 291 614 291 614 291 544 c 0,24,25
 291 451 291 451 305.5 382 c 128,-1,26
 320 313 320 313 346.5 266.5 c 128,-1,27
 373 220 373 220 411.5 195.5 c 128,-1,28
 450 171 450 171 498 167 c 1,29,-1
 498 702 l 2,30,31
 498 900 498 900 569.5 1002 c 128,-1,32
 641 1104 641 1104 793 1104 c 0,33,34
 871 1104 871 1104 935 1066 c 128,-1,35
 999 1028 999 1028 1044 957.5 c 128,-1,36
 1089 887 1089 887 1113 787.5 c 128,-1,37
 1137 688 1137 688 1137 565 c 0,0,1
912 567 m 0,38,39
 912 758 912 758 881 844 c 128,-1,40
 850 930 850 930 794 930 c 0,41,42
 747 930 747 930 720 875.5 c 128,-1,43
 693 821 693 821 693 699 c 2,44,-1
 693 166 l 1,45,46
 798 172 798 172 855 272 c 128,-1,47
 912 372 912 372 912 567 c 0,38,39
EndSplineSet
EndChar

StartChar: chi
Encoding: 967 967 400
Width: 967
GlyphClass: 2
Flags: W
LayerCount: 2
Fore
SplineSet
191 1104 m 0,0,1
 240 1104 240 1104 277 1083 c 128,-1,2
 314 1062 314 1062 346.5 1015 c 128,-1,3
 379 968 379 968 410.5 893 c 128,-1,4
 442 818 442 818 481 710 c 1,5,-1
 497 664 l 2,6,7
 499 659 499 659 502 644 c 1,8,-1
 509 618 l 1,9,10
 513 632 513 632 520 652 c 2,11,-1
 533 691 l 1,12,-1
 546 729 l 2,13,14
 553 747 553 747 557 757 c 2,15,-1
 684 1082 l 1,16,-1
 928 1082 l 1,17,-1
 620 392 l 1,18,-1
 959 -424 l 1,19,-1
 713 -424 l 1,20,-1
 553 8 l 2,21,22
 547 23 547 23 538 48 c 1,23,-1
 522 100 l 1,24,-1
 506 154 l 2,25,26
 498 180 498 180 494 198 c 1,27,28
 490 181 490 181 482 155 c 2,29,-1
 464 102 l 1,30,-1
 446 52 l 2,31,32
 438 27 438 27 432 13 c 2,33,-1
 257 -424 l 1,34,-1
 11 -424 l 1,35,-1
 381 405 l 1,36,-1
 284 648 l 2,37,38
 254 724 254 724 231 773 c 128,-1,39
 208 822 208 822 189.5 850 c 128,-1,40
 171 878 171 878 153 888.5 c 128,-1,41
 135 899 135 899 113 899 c 0,42,43
 79 899 79 899 47 883 c 1,44,-1
 14 1074 l 1,45,46
 39 1085 39 1085 84 1094.5 c 128,-1,47
 129 1104 129 1104 191 1104 c 0,0,1
EndSplineSet
EndChar

StartChar: psi
Encoding: 968 968 401
Width: 1266
GlyphClass: 2
Flags: W
LayerCount: 2
Fore
SplineSet
739 176 m 1,0,1
 793 177 793 177 830.5 191.5 c 128,-1,2
 868 206 868 206 891.5 240.5 c 128,-1,3
 915 275 915 275 925 332 c 128,-1,4
 935 389 935 389 935 474 c 2,5,-1
 935 1082 l 1,6,-1
 1161 1082 l 1,7,-1
 1161 458 l 2,8,9
 1161 336 1161 336 1138.5 246.5 c 128,-1,10
 1116 157 1116 157 1065.5 98.5 c 128,-1,11
 1015 40 1015 40 935.5 10.5 c 128,-1,12
 856 -19 856 -19 741 -20 c 1,13,-1
 741 -425 l 1,14,-1
 528 -425 l 1,15,-1
 528 -20 l 1,16,17
 416 -19 416 -19 336.5 10.5 c 128,-1,18
 257 40 257 40 205.5 98.5 c 128,-1,19
 154 157 154 157 130 246.5 c 128,-1,20
 106 336 106 336 106 458 c 2,21,-1
 106 1082 l 1,22,-1
 331 1082 l 1,23,-1
 331 475 l 2,24,25
 331 390 331 390 343 333.5 c 128,-1,26
 355 277 355 277 379.5 242.5 c 128,-1,27
 404 208 404 208 441 193.5 c 128,-1,28
 478 179 478 179 528 177 c 1,29,-1
 528 1340 l 1,30,-1
 739 1340 l 1,31,-1
 739 176 l 1,0,1
EndSplineSet
EndChar

StartChar: omega
Encoding: 969 969 402
Width: 1419
GlyphClass: 2
Flags: W
LayerCount: 2
Fore
SplineSet
816 474 m 2,0,1
 816 332 816 332 854.5 254 c 128,-1,2
 893 176 893 176 963 176 c 0,3,4
 1007 176 1007 176 1037 200 c 128,-1,5
 1067 224 1067 224 1085 269 c 128,-1,6
 1103 314 1103 314 1110.5 377.5 c 128,-1,7
 1118 441 1118 441 1118 519 c 0,8,9
 1118 591 1118 591 1106 656.5 c 128,-1,10
 1094 722 1094 722 1069 775 c 128,-1,11
 1044 828 1044 828 1004.5 864.5 c 128,-1,12
 965 901 965 901 910 914 c 1,13,-1
 928 1103 l 1,14,15
 1027 1085 1027 1085 1106 1038.5 c 128,-1,16
 1185 992 1185 992 1239.5 918.5 c 128,-1,17
 1294 845 1294 845 1323.5 744.5 c 128,-1,18
 1353 644 1353 644 1353 517 c 0,19,20
 1353 389 1353 389 1329 289 c 128,-1,21
 1305 189 1305 189 1259.5 120.5 c 128,-1,22
 1214 52 1214 52 1147.5 16 c 128,-1,23
 1081 -20 1081 -20 996 -20 c 0,24,25
 935 -20 935 -20 888.5 -4 c 128,-1,26
 842 12 842 12 807.5 42 c 128,-1,27
 773 72 773 72 749 116.5 c 128,-1,28
 725 161 725 161 711 218 c 1,29,-1
 708 218 l 1,30,31
 694 161 694 161 670 116.5 c 128,-1,32
 646 72 646 72 611.5 42 c 128,-1,33
 577 12 577 12 530.5 -4 c 128,-1,34
 484 -20 484 -20 423 -20 c 0,35,36
 338 -20 338 -20 271.5 16 c 128,-1,37
 205 52 205 52 159.5 120.5 c 128,-1,38
 114 189 114 189 90 289 c 128,-1,39
 66 389 66 389 66 517 c 0,40,41
 66 644 66 644 95.5 744.5 c 128,-1,42
 125 845 125 845 179.5 918.5 c 128,-1,43
 234 992 234 992 312.5 1038.5 c 128,-1,44
 391 1085 391 1085 490 1103 c 1,45,-1
 509 916 l 1,46,47
 453 903 453 903 413.5 866 c 128,-1,48
 374 829 374 829 348.5 776.5 c 128,-1,49
 323 724 323 724 311.5 658.5 c 128,-1,50
 300 593 300 593 300 521 c 0,51,52
 300 443 300 443 307.5 379.5 c 128,-1,53
 315 316 315 316 333 271 c 128,-1,54
 351 226 351 226 380.5 201.5 c 128,-1,55
 410 177 410 177 454 177 c 0,56,57
 525 177 525 177 565 255 c 128,-1,58
 605 333 605 333 605 474 c 2,59,-1
 605 661 l 1,60,-1
 816 661 l 1,61,-1
 816 474 l 2,0,1
EndSplineSet
EndChar

StartChar: afii10051
Encoding: 1026 1026 409
Width: 1487
GlyphClass: 2
Flags: W
LayerCount: 2
Fore
SplineSet
634 1181 m 1,0,-1
 634 845 l 1,1,2
 664 860 664 860 706 878 c 128,-1,3
 748 896 748 896 799.5 911.5 c 128,-1,4
 851 927 851 927 910 937.5 c 128,-1,5
 969 948 969 948 1030 948 c 0,6,7
 1126 948 1126 948 1196 921 c 128,-1,8
 1266 894 1266 894 1311.5 839 c 128,-1,9
 1357 784 1357 784 1379 699.5 c 128,-1,10
 1401 615 1401 615 1401 500 c 2,11,-1
 1401 446 l 2,12,13
 1401 338 1401 338 1383.5 252 c 128,-1,14
 1366 166 1366 166 1324.5 105.5 c 128,-1,15
 1283 45 1283 45 1213.5 12.5 c 128,-1,16
 1144 -20 1144 -20 1039 -20 c 0,17,18
 978 -20 978 -20 930 -8.5 c 128,-1,19
 882 3 882 3 843 25.5 c 128,-1,20
 804 48 804 48 772.5 81.5 c 128,-1,21
 741 115 741 115 715 158 c 1,22,-1
 881 329 l 1,23,24
 895 307 895 307 910 286 c 128,-1,25
 925 265 925 265 943 248.5 c 128,-1,26
 961 232 961 232 982.5 222 c 128,-1,27
 1004 212 1004 212 1029 212 c 0,28,29
 1073 212 1073 212 1101 228.5 c 128,-1,30
 1129 245 1129 245 1143.5 276.5 c 128,-1,31
 1158 308 1158 308 1163 354.5 c 128,-1,32
 1168 401 1168 401 1168 461 c 2,33,-1
 1168 470 l 2,34,35
 1168 537 1168 537 1158 585.5 c 128,-1,36
 1148 634 1148 634 1123.5 665.5 c 128,-1,37
 1099 697 1099 697 1057.5 712 c 128,-1,38
 1016 727 1016 727 952 727 c 0,39,40
 908 727 908 727 863 721 c 128,-1,41
 818 715 818 715 776 705 c 128,-1,42
 734 695 734 695 697.5 683.5 c 128,-1,43
 661 672 661 672 634 661 c 1,44,-1
 634 0 l 1,45,-1
 392 0 l 1,46,-1
 392 1181 l 1,47,-1
 19 1181 l 1,48,-1
 19 1409 l 1,49,-1
 1008 1409 l 1,50,-1
 1008 1181 l 1,51,-1
 634 1181 l 1,0,-1
EndSplineSet
EndChar

StartChar: afii10053
Encoding: 1028 1028 411
Width: 1194
GlyphClass: 2
Flags: W
LayerCount: 2
Fore
SplineSet
645 212 m 0,0,1
 711 212 711 212 760.5 235.5 c 128,-1,2
 810 259 810 259 845 297 c 128,-1,3
 880 335 880 335 904 383 c 128,-1,4
 928 431 928 431 943 480 c 1,5,-1
 1150 383 l 1,6,7
 1125 307 1125 307 1084.5 234 c 128,-1,8
 1044 161 1044 161 983.5 105 c 128,-1,9
 923 49 923 49 839.5 14.5 c 128,-1,10
 756 -20 756 -20 642 -20 c 0,11,12
 494 -20 494 -20 386.5 34.5 c 128,-1,13
 279 89 279 89 208.5 186.5 c 128,-1,14
 138 284 138 284 103.5 418 c 128,-1,15
 69 552 69 552 69 711 c 0,16,17
 69 876 69 876 103 1009 c 128,-1,18
 137 1142 137 1142 206.5 1235.5 c 128,-1,19
 276 1329 276 1329 382 1379.5 c 128,-1,20
 488 1430 488 1430 632 1430 c 0,21,22
 743 1430 743 1430 826.5 1401 c 128,-1,23
 910 1372 910 1372 971.5 1319.5 c 128,-1,24
 1033 1267 1033 1267 1072.5 1195.5 c 128,-1,25
 1112 1124 1112 1124 1135 1038 c 1,26,-1
 926 967 l 1,27,28
 915 1012 915 1012 891.5 1053.5 c 128,-1,29
 868 1095 868 1095 832.5 1127 c 128,-1,30
 797 1159 797 1159 749 1178.5 c 128,-1,31
 701 1198 701 1198 639 1198 c 0,32,33
 564 1198 564 1198 506 1173 c 128,-1,34
 448 1148 448 1148 407.5 1100.5 c 128,-1,35
 367 1053 367 1053 344 984.5 c 128,-1,36
 321 916 321 916 317 829 c 1,37,-1
 765 829 l 1,38,-1
 765 601 l 1,39,-1
 316 601 l 1,40,41
 321 512 321 512 344 440 c 128,-1,42
 367 368 367 368 408 317.5 c 128,-1,43
 449 267 449 267 508.5 239.5 c 128,-1,44
 568 212 568 212 645 212 c 0,0,1
EndSplineSet
EndChar

StartChar: afii10058
Encoding: 1033 1033 416
Width: 1837
GlyphClass: 2
Flags: W
LayerCount: 2
Fore
SplineSet
1778 431 m 0,0,1
 1778 341 1778 341 1751.5 262 c 128,-1,2
 1725 183 1725 183 1671 125 c 128,-1,3
 1617 67 1617 67 1537 33.5 c 128,-1,4
 1457 0 1457 0 1351 0 c 2,5,-1
 784 0 l 1,6,-1
 784 1165 l 1,7,-1
 499 1165 l 1,8,-1
 459 817 l 2,9,10
 440 656 440 656 421.5 531.5 c 128,-1,11
 403 407 403 407 381.5 314.5 c 128,-1,12
 360 222 360 222 333.5 159 c 128,-1,13
 307 96 307 96 272 57 c 128,-1,14
 237 18 237 18 192 1 c 128,-1,15
 147 -16 147 -16 88 -16 c 0,16,17
 66 -16 66 -16 42 -11.5 c 128,-1,18
 18 -7 18 -7 7 1 c 1,19,-1
 7 248 l 1,20,21
 14 244 14 244 24.5 242.5 c 128,-1,22
 35 241 35 241 42 241 c 0,23,24
 61 241 61 241 77 251.5 c 128,-1,25
 93 262 93 262 108.5 290 c 128,-1,26
 124 318 124 318 138.5 367 c 128,-1,27
 153 416 153 416 167.5 493.5 c 128,-1,28
 182 571 182 571 197.5 680 c 128,-1,29
 213 789 213 789 230 936 c 2,30,-1
 285 1409 l 1,31,-1
 1026 1409 l 1,32,-1
 1026 848 l 1,33,-1
 1377 848 l 2,34,35
 1478 848 1478 848 1553.5 818 c 128,-1,36
 1629 788 1629 788 1678.5 733.5 c 128,-1,37
 1728 679 1728 679 1753 602 c 128,-1,38
 1778 525 1778 525 1778 431 c 0,0,1
1534 427 m 0,39,40
 1534 520 1534 520 1477 570.5 c 128,-1,41
 1420 621 1420 621 1306 621 c 2,42,-1
 1026 621 l 1,43,-1
 1026 230 l 1,44,-1
 1311 230 l 2,45,46
 1426 230 1426 230 1480 280.5 c 128,-1,47
 1534 331 1534 331 1534 427 c 0,39,40
EndSplineSet
EndChar

StartChar: afii10059
Encoding: 1034 1034 417
Width: 1786
GlyphClass: 2
Flags: W
LayerCount: 2
Fore
SplineSet
1725 431 m 0,0,1
 1725 341 1725 341 1698.5 262 c 128,-1,2
 1672 183 1672 183 1618 125 c 128,-1,3
 1564 67 1564 67 1484 33.5 c 128,-1,4
 1404 0 1404 0 1298 0 c 2,5,-1
 804 0 l 1,6,-1
 804 604 l 1,7,-1
 355 604 l 1,8,-1
 355 0 l 1,9,-1
 112 0 l 1,10,-1
 112 1409 l 1,11,-1
 355 1409 l 1,12,-1
 355 848 l 1,13,-1
 804 848 l 1,14,-1
 804 1409 l 1,15,-1
 1046 1409 l 1,16,-1
 1046 848 l 1,17,-1
 1324 848 l 2,18,19
 1425 848 1425 848 1500.5 818 c 128,-1,20
 1576 788 1576 788 1625.5 733.5 c 128,-1,21
 1675 679 1675 679 1700 602 c 128,-1,22
 1725 525 1725 525 1725 431 c 0,0,1
1481 427 m 0,23,24
 1481 520 1481 520 1424 570.5 c 128,-1,25
 1367 621 1367 621 1253 621 c 2,26,-1
 1046 621 l 1,27,-1
 1046 230 l 1,28,-1
 1258 230 l 2,29,30
 1373 230 1373 230 1427 280.5 c 128,-1,31
 1481 331 1481 331 1481 427 c 0,23,24
EndSplineSet
EndChar

StartChar: afii10060
Encoding: 1035 1035 418
Width: 1468
GlyphClass: 2
Flags: W
LayerCount: 2
Fore
SplineSet
633 1181 m 1,0,-1
 633 862 l 1,1,2
 663 876 663 876 700.5 891 c 128,-1,3
 738 906 738 906 780.5 918 c 128,-1,4
 823 930 823 930 871.5 937.5 c 128,-1,5
 920 945 920 945 972 945 c 0,6,7
 1165 945 1165 945 1262 832 c 128,-1,8
 1359 719 1359 719 1359 480 c 2,9,-1
 1359 0 l 1,10,-1
 1126 0 l 1,11,-1
 1126 449 l 2,12,13
 1126 521 1126 521 1114 573.5 c 128,-1,14
 1102 626 1102 626 1074 659.5 c 128,-1,15
 1046 693 1046 693 1002 709.5 c 128,-1,16
 958 726 958 726 895 726 c 0,17,18
 823 726 823 726 755 710 c 128,-1,19
 687 694 687 694 633 673 c 1,20,-1
 633 0 l 1,21,-1
 392 0 l 1,22,-1
 392 1181 l 1,23,-1
 19 1181 l 1,24,-1
 19 1409 l 1,25,-1
 1007 1409 l 1,26,-1
 1007 1181 l 1,27,-1
 633 1181 l 1,0,-1
EndSplineSet
EndChar

